<?xml version="1.0" encoding="utf-8"?>
<!-- Generator: Adobe Illustrator 26.0.1, SVG Export Plug-In . SVG Version: 6.00 Build 0)  -->
<svg version="1.1" id="Ebene_1" xmlns="http://www.w3.org/2000/svg" xmlns:xlink="http://www.w3.org/1999/xlink" x="0px" y="0px"
	 viewBox="0 0 1000 1000" style="enable-background:new 0 0 1000 1000;" xml:space="preserve">
<style type="text/css">
	.st0{fill:#F2F2F2;stroke:#666666;stroke-width:40;stroke-linecap:round;stroke-linejoin:round;stroke-miterlimit:10;}
	.st1{fill:#F2F2F2;stroke:#666666;stroke-width:39.8038;stroke-linecap:round;stroke-linejoin:round;stroke-miterlimit:10;}
	.st2{fill:none;stroke:#666666;stroke-width:39.8038;stroke-linecap:round;stroke-linejoin:round;stroke-miterlimit:10;}
	.st3{fill:none;stroke:#666666;stroke-width:68.0372;stroke-linecap:round;stroke-linejoin:round;stroke-miterlimit:10;}
	.st4{fill:#666666;}
	.st5{fill:none;stroke:#666666;stroke-width:40;stroke-linecap:round;stroke-linejoin:round;stroke-miterlimit:10;}
	.st6{fill:none;stroke:#666666;stroke-width:90;stroke-linecap:round;stroke-linejoin:round;stroke-miterlimit:10;}
	.st7{fill:#F2F2F2;}
	.st8{fill:none;stroke:#666666;stroke-width:98.74;stroke-linecap:round;stroke-linejoin:round;stroke-miterlimit:10;}
	.st9{fill:#F2F2F2;stroke:#666666;stroke-width:28;stroke-linecap:round;stroke-linejoin:round;stroke-miterlimit:10;}
</style>
<g>
	<g>
		<path class="st0" d="M459.02,462.09H67.54c-1.8,0-3.26-1.46-3.26-3.26V150.86c0-1.8,1.46-3.26,3.26-3.26h391.47
			c1.8,0,3.26,1.46,3.26,3.26v307.97C462.28,460.63,460.82,462.09,459.02,462.09z"/>
		<path class="st0" d="M459.02,852.4H67.54c-1.8,0-3.26-1.46-3.26-3.26V541.17c0-1.8,1.46-3.26,3.26-3.26h391.47
			c1.8,0,3.26,1.46,3.26,3.26v307.97C462.28,850.94,460.82,852.4,459.02,852.4z"/>
	</g>
	<g>
		<path class="st0" d="M932.46,462.09H540.98c-1.8,0-3.26-1.46-3.26-3.26V150.86c0-1.8,1.46-3.26,3.26-3.26h391.47
			c1.8,0,3.26,1.46,3.26,3.26v307.97C935.72,460.63,934.26,462.09,932.46,462.09z"/>
		<path class="st0" d="M932.46,852.4H540.98c-1.8,0-3.26-1.46-3.26-3.26V541.17c0-1.8,1.46-3.26,3.26-3.26h391.47
			c1.8,0,3.26,1.46,3.26,3.26v307.97C935.72,850.94,934.26,852.4,932.46,852.4z"/>
	</g>
</g>
</svg>
