<?xml version="1.0" encoding="utf-8"?>
<!-- Generator: Adobe Illustrator 26.0.1, SVG Export Plug-In . SVG Version: 6.00 Build 0)  -->
<svg version="1.1" id="Ebene_1" xmlns="http://www.w3.org/2000/svg" xmlns:xlink="http://www.w3.org/1999/xlink" x="0px" y="0px"
	 viewBox="0 0 1000 1000" style="enable-background:new 0 0 1000 1000;" xml:space="preserve">
<style type="text/css">
	.st0{fill:#F2F2F2;stroke:#666666;stroke-width:40;stroke-linecap:round;stroke-linejoin:round;stroke-miterlimit:10;}
	.st1{fill:#F2F2F2;stroke:#666666;stroke-width:39.8038;stroke-linecap:round;stroke-linejoin:round;stroke-miterlimit:10;}
	.st2{fill:none;stroke:#666666;stroke-width:39.8038;stroke-linecap:round;stroke-linejoin:round;stroke-miterlimit:10;}
	.st3{fill:none;stroke:#666666;stroke-width:68.0372;stroke-linecap:round;stroke-linejoin:round;stroke-miterlimit:10;}
	.st4{fill:#666666;}
	.st5{fill:none;stroke:#666666;stroke-width:40;stroke-linecap:round;stroke-linejoin:round;stroke-miterlimit:10;}
	.st6{fill:none;stroke:#666666;stroke-width:90;stroke-linecap:round;stroke-linejoin:round;stroke-miterlimit:10;}
	.st7{fill:#F2F2F2;}
	.st8{fill:none;stroke:#666666;stroke-width:98.74;stroke-linecap:round;stroke-linejoin:round;stroke-miterlimit:10;}
	.st9{fill:#F2F2F2;stroke:#666666;stroke-width:28;stroke-linecap:round;stroke-linejoin:round;stroke-miterlimit:10;}
</style>
<path class="st0" d="M766.99,162.5H233.01c-8.47,0-15.35,7.33-15.35,15.67v149.37c0,8.33,6.88,15.1,15.35,15.1h65.78
	c7.86,0,14.45-5.85,15.26-13.54l7.62-71.69h116.44v475.48l-87.25,9.82c-7.75,0.87-13.6,7.32-13.6,15v64.7
	c0,8.33,6.88,15.1,15.35,15.1h294.81c8.47,0,15.35-6.77,15.35-15.1v-64.7c0-7.69-5.88-14.15-13.64-15l-87.21-9.59V257.4h116.44
	l7.62,71.69c0.81,7.69,7.4,13.54,15.26,13.54h65.76c8.47,0,15.35-6.77,15.35-15.1V177.6C782.34,169.26,775.46,162.5,766.99,162.5z"
	/>
</svg>
