<?xml version="1.0" encoding="UTF-8" standalone="no"?>
<!-- Generator: Adobe Illustrator 27.0.1, SVG Export Plug-In . SVG Version: 6.00 Build 0)  -->

<svg
   version="1.0"
   id="Ebene_1"
   x="0px"
   y="0px"
   viewBox="0 0 1000 1000"
   style="enable-background:new 0 0 1000 1000;"
   xml:space="preserve"
   xmlns="http://www.w3.org/2000/svg"
   xmlns:svg="http://www.w3.org/2000/svg"><defs
   id="defs855" />
<style
   type="text/css"
   id="style824">
	.st0{fill:#676767;}
</style>
<g
   id="g850"
   transform="matrix(0.77063335,0,0,0.69574434,117.77778,187.3445)">
	
	
	
	
<path
   class="st13"
   d="m 228.79953,48.188118 h 539.14099 c 100.20329,0 181.42221,89.975572 181.42221,200.950232 v 327.27541 c 0,110.98905 -81.23189,200.95025 -181.42221,200.95025 H 394.89669 c -1.07703,0 -2.07621,0.45994 -2.78991,1.35107 -45.83243,56.87434 -120.0052,149.39396 -141.68866,176.44413 -2.30979,2.87462 -6.55306,1.19297 -6.78663,-2.64465 L 232.70541,781.40285 c -0.14274,-2.27095 -1.85562,-4.03884 -3.91885,-4.03884 v 0 c -100.19031,0 -181.422218,-89.9612 -181.422218,-200.95025 V 249.13835 C 47.377342,138.16369 128.59625,48.188118 228.79953,48.188118 Z"
   id="path924"
   style="fill:none;stroke:#676767;stroke-width:40.9706;stroke-linecap:round;stroke-linejoin:round;stroke-miterlimit:10;fill-opacity:1;stroke-opacity:1" /><g
   id="g848"
   transform="translate(-35.393412,-24.57864)"><path
     class="st0"
     d="m 866.8,380.7 c -11,0 -20,-9 -20,-20 V 261.2 C 846.8,223 815.7,192 777.6,192 h -57.4 c -11,0 -20,-9 -20,-20 0,-11 9,-20 20,-20 h 57.4 c 60.2,0 109.2,49 109.2,109.2 v 99.5 c 0,11 -9,20 -20,20 z"
     id="path846" /></g><g
   id="g832"
   transform="translate(-37.100367,4.1647937)"><path
     class="st0"
     d="m 869.1,509.2 c -11,0 -20,-9 -20,-20 v -58.1 c 0,-11 9,-20 20,-20 11,0 20,9 20,20 v 58.1 c 0,11 -9,20 -20,20 z"
     id="path830" /></g><g
   id="g844"
   transform="rotate(180,494.27598,436.71191)"><g
     id="g838"><g
       id="g836"><circle
         class="st0"
         cx="493"
         cy="622.59998"
         r="40.599998"
         id="circle834" /></g></g><g
     id="g842"><path
       class="st0"
       d="m 493,228.8 v 0 c -29.1,0 -36.72222,26.5 -34.62222,57.6 L 458.4,510 c 0.6,20 15.9,35.9 34.5,35.9 v 0 c 18.7,0 33.9,-15.9 34.5,-35.9 L 527.2967,286.14896 C 529.5967,254.94896 522.1,228.8 493,228.8 Z"
       id="path840" /></g></g></g>
</svg>
