<?xml version="1.0" encoding="utf-8"?>
<!-- Generator: Adobe Illustrator 27.0.1, SVG Export Plug-In . SVG Version: 6.00 Build 0)  -->
<svg version="1.0" id="Ebene_1" xmlns="http://www.w3.org/2000/svg" xmlns:xlink="http://www.w3.org/1999/xlink" x="0px" y="0px"
	 viewBox="0 0 1000 1000" style="enable-background:new 0 0 1000 1000;" xml:space="preserve">
<style type="text/css">
	.st0{fill:#676767;}
</style>
<g>
	<g>
		<path class="st0" d="M696.4,1000H355.5c-11,0-20-9-20-20v-97.2c0-23-12.1-39-30.4-55.8c-41.9-38.7-67.2-91.9-71.4-149.9L219,469.6
			c-6.4-39.4,12-74.3,47-89.2l2.5-1.1c4.4-1.8,7.9-3.4,10.8-4.7c11.2-4.9,16.6-6.9,23.9-7.1V71.7c0-39.5,33.8-71.7,75.4-71.7h2.7
			c41.6,0,75.4,32.2,75.4,71.7v224.1c10.6-5.4,22.6-8.4,35.4-8.4h2.7c19.7,0,38.4,7.2,52.5,20.2c3.6,3.4,6.9,7,9.7,10.9
			c14.6-10.5,33.2-15.8,52.4-14.1l2.7,0.2c18.7,1.7,36,9.8,48.6,23c4.6,4.8,8.5,10.2,11.6,15.9c12.7-5.5,26.9-7.6,41.2-5.8l2.7,0.3
			c32.2,4.1,57.7,27,64,57.2c0.1,0.6,0.3,1.2,0.3,1.8l0,0c0.1,0.6,0.2,1.2,0.3,1.8l0,0.3c0,0.1,0,0.1,0,0.2c0.1,0.9,0.2,1.8,0.3,2.7
			c0,0.1,0,0.2,0,0.3l0,0.2c0.1,0.5,0.1,1,0.2,1.5c1.3,13.5,0.6,27.1-0.3,45.9c-0.7,14.3-1.6,32-2,55.9
			c-1,61.7-17.7,188.9-41.8,247.9c-21,51.5-21,62.9-21,126.3V980C716.4,991,707.4,1000,696.4,1000z M375.5,960h300.8v-79.7
			c0-65.1,0-82.7,24-141.4c21.2-52,38-175.5,38.9-233.4c0.4-24.5,1.3-42.7,2-57.3c0.9-17.8,1.5-29.6,0.4-40.2c0-0.2,0-0.3,0-0.5
			l0-0.1c0-0.3-0.1-0.5-0.1-0.8c-0.1-0.6-0.1-1.1-0.2-1.7c0-0.3-0.1-0.6-0.1-0.8l0-0.1c0,0,0-0.1,0-0.1
			c-2.6-13.6-14.6-24.1-29.9-26.1l-2.7-0.3c-12.5-1.6-25.1,3-32.9,12c-5.5,6.3-14.4,8.6-22.2,5.6c-7.8-3-13-10.5-12.9-18.9
			c0.2-16.2-13.8-30.1-31.9-31.7l-2.7-0.2c-16.4-1.5-31.6,7.3-36.9,21.3c-3.4,9-12.7,14.2-22.2,12.6c-9.5-1.7-16.4-9.8-16.5-19.4
			c-0.2-17.3-16.1-31.3-35.4-31.3h-2.7c-19.5,0-35.4,14.2-35.4,31.7c0,11-9,20-20,20c-11,0-20-9-20-20V71.7
			c0-17.5-15.9-31.7-35.4-31.7h-2.7c-19.5,0-35.4,14.2-35.4,31.7v504.8c0,11-8.8,19.9-19.8,20c-11,0.1-20-8.7-20.2-19.7l-2.9-167.7
			c-1.5,0.6-3.2,1.4-4.9,2.1c-3,1.3-6.7,2.9-11.3,4.9l-2.5,1.1c-18.1,7.7-26.8,25.1-23,46.5c0.1,0.7,0.2,1.3,0.2,2l14.9,208.5
			c3.4,47.8,24.2,91.6,58.6,123.4c21.4,19.7,43.2,45.3,43.2,85.2V960z M741.6,407.3C741.6,407.3,741.6,407.3,741.6,407.3
			C741.6,407.3,741.6,407.3,741.6,407.3z"/>
	</g>
</g>
</svg>
