<?xml version="1.0" encoding="utf-8"?>
<!-- Generator: Adobe Illustrator 27.0.1, SVG Export Plug-In . SVG Version: 6.00 Build 0)  -->
<svg version="1.0" id="Ebene_1" xmlns="http://www.w3.org/2000/svg" xmlns:xlink="http://www.w3.org/1999/xlink" x="0px" y="0px"
	 viewBox="0 0 1000 1000" style="enable-background:new 0 0 1000 1000;" xml:space="preserve">
<style type="text/css">
	.st0{fill:#676767;}
</style>
<path class="st0" d="M732,797.9v-370c0-1.2,0-2.5,0-3.7v-404C732,9,722.9,0,711.8,0c-11.1,0-20.1,9-20.1,20.1v311.6
	c-15.4-15.4-34.9-28.4-57.9-38.5c-49.3-21.4-109.4-26.6-169.3-14.5c-36.5,7.3-71.5,21-101.1,39.4c-29.2,18.2-53.3,41.1-69.8,66.2
	c-22.5,34.4-30.4,71.5-22.7,107.3c9.8,45.7,43.7,83.3,95.3,105.7c31.8,13.8,68.2,20.9,106.2,20.9c20.8,0,42-2.1,63.2-6.4
	c36.5-7.3,71.5-21,101.1-39.4c21.4-13.3,40.1-29.2,55-46.7v187.5c-15.4-15.4-34.9-28.4-57.9-38.4c-49.3-21.4-109.4-26.6-169.3-14.5
	c-36.5,7.3-71.5,21-101.1,39.4c-29.2,18.2-53.3,41.1-69.8,66.2c-22.5,34.4-30.4,71.5-22.7,107.3c9.8,45.7,43.7,83.3,95.3,105.7
	c31.8,13.8,68.2,20.9,106.2,20.9c20.8,0,42-2.1,63.2-6.4c36.5-7.3,71.5-21,101.1-39.4c29.2-18.2,53.3-41.1,69.8-66.2
	c18.4-28.1,27-58,25.4-87.5C731.9,799.6,732,798.8,732,797.9z M672.7,484.3c-27.9,42.6-82.2,75.6-145.1,88.2
	c-51.9,10.4-103.6,6.2-145.3-12c-39.4-17.1-65-44.6-72-77.3c-5.4-25,0.5-51.6,17-76.8c27.9-42.6,82.2-75.6,145.1-88.2
	c18.6-3.7,37.2-5.6,55.3-5.6c32.4,0,63.2,5.9,90,17.6c39.4,17.1,65,44.6,72,77.3c0,0,0,0,0,0C695.1,432.6,689.2,459.1,672.7,484.3z
	 M672.7,865.9c-27.9,42.6-82.2,75.6-145.1,88.2c-51.9,10.4-103.6,6.2-145.3-12c-39.4-17.1-65-44.6-72-77.3c-5.4-25,0.5-51.6,17-76.8
	c27.9-42.6,82.2-75.6,145.1-88.2c18.6-3.7,37.2-5.6,55.3-5.6c32.4,0,63.2,5.9,90,17.6c39.4,17.1,65,44.6,72,77.3c0,0,0,0,0,0
	C695.1,814.2,689.2,840.7,672.7,865.9z"/>
</svg>
