<?xml version="1.0" encoding="utf-8"?>
<!-- Generator: Adobe Illustrator 27.0.1, SVG Export Plug-In . SVG Version: 6.00 Build 0)  -->
<svg version="1.0" id="Ebene_1" xmlns="http://www.w3.org/2000/svg" xmlns:xlink="http://www.w3.org/1999/xlink" x="0px" y="0px"
	 viewBox="0 0 1000 1000" style="enable-background:new 0 0 1000 1000;" xml:space="preserve">
<style type="text/css">
	.st0{fill:#676767;}
</style>
<g>
	<g>
		<path class="st0" d="M468.5,1000c-42.9,0-84-8-120-23.6c-27.8-12.1-51.1-28.1-69.4-47.7c-19.4-20.8-32.1-44.7-37.7-70.9
			c-8.6-40.1,0.2-81.6,25.5-120.2c18.6-28.3,45.8-54.1,78.7-74.7c33.5-20.9,73.1-36.3,114.4-44.6c67.8-13.6,135.8-7.8,191.5,16.4
			c27.8,12.1,51.1,28.1,69.4,47.7c19.4,20.8,32.1,44.7,37.7,70.9c8.6,40.1-0.2,81.6-25.5,120.2c-18.6,28.3-45.8,54.1-78.7,74.7
			c-33.5,20.9-73.1,36.3-114.4,44.6C516,997.6,492,1000,468.5,1000z M531.6,651.1c-20.9,0-42.3,2.1-63.7,6.5
			c-72.6,14.6-135.2,52.7-167.5,102c-19.3,29.4-26.1,60.5-19.8,89.9c8.2,38.3,38.1,70.4,83.9,90.3c48.2,21,107.8,25.9,167.7,13.9
			c72.6-14.6,135.2-52.7,167.5-102c19.3-29.4,26.1-60.5,19.8-89.9c-8.2-38.3-38.1-70.4-83.9-90.3C604.6,657.9,569,651.1,531.6,651.1
			z"/>
	</g>
	<g>
		<path class="st0" d="M741.8,812.6c-11,0-20-9-20-20V20c0-11,9-20,20-20c11,0,20,9,20,20v772.6
			C761.8,803.7,752.8,812.6,741.8,812.6z"/>
	</g>
</g>
</svg>
