<?xml version="1.0" encoding="utf-8"?>
<!-- Generator: Adobe Illustrator 26.0.1, SVG Export Plug-In . SVG Version: 6.00 Build 0)  -->
<svg version="1.1" id="Ebene_1" xmlns="http://www.w3.org/2000/svg" xmlns:xlink="http://www.w3.org/1999/xlink" x="0px" y="0px"
	 viewBox="0 0 1000 1000" style="enable-background:new 0 0 1000 1000;" xml:space="preserve">
<style type="text/css">
	.st0{fill:#F2F2F2;stroke:#666666;stroke-width:40;stroke-linecap:round;stroke-linejoin:round;stroke-miterlimit:10;}
	.st1{fill:#F2F2F2;stroke:#666666;stroke-width:39.8038;stroke-linecap:round;stroke-linejoin:round;stroke-miterlimit:10;}
	.st2{fill:none;stroke:#666666;stroke-width:39.8038;stroke-linecap:round;stroke-linejoin:round;stroke-miterlimit:10;}
	.st3{fill:none;stroke:#666666;stroke-width:68.0372;stroke-linecap:round;stroke-linejoin:round;stroke-miterlimit:10;}
	.st4{fill:#666666;}
	.st5{fill:none;stroke:#666666;stroke-width:40;stroke-linecap:round;stroke-linejoin:round;stroke-miterlimit:10;}
	.st6{fill:none;stroke:#666666;stroke-width:90;stroke-linecap:round;stroke-linejoin:round;stroke-miterlimit:10;}
	.st7{fill:#F2F2F2;}
	.st8{fill:none;stroke:#666666;stroke-width:98.74;stroke-linecap:round;stroke-linejoin:round;stroke-miterlimit:10;}
	.st9{fill:#F2F2F2;stroke:#666666;stroke-width:28;stroke-linecap:round;stroke-linejoin:round;stroke-miterlimit:10;}
</style>
<g>
	<g>
		<path class="st0" d="M610.05,157.1L218.66,385.41H57.19c-1.22,0-2.21,0.99-2.21,2.21v221.94c0,1.22,0.99,2.21,2.21,2.21h161.47
			L610.05,842.9c34.56,19.85,77.66-5.1,77.66-44.96V202.06C687.71,162.2,644.61,137.25,610.05,157.1z"/>
		<path class="st0" d="M312.22,429.14c10.61-5.31,151.22-83.57,151.22-83.57"/>
		<path class="st0" d="M528.43,309.76c10.61-5.31,53.06-29.18,53.06-29.18"/>
		<line class="st0" x1="215.03" y1="389.29" x2="215.03" y2="603.54"/>
	</g>
	<g>
		<line class="st0" x1="796.98" y1="502.65" x2="945.02" y2="502.65"/>
		<line class="st0" x1="785.18" y1="315.95" x2="914.37" y2="243.66"/>
		<line class="st0" x1="909.07" y1="756.34" x2="779.87" y2="684.05"/>
	</g>
</g>
</svg>
