<?xml version="1.0" encoding="utf-8"?>
<!-- Generator: Adobe Illustrator 26.0.1, SVG Export Plug-In . SVG Version: 6.00 Build 0)  -->
<svg version="1.1" id="Ebene_1" xmlns="http://www.w3.org/2000/svg" xmlns:xlink="http://www.w3.org/1999/xlink" x="0px" y="0px"
	 viewBox="0 0 1000 1000" style="enable-background:new 0 0 1000 1000;" xml:space="preserve">
<style type="text/css">
	.st0{fill:#F2F2F2;stroke:#666666;stroke-width:40;stroke-linecap:round;stroke-linejoin:round;stroke-miterlimit:10;}
	.st1{fill:#F2F2F2;stroke:#666666;stroke-width:39.8038;stroke-linecap:round;stroke-linejoin:round;stroke-miterlimit:10;}
	.st2{fill:none;stroke:#666666;stroke-width:39.8038;stroke-linecap:round;stroke-linejoin:round;stroke-miterlimit:10;}
	.st3{fill:none;stroke:#666666;stroke-width:68.0372;stroke-linecap:round;stroke-linejoin:round;stroke-miterlimit:10;}
	.st4{fill:#666666;}
	.st5{fill:none;stroke:#666666;stroke-width:40;stroke-linecap:round;stroke-linejoin:round;stroke-miterlimit:10;}
	.st6{fill:none;stroke:#666666;stroke-width:90;stroke-linecap:round;stroke-linejoin:round;stroke-miterlimit:10;}
	.st7{fill:#F2F2F2;}
	.st8{fill:none;stroke:#666666;stroke-width:98.74;stroke-linecap:round;stroke-linejoin:round;stroke-miterlimit:10;}
	.st9{fill:#F2F2F2;stroke:#666666;stroke-width:28;stroke-linecap:round;stroke-linejoin:round;stroke-miterlimit:10;}
</style>
<g>
	<path class="st1" d="M796.15,104.64h-592.3c-79.71,0-144.34,64.61-144.34,144.3v364.76c0,79.69,64.62,144.3,144.34,144.3h455.42
		c43.87,49.14,121.09,136.11,121.09,136.11l9.63-136.11h6.16c79.71,0,144.33-64.61,144.33-144.3V248.94
		C940.48,169.25,875.86,104.64,796.15,104.64z"/>
	<path class="st2" d="M664.72,202.52h68.9c61.01,0,110.48,49.45,110.48,110.45"/>
	<line class="st2" x1="844.1" y1="375.02" x2="844.1" y2="447.2"/>
	<path class="st3" d="M413.3,369.65c0-37.97,31.05-68.69,69.15-68.16c36.21,0.5,66.7,30.99,67.2,67.18
		c0.31,22.53-8.64,38.41-26.91,55.23c-23.21,21.37-41.26,47.63-41.26,79.18v0"/>
</g>
<circle class="st4" cx="477.03" cy="586.48" r="35.43"/>
</svg>
