<?xml version="1.0" encoding="utf-8"?>
<!-- Generator: Adobe Illustrator 27.0.1, SVG Export Plug-In . SVG Version: 6.00 Build 0)  -->
<svg version="1.0" xmlns="http://www.w3.org/2000/svg" xmlns:xlink="http://www.w3.org/1999/xlink" x="0px" y="0px"
	 viewBox="0 0 1000 1000" style="enable-background:new 0 0 1000 1000;" xml:space="preserve">
<style type="text/css">
	.st0{fill:#666666;}
	.st1{fill:#6F6F6E;}
	.st2{fill:#F2F2F2;}
</style>
<g id="Ebene_1">
	<g>
		<path class="st0" d="M493.3,265c67.8,0,123,55.2,123,123c0,8.1,6.6,14.7,14.7,14.7s14.7-6.6,14.7-14.7
			c0-84-68.3-152.3-152.3-152.3C409.3,235.7,341,304,341,388v240.9c0,8.1,6.6,14.7,14.7,14.7c8.1,0,14.7-6.6,14.7-14.7v-98.1
			c18.8-9,40.7-9.1,59.7,0.2c16.5,8,28.9,22,34.9,39.4c7.6,21.9,1.6,47.1-15.7,65.8c-15.2,16.5-37.6,39.1-57.6,53
			c-6.7,4.6-8.3,13.8-3.7,20.4c2.8,4.1,7.4,6.3,12.1,6.3c2.9,0,5.8-0.9,8.4-2.6c22.2-15.4,46.2-39.6,62.4-57.2
			c24.6-26.7,33-63.2,21.9-95.3c-8.6-24.8-26.3-44.7-49.8-56.1c-23-11.2-48.8-12.8-72.5-5.3V388C370.3,320.2,425.5,265,493.3,265z"
			/>
		<path class="st0" d="M601.4,632.6c-41.1,34-83.7,69.1-109,124.4c-43.1,94.3-76.8,102.2-107.6,102.2
			c-72.2,0-130.9-58.7-130.9-130.9c0-32.6,0.9-93,1.9-156.9c1.1-72.2,2.3-146.8,2.3-192.4c0-131.3,106.8-238.2,238.2-238.2
			S734.5,247.6,734.5,379c0,21.2-1.5,40.2-4.2,57.7c9.3,5.5,17.9,11.9,25.6,19.4c4.4-22.9,6.9-48.3,6.9-77.1
			c0-147-119.6-266.5-266.5-266.5S229.8,232,229.8,379c0,45.4-1.1,119.9-2.3,191.9c-1,64-1.9,124.5-1.9,157.4
			c0,87.8,71.5,159.3,159.3,159.3c56.9,0,94.3-33.3,133.3-118.8c19.5-42.6,50.5-71.9,84.6-100.5c4.2-19.9,12.4-39,24.5-57.4
			C618.9,618.2,610.2,625.4,601.4,632.6z"/>
		<path class="st0" d="M663.4,441.8c-30.4-0.4-59,11.1-80.6,32.4c-21.6,21.3-33.5,49.8-33.5,80.2c0,21.1,17.1,38.3,38.3,38.3
			c21.1,0,38.3-17.1,38.3-38.3c0-9.7,3.8-18.8,10.7-25.7c6.9-6.8,16.1-10.5,25.8-10.4c18.7,0.3,35.3,16.9,35.5,35.5
			c0.1,10.4-2.4,18.1-17,31.5c-38,35-57.3,73.5-57.3,114.5c0,21.1,17.1,38.3,38.3,38.3c21.1,0,38.3-17.1,38.3-38.3
			c0-18.9,10.7-38,32.6-58.2c19.7-18.2,42.3-44.7,41.7-88.9C773.5,492.5,723.7,442.7,663.4,441.8z"/>
		<circle class="st0" cx="662.8" cy="782.6" r="35.3"/>
	</g>
</g>
<g id="Ebene_2">
</g>
</svg>
