<?xml version="1.0" encoding="utf-8"?>
<!-- Generator: Adobe Illustrator 27.0.1, SVG Export Plug-In . SVG Version: 6.00 Build 0)  -->
<svg version="1.0" xmlns="http://www.w3.org/2000/svg" xmlns:xlink="http://www.w3.org/1999/xlink" x="0px" y="0px"
	 viewBox="0 0 1000 1000" style="enable-background:new 0 0 1000 1000;" xml:space="preserve">
<style type="text/css">
	.st0{fill:#666666;}
	.st1{fill:#6F6F6E;}
	.st2{fill:#F2F2F2;}
</style>
<g id="Ebene_1">
	<g>
		<path class="st0" d="M786.2,186.8H213.7c-63.1,0-114.4,51.3-114.4,114.4v397.6c0,63.1,51.3,114.4,114.4,114.4h572.5
			c63.1,0,114.4-51.3,114.4-114.4V301.2C900.7,238.1,849.3,186.8,786.2,186.8z M869,698.8c0,23.8-10.1,45.3-26.2,60.4l-185-275.3
			c-14.9-21.7-51.6-22.1-67.2-0.8L447.8,682.7L337.1,581.4c-10.3-15-35.7-15.3-46.4-0.5L159.5,761.2C142.1,746,131,723.7,131,698.8
			V301.2c0-45.6,37.1-82.7,82.7-82.7h572.5c45.6,0,82.7,37.1,82.7,82.7V698.8z"/>
		
			<ellipse transform="matrix(0.7071 -0.7071 0.7071 0.7071 -164.1985 417.0152)" class="st0" cx="421.3" cy="406.7" rx="72.9" ry="72.9"/>
	</g>
</g>
<g id="Ebene_2">
</g>
</svg>
