<?xml version="1.0" encoding="utf-8"?>
<!-- Generator: Adobe Illustrator 27.0.1, SVG Export Plug-In . SVG Version: 6.00 Build 0)  -->
<svg version="1.0" xmlns="http://www.w3.org/2000/svg" xmlns:xlink="http://www.w3.org/1999/xlink" x="0px" y="0px"
	 viewBox="0 0 1000 1000" style="enable-background:new 0 0 1000 1000;" xml:space="preserve">
<style type="text/css">
	.st0{fill:#666666;}
	.st1{fill:#6F6F6E;}
	.st2{fill:#F2F2F2;}
</style>
<g id="Ebene_1">
	<g>
		<g>
			<path class="st1" d="M821.7,62.9c16.6,0,30.2,13.5,30.2,30.2v813.9c0,16.6-13.5,30.2-30.2,30.2H178.3
				c-16.6,0-30.2-13.5-30.2-30.2V93.1c0-16.6,13.5-30.2,30.2-30.2H821.7 M821.7,35.9H178.3c-31.5,0-57.2,25.6-57.2,57.2v813.9
				c0,31.5,25.6,57.2,57.2,57.2h643.4c31.5,0,57.2-25.6,57.2-57.2V93.1C878.9,61.6,853.2,35.9,821.7,35.9L821.7,35.9z"/>
		</g>
		<path class="st0" d="M497.9,661.4c-5.9,0-10.7-4.8-10.7-10.7v-55.8c0-5.9,4.8-10.7,10.7-10.7s10.7,4.8,10.7,10.7v55.8
			C508.6,656.6,503.8,661.4,497.9,661.4z"/>
		<path class="st0" d="M497.9,427c-5.9,0-10.7-4.8-10.7-10.7V169.7c0-5.9,4.8-10.7,10.7-10.7s10.7,4.8,10.7,10.7v246.6
			C508.6,422.2,503.8,427,497.9,427z"/>
		<path class="st0" d="M517.2,566.6h-38.6c-16.1,0-29.1-13.1-29.1-29.1v-65.7c0-16.1,13.1-29.1,29.1-29.1h38.6
			c16.1,0,29.1,13.1,29.1,29.1v65.7C546.3,553.6,533.3,566.6,517.2,566.6z M478.6,464.1c-4.3,0-7.7,3.5-7.7,7.7v65.7
			c0,4.3,3.5,7.7,7.7,7.7h38.6c4.3,0,7.7-3.5,7.7-7.7v-65.7c0-4.3-3.5-7.7-7.7-7.7H478.6z"/>
		<path class="st0" d="M284.1,661.4c-5.9,0-10.7-4.8-10.7-10.7V445.3c0-5.9,4.8-10.7,10.7-10.7s10.7,4.8,10.7,10.7v205.5
			C294.8,656.6,290,661.4,284.1,661.4z"/>
		<path class="st0" d="M284.1,277.3c-5.9,0-10.7-4.8-10.7-10.7v-96.9c0-5.9,4.8-10.7,10.7-10.7s10.7,4.8,10.7,10.7v96.9
			C294.8,272.5,290,277.3,284.1,277.3z"/>
		<path class="st0" d="M303.4,416.9h-38.6c-16.1,0-29.1-13.1-29.1-29.1v-65.7c0-16.1,13.1-29.1,29.1-29.1h38.6
			c16.1,0,29.1,13.1,29.1,29.1v65.7C332.5,403.9,319.5,416.9,303.4,416.9z M264.8,314.4c-4.3,0-7.7,3.5-7.7,7.7v65.7
			c0,4.3,3.5,7.7,7.7,7.7h38.6c4.3,0,7.7-3.5,7.7-7.7v-65.7c0-4.3-3.5-7.7-7.7-7.7H264.8z"/>
		<path class="st0" d="M711.7,661.4c-5.9,0-10.7-4.8-10.7-10.7V509.4c0-5.9,4.8-10.7,10.7-10.7c5.9,0,10.7,4.8,10.7,10.7v141.3
			C722.4,656.6,717.7,661.4,711.7,661.4z"/>
		<path class="st0" d="M711.7,341.4c-5.9,0-10.7-4.8-10.7-10.7V169.7c0-5.9,4.8-10.7,10.7-10.7c5.9,0,10.7,4.8,10.7,10.7v161.1
			C722.4,336.7,717.7,341.4,711.7,341.4z"/>
		<path class="st0" d="M731.1,481.1h-38.6c-16.1,0-29.1-13.1-29.1-29.1v-65.7c0-16.1,13.1-29.1,29.1-29.1h38.6
			c16.1,0,29.1,13.1,29.1,29.1V452C760.2,468,747.1,481.1,731.1,481.1z M692.4,378.5c-4.3,0-7.7,3.5-7.7,7.7V452
			c0,4.3,3.5,7.7,7.7,7.7h38.6c4.3,0,7.7-3.5,7.7-7.7v-65.7c0-4.3-3.5-7.7-7.7-7.7H692.4z"/>
		<path class="st0" d="M286.2,855.1c-38.2,0-69.3-31.1-69.3-69.3s31.1-69.3,69.3-69.3s69.3,31.1,69.3,69.3S324.5,855.1,286.2,855.1z
			 M286.2,737.9c-26.4,0-47.9,21.5-47.9,47.9c0,26.4,21.5,47.9,47.9,47.9c26.4,0,47.9-21.5,47.9-47.9
			C334.2,759.4,312.7,737.9,286.2,737.9z"/>
		<path class="st0" d="M286.2,796.5c-5.9,0-10.7-4.8-10.7-10.7v-58.6c0-5.9,4.8-10.7,10.7-10.7s10.7,4.8,10.7,10.7v58.6
			C296.9,791.7,292.1,796.5,286.2,796.5z"/>
		<path class="st0" d="M713.8,855.1c-38.2,0-69.3-31.1-69.3-69.3s31.1-69.3,69.3-69.3s69.3,31.1,69.3,69.3S752,855.1,713.8,855.1z
			 M713.8,737.9c-26.4,0-47.9,21.5-47.9,47.9c0,26.4,21.5,47.9,47.9,47.9c26.4,0,47.9-21.5,47.9-47.9
			C761.7,759.4,740.2,737.9,713.8,737.9z"/>
		<path class="st0" d="M772.4,796.5h-58.6c-5.9,0-10.7-4.8-10.7-10.7c0-5.9,4.8-10.7,10.7-10.7h58.6c5.9,0,10.7,4.8,10.7,10.7
			C783.1,791.7,778.3,796.5,772.4,796.5z"/>
		<path class="st0" d="M502.2,855.1c-17.2,0-34.5-6.4-47.9-19.2c-27.6-26.4-28.6-70.4-2.1-98c12.8-13.4,30.1-21,48.6-21.4
			c18.5-0.4,36.1,6.4,49.5,19.2s21,30.1,21.4,48.6c0.4,18.5-6.4,36.1-19.2,49.5l0,0C538.7,847.9,520.5,855.1,502.2,855.1z
			 M502.3,737.9c-0.4,0-0.7,0-1.1,0c-12.8,0.3-24.7,5.5-33.6,14.8c-18.3,19.1-17.6,49.5,1.5,67.8c19.1,18.3,49.5,17.6,67.8-1.5
			c8.9-9.3,13.6-21.4,13.3-34.2c-0.3-12.8-5.5-24.7-14.8-33.6C526.4,742.6,514.7,737.9,502.3,737.9z M544.6,826.3L544.6,826.3
			L544.6,826.3z"/>
		<line class="st2" x1="542.8" y1="743.4" x2="502.2" y2="785.8"/>
		<path class="st0" d="M502.2,796.5c-2.7,0-5.3-1-7.4-3c-4.3-4.1-4.4-10.9-0.3-15.1l40.5-42.4c4.1-4.3,10.9-4.4,15.1-0.3
			s4.4,10.9,0.3,15.1L510,793.2C507.9,795.4,505.1,796.5,502.2,796.5z"/>
	</g>
</g>
<g id="Ebene_2">
</g>
</svg>
