<?xml version="1.0" encoding="utf-8"?>
<!-- Generator: Adobe Illustrator 27.0.1, SVG Export Plug-In . SVG Version: 6.00 Build 0)  -->
<svg version="1.0" xmlns="http://www.w3.org/2000/svg" xmlns:xlink="http://www.w3.org/1999/xlink" x="0px" y="0px"
	 viewBox="0 0 1000 1000" style="enable-background:new 0 0 1000 1000;" xml:space="preserve">
<style type="text/css">
	.st0{fill:#666666;}
	.st1{fill:#6F6F6E;}
	.st2{fill:#F2F2F2;}
</style>
<g id="Ebene_1">
	<g>
		<path class="st0" d="M941.3,190.5l-72.3-90.7c-21.9-27.5-62.1-32-89.5-10.2L335.2,436.4c-2.3,1.8-4,4.1-5,6.8l-43.7,119
			c-0.3,0.6-0.6,1.3-0.9,2L266.8,616c-3.3,9.2-1.7,19.3,4.4,27c0.9,1.1,1.9,2.1,2.9,3.1c5,11.7,6.8,23.6,5.2,34.2
			c-6.3,41.4-41.6,71.6-83,74.3c-1.4-80.9-3-192.7-2.9-284.5c31.7-27,94-92.1,109.9-154c5.6-21.8,2.2-43.6-9.4-61.1
			c-10.2-15.5-26.2-25.9-43.7-28.5c-17.3-2.6-33.6,1.6-47.1,12.2c-20.4,16.1-33.9,46.3-37.1,82.8c-2.2,25.7-3.1,75-3.3,133.8
			C83.9,513.5,56.6,552,46.4,618.6c-11.7,77.2,41.7,149.9,119.8,164.5c0.8,41.7,1.4,71.2,1.6,79.1l-2.7,15.5c0,0.1,0,0.2-0.1,0.3
			c-0.7,4.8-3.3,9-7.2,11.9c-3.9,2.9-8.7,4-13.5,3.3c-4.8-0.7-9-3.3-11.9-7.2c-2.9-3.9-4-8.7-3.3-13.5c0.8-5.4,3.6-8.8,5.9-10.8
			c6.3-5.6,6.9-15.3,1.3-21.7c-5.6-6.3-15.3-6.9-21.7-1.3c-8.5,7.5-14.1,17.9-15.8,29.2c-2,12.9,1.2,25.8,8.9,36.3
			c7.7,10.5,19.1,17.4,32,19.3c2.5,0.4,5,0.6,7.4,0.6c10.3,0,20.4-3.3,28.8-9.5c10.5-7.7,17.3-19,19.3-31.8l3-16.9
			c0.2-1,0.2-2,0.2-3c0-1.1-0.7-31.6-1.6-77.8c56.1-3,104.2-44,112.8-100.4c1.6-10.7,1.1-21.8-1.5-33l43.1-5.3
			c0.7-0.1,1.4-0.2,2.1-0.4l125.8-16c2.7-0.3,5.3-1.4,7.5-3.1l444.5-346.9C958.7,258.2,963.2,218,941.3,190.5z M196.7,324.1
			c2.3-27.3,12.1-50.8,25.5-61.3c5.4-4.3,11.4-6.4,18.1-6.4c1.7,0,3.5,0.1,5.3,0.4c9,1.4,17.3,6.9,22.7,15.1
			c6.8,10.2,8.6,23.2,5.2,36.6c-10.7,41.7-49.6,89.5-80,119.7C194,382.3,194.9,344.9,196.7,324.1z M76.8,623.2
			c8-52.6,28.2-84.2,86-129.5c0.2,85.8,1.6,184.1,2.8,257.9C107.1,737.4,67.8,682,76.8,623.2z M924.3,234c-1,8.8-5.3,16.6-12.1,22
			L478,594.9l-83.2-104.5c-5.3-6.6-14.9-7.7-21.6-2.4c-6.6,5.3-7.7,14.9-2.4,21.6l74.8,93.9L356,614.8l-38.4-48.1l39.9-108.8
			l441-344.2c14.3-11.4,35.1-9,46.5,5.3l72.3,90.7C922.8,216.6,925.3,225.2,924.3,234z"/>
		<path class="st0" d="M795.3,282.4l-308,238.1c-6.7,5.2-7.9,14.8-2.8,21.5c3,3.9,7.6,6,12.2,6c3.3,0,6.6-1,9.4-3.2l308-238.1
			c6.7-5.2,7.9-14.8,2.8-21.5C811.7,278.5,802,277.2,795.3,282.4z"/>
		<path class="st0" d="M601,388.2c-5.3-6.6-14.9-7.7-21.6-2.5L453.4,486c-6.6,5.3-7.7,14.9-2.5,21.6c3,3.8,7.5,5.8,12,5.8
			c3.3,0,6.7-1.1,9.5-3.3l126.1-100.3C605.2,404.4,606.3,394.8,601,388.2z"/>
	</g>
</g>
<g id="Ebene_2">
</g>
</svg>
