<?xml version="1.0" encoding="utf-8"?>
<!-- Generator: Adobe Illustrator 27.0.1, SVG Export Plug-In . SVG Version: 6.00 Build 0)  -->
<svg version="1.0" xmlns="http://www.w3.org/2000/svg" xmlns:xlink="http://www.w3.org/1999/xlink" x="0px" y="0px"
	 viewBox="0 0 1000 1000" style="enable-background:new 0 0 1000 1000;" xml:space="preserve">
<style type="text/css">
	.st0{fill:#666666;}
	.st1{fill:#6F6F6E;}
	.st2{fill:#F2F2F2;}
</style>
<g id="Ebene_1">
	<g>
		<path class="st0" d="M739.9,159.1H612c-0.5-10.8-5.4-21.1-13.6-28.4c-8.8-7.9-20.7-11.5-32.5-10.2l-350.6,40.6v677.7l350.6,40.6v0
			c1.6,0.2,3.2,0.3,4.8,0.3c10.2,0,20.1-3.7,27.7-10.5c8.2-7.3,13.1-17.5,13.6-28.4h128c24.7,0,44.8-20.1,44.8-44.8V203.9
			C784.8,179.2,764.7,159.1,739.9,159.1z M575,838.8c0,1.3-0.7,2.2-1.3,2.7c-0.6,0.5-1.8,1.3-3.6,1.1l-317.8-36.8V194.1l317.9-36.8
			c1.7-0.2,3,0.6,3.5,1.1c0.6,0.5,1.3,1.4,1.3,2.7V838.8z M747.7,796.1c0,4.3-3.5,7.8-7.8,7.8H612V196.2h127.9
			c4.3,0,7.8,3.5,7.8,7.8V796.1z"/>
		<g>
			<g>
				<ellipse class="st0" cx="505.4" cy="508.2" rx="33.3" ry="39.7"/>
			</g>
			<g>
				<path class="st0" d="M505.4,468.6c-18.4,0-33.3,17.8-33.3,39.7c0,21.9,14.9,39.7,33.3,39.7c18.4,0,33.3-17.8,33.3-39.7
					C538.7,486.3,523.8,468.6,505.4,468.6L505.4,468.6z"/>
			</g>
		</g>
	</g>
</g>
<g id="Ebene_2">
</g>
</svg>
