<?xml version="1.0" encoding="UTF-8" standalone="no"?>
<svg
   viewBox="0 0 354.33072 354.33072"
   version="1.1"
   height="354.33072"
   width="354.33072"
   id="svg954"
   sodipodi:docname="educandu-logo-edited.svg"
   inkscape:version="1.1.1 (c3084ef, 2021-09-22)"
   xmlns:inkscape="http://www.inkscape.org/namespaces/inkscape"
   xmlns:sodipodi="http://sodipodi.sourceforge.net/DTD/sodipodi-0.dtd"
   xmlns="http://www.w3.org/2000/svg"
   xmlns:svg="http://www.w3.org/2000/svg">
  <defs
     id="defs958" />
  <sodipodi:namedview
     id="namedview956"
     pagecolor="#ffffff"
     bordercolor="#666666"
     borderopacity="1.0"
     inkscape:pageshadow="2"
     inkscape:pageopacity="0.0"
     inkscape:pagecheckerboard="0"
     showgrid="false"
     inkscape:zoom="1.9586222"
     inkscape:cx="176.91008"
     inkscape:cy="177.16536"
     inkscape:window-width="1296"
     inkscape:window-height="916"
     inkscape:window-x="0"
     inkscape:window-y="38"
     inkscape:window-maximized="0"
     inkscape:current-layer="svg954" />
  <path
     d="M 35.433594,0 A 35.436542,35.436542 0 0 0 0,35.433594 V 318.89844 a 35.436542,35.436542 0 0 0 35.433594,35.43359 H 318.89844 a 35.436542,35.436542 0 0 0 35.43164,-35.43359 V 35.433594 A 35.436542,35.436542 0 0 0 318.89844,0 Z m 35.43164,35.433594 H 283.46484 a 35.436542,35.436542 0 0 1 35.4336,35.433594 V 283.46484 a 35.436542,35.436542 0 0 1 -35.4336,35.4336 H 70.865234 a 35.436542,35.436542 0 0 1 -35.43164,-35.4336 V 70.867188 a 35.436542,35.436542 0 0 1 35.43164,-35.433594 z"
     style="color:#000000;font-style:normal;font-variant:normal;font-weight:normal;font-stretch:normal;font-size:medium;line-height:normal;font-family:sans-serif;font-variant-ligatures:normal;font-variant-position:normal;font-variant-caps:normal;font-variant-numeric:normal;font-variant-alternates:normal;font-feature-settings:normal;text-indent:0;text-align:start;text-decoration:none;text-decoration-line:none;text-decoration-style:solid;text-decoration-color:#000000;letter-spacing:normal;word-spacing:normal;text-transform:none;writing-mode:lr-tb;direction:ltr;text-orientation:mixed;dominant-baseline:auto;baseline-shift:baseline;text-anchor:start;white-space:normal;shape-padding:0;clip-rule:nonzero;display:inline;overflow:visible;visibility:visible;isolation:auto;mix-blend-mode:normal;color-interpolation:sRGB;color-interpolation-filters:linearRGB;solid-color:#000000;solid-opacity:1;vector-effect:none;fill:#0d6868;fill-opacity:1;fill-rule:nonzero;stroke:none;stroke-width:70.866;stroke-linecap:butt;stroke-linejoin:round;stroke-miterlimit:4;stroke-dasharray:none;stroke-dashoffset:0;stroke-opacity:1;color-rendering:auto;image-rendering:auto;shape-rendering:auto;text-rendering:auto;enable-background:accumulate"
     id="path948"
     inkscape:export-filename="/Users/adriana/Downloads/educandupng"
     inkscape:export-xdpi="138.71811"
     inkscape:export-ydpi="138.71811" />
  <path
     d="m 177.16602,53.150391 c -55.23577,0 -100.017583,44.779837 -100.017582,100.015629 0,37.01261 20.109765,69.32724 49.996092,86.62304 v 27.38672 c 0,18.83887 15.167,34.00586 34.00586,34.00586 h 32.00391 c 18.83883,0 34.00586,-15.16699 34.00586,-34.00586 v -27.37109 c 29.90137,-17.29193 50.02148,-49.6148 50.02148,-86.63867 0,-55.235792 -44.77985,-100.015629 -100.01562,-100.015629 z m 26.16601,199.958989 c 1.39757,0.0263 2.62348,1.02655 2.88672,2.45703 0.30104,1.63479 -0.7715,3.19329 -2.40625,3.49414 l -49.67383,9.14062 c -1.63483,0.30104 -3.1933,-0.77146 -3.49414,-2.40625 -0.30104,-1.63483 0.77341,-3.19329 2.4082,-3.49414 l 49.67383,-9.14062 c 0.20435,-0.0376 0.40582,-0.0545 0.60547,-0.0508 z m -0.0254,15.83007 c 1.39759,0.0263 2.62348,1.02855 2.88672,2.45899 0.30104,1.63483 -0.77341,3.1933 -2.4082,3.49414 l -49.67383,9.14062 c -1.63483,0.30104 -3.19135,-0.77337 -3.49219,-2.4082 -0.30104,-1.63483 0.77146,-3.1933 2.40625,-3.49414 l 49.67383,-9.14063 c 0.20435,-0.0376 0.40777,-0.0545 0.60742,-0.0508 z"
     style="display:inline;fill:#0d6868;fill-opacity:1;stroke-width:3.96041"
     id="path950"
     inkscape:export-filename="/Users/adriana/Downloads/educandupng"
     inkscape:export-xdpi="138.71811"
     inkscape:export-ydpi="138.71811" />
</svg>
