<?xml version="1.0" encoding="UTF-8" standalone="no"?>
<!-- Generator: Adobe Illustrator 27.0.1, SVG Export Plug-In . SVG Version: 6.00 Build 0)  -->

<svg
   version="1.0"
   id="Ebene_1"
   x="0px"
   y="0px"
   viewBox="0 0 1000 1000"
   style="enable-background:new 0 0 1000 1000;"
   xml:space="preserve"
   xmlns="http://www.w3.org/2000/svg"
   xmlns:svg="http://www.w3.org/2000/svg"><defs
   id="defs837" />
<style
   type="text/css"
   id="style824">
	.st0{fill:#676767;}
</style>
<g
   id="g832"
   style="fill:#676767;fill-opacity:1">
	<path
   class="st0"
   d="M980,480h-28c-4.5-47.6-25.3-91.7-59.5-125.9c-39-39-90.8-60.4-145.9-60.4s-106.9,21.5-145.9,60.4   c-27.8,27.8-46.7,62.1-55.2,99.5c-28.6-13.7-62.3-13.2-90.6,1.4c-8.4-37.9-27.4-72.8-55.5-100.9c-39-39-90.8-60.4-145.9-60.4   s-106.9,21.5-145.9,60.4C73.3,388.3,52.6,432.4,48,480H20c-11,0-20,9-20,20c0,11,9,20,20,20h28c4.5,47.6,25.3,91.7,59.5,125.9   c39,39,90.8,60.4,145.9,60.4c55.1,0,106.9-21.5,145.9-60.4c39-39,60.4-90.8,60.4-145.8c22.5-20.9,57-21.9,80.5-2.7   c0,0.9,0,1.8,0,2.7c0,55.1,21.5,106.9,60.4,145.9c39,39,90.8,60.4,145.9,60.4s106.9-21.5,145.9-60.4   c34.2-34.2,54.9-78.3,59.5-125.9h28c11,0,20-9,20-20C1000,489,991,480,980,480z M253.4,666.3c-91.7,0-166.3-74.6-166.3-166.3   c0-91.7,74.6-166.3,166.3-166.3S419.8,408.3,419.8,500C419.8,591.7,345.1,666.3,253.4,666.3z M746.6,666.3   c-91.7,0-166.3-74.6-166.3-166.3c0-91.7,74.6-166.3,166.3-166.3c91.7,0,166.3,74.6,166.3,166.3   C912.9,591.7,838.3,666.3,746.6,666.3z"
   id="path826"
   style="fill:#676767;fill-opacity:1" />
	<path
   class="st0"
   d="M765.8,391.7c-6.3,4.4-7.9,13.1-3.5,19.5l88.9,127.5c2.7,3.9,7.1,6,11.5,6c2.8,0,5.6-0.8,8-2.5   c6.3-4.4,7.9-13.1,3.5-19.5l-88.9-127.5C780.8,388.9,772.1,387.3,765.8,391.7z"
   id="path828"
   style="fill:#676767;fill-opacity:1" />
	<path
   class="st0"
   d="M759.5,454.9c-4.4-6.3-13.1-7.9-19.5-3.5s-7.9,13.1-3.5,19.5l46.7,67c2.7,3.9,7.1,6,11.5,6   c2.8,0,5.6-0.8,8-2.5c6.3-4.4,7.9-13.1,3.5-19.5L759.5,454.9z"
   id="path830"
   style="fill:#676767;fill-opacity:1" />
</g>
<path
   style="fill:#d21414;fill-opacity:1;stroke:#666666;stroke-width:83.3333;stroke-linecap:round;stroke-linejoin:round;paint-order:stroke fill markers"
   d="m 719.44444,663.30233 c -53.45433,-9.57375 -97.88985,-43.08237 -121.60617,-91.70265 -22.36823,-45.85658 -22.36823,-97.34278 0,-143.19937 44.29388,-90.80585 155.86797,-121.48663 240.33044,-66.08636 11.87908,7.79168 31.90407,26.79989 41.14553,39.05634 13.89115,18.42309 26.34159,47.31215 30.53534,70.85193 1.0207,5.72917 1.85581,18.22917 1.85581,27.77778 0,28.2844 -5.4809,50.685 -18.6319,76.149 -9.09525,17.61096 -18.02816,29.25469 -33.93264,44.23001 -21.15941,19.92323 -44.62791,32.9332 -72.59477,40.24356 -16.80711,4.39328 -50.10882,5.72321 -67.10164,2.67976 z M 871.75106,542.31625 c 4.08309,-2.63958 6.65033,-10.75132 4.94805,-15.63446 -1.83169,-5.2544 -88.31015,-129.26439 -93.42649,-133.97346 -9.36881,-8.62302 -23.56887,-2.40218 -23.53383,10.30983 0.0156,5.62775 2.93857,10.20165 46.00168,71.98184 25.29182,36.28472 47.00313,66.59722 48.24734,67.36111 6.02227,3.6974 11.99777,3.68232 17.76325,-0.0449 z m -67.25909,-1.92454 c 3.81027,-3.40446 4.53246,-5.01517 4.51492,-10.06945 -0.0192,-5.53691 -2.04971,-8.92507 -25.4625,-42.48787 -13.99289,-20.05914 -26.59865,-37.09039 -28.01281,-37.84722 -6.92382,-3.70551 -17.05368,-0.50725 -20.6468,6.51875 -3.71468,7.26366 -2.31717,10.07778 23.40455,47.12909 13.72581,19.77159 26.69456,37.03878 28.81945,38.37157 5.87866,3.68724 12.09548,3.1097 17.38319,-1.61487 z"
   id="path1108" /><path
   style="fill:#d21414;fill-opacity:1;stroke:#666666;stroke-width:83.3333;stroke-linecap:round;stroke-linejoin:round;paint-order:stroke fill markers"
   d="M 225.62444,663.24825 C 191.06764,656.97071 159.62023,640.1919 135.35185,615.08321 121.13014,600.36907 114.06787,590.55482 105.65471,573.81386 93.568349,549.76379 88.294618,527.34026 88.294618,500 c 0,-27.34026 5.273731,-49.76379 17.360092,-73.81386 8.41316,-16.74095 15.47543,-26.5552 29.69714,-41.26935 29.92398,-30.96012 68.06708,-48.10871 110.80991,-49.81855 36.74538,-1.46991 67.30224,6.84723 97.51846,26.54317 50.72453,33.06391 80.6734,94.65865 74.53417,153.29165 -7.06083,67.43491 -53.68763,124.597 -117.01739,143.45743 -22.66944,6.75125 -54.04651,8.76815 -75.57256,4.85776 z"
   id="path1147" /></svg>
