<?xml version="1.0" encoding="utf-8"?>
<!-- Generator: Adobe Illustrator 26.0.1, SVG Export Plug-In . SVG Version: 6.00 Build 0)  -->
<svg version="1.1" id="Ebene_1" xmlns="http://www.w3.org/2000/svg" xmlns:xlink="http://www.w3.org/1999/xlink" x="0px" y="0px"
	 viewBox="0 0 1000 1000" style="enable-background:new 0 0 1000 1000;" xml:space="preserve">
<style type="text/css">
	.st0{fill:#F2F2F2;stroke:#666666;stroke-width:40;stroke-linecap:round;stroke-linejoin:round;stroke-miterlimit:10;}
	.st1{fill:#F2F2F2;stroke:#666666;stroke-width:39.8038;stroke-linecap:round;stroke-linejoin:round;stroke-miterlimit:10;}
	.st2{fill:none;stroke:#666666;stroke-width:39.8038;stroke-linecap:round;stroke-linejoin:round;stroke-miterlimit:10;}
	.st3{fill:none;stroke:#666666;stroke-width:68.0372;stroke-linecap:round;stroke-linejoin:round;stroke-miterlimit:10;}
	.st4{fill:#666666;}
	.st5{fill:none;stroke:#666666;stroke-width:40;stroke-linecap:round;stroke-linejoin:round;stroke-miterlimit:10;}
	.st6{fill:none;stroke:#666666;stroke-width:90;stroke-linecap:round;stroke-linejoin:round;stroke-miterlimit:10;}
	.st7{fill:#F2F2F2;}
	.st8{fill:none;stroke:#666666;stroke-width:98.74;stroke-linecap:round;stroke-linejoin:round;stroke-miterlimit:10;}
	.st9{fill:#F2F2F2;stroke:#666666;stroke-width:28;stroke-linecap:round;stroke-linejoin:round;stroke-miterlimit:10;}
</style>
<g>
	<g>
		<path class="st0" d="M749.4,388.77c-0.03-0.49-0.1-0.97-0.15-1.45c-0.08-0.74-0.18-1.48-0.28-2.23c-0.09-0.58-0.14-1.17-0.25-1.75
			c-0.01-0.07-0.02-0.13-0.03-0.2l-0.02,0.01c-3.91-20.5-21.55-37.24-44.85-40.21l-2.57-0.33c-19-2.42-36.97,4.94-48.22,17.91
			c0.25-25.32-20.27-47.04-47.78-49.49l-2.59-0.23c-24.6-2.19-46.82,11.77-54.74,32.56c-0.34-26.95-23.83-48.71-52.8-48.71h-2.6
			c-29.18,0-52.83,22.07-52.83,49.3V69.8c0-27.23-23.65-49.3-52.83-49.3h-2.6c-29.18,0-52.83,22.07-52.83,49.3v481.65l-3.1-179.04
			c-21.27-2.2-15.07-2.71-41.64,8.54l-2.37,1c-26.57,11.25-38.14,37.43-33.31,65.23l14.19,198.89
			c3.55,49.71,25.37,96.58,61.96,130.39c19.19,17.74,35.08,37.6,35.08,67.24V979.5h324.96c0,0,0-96.51,0-138.24
			c0-60.79,0-75.12,21.46-127.7c21.46-52.58,37.56-171.93,38.46-229.62C747.96,431.12,751.44,409.16,749.4,388.77z"/>
		<line class="st0" x1="547.94" y1="343.37" x2="547.94" y2="362.68"/>
		<line class="st0" x1="439.66" y1="342.46" x2="439.66" y2="361.77"/>
	</g>
	<line class="st0" x1="568.73" y1="909.06" x2="681.22" y2="909.06"/>
	<line class="st0" x1="459.55" y1="909.06" x2="522.72" y2="909.06"/>
</g>
</svg>
