<?xml version="1.0" encoding="utf-8"?>
<!-- Generator: Adobe Illustrator 26.0.1, SVG Export Plug-In . SVG Version: 6.00 Build 0)  -->
<svg version="1.1" id="Ebene_1" xmlns="http://www.w3.org/2000/svg" xmlns:xlink="http://www.w3.org/1999/xlink" x="0px" y="0px"
	 viewBox="0 0 1000 1000" style="enable-background:new 0 0 1000 1000;" xml:space="preserve">
<style type="text/css">
	.st0{fill:#F2F2F2;stroke:#666666;stroke-width:40;stroke-linecap:round;stroke-linejoin:round;stroke-miterlimit:10;}
	.st1{fill:#F2F2F2;stroke:#666666;stroke-width:39.8038;stroke-linecap:round;stroke-linejoin:round;stroke-miterlimit:10;}
	.st2{fill:none;stroke:#666666;stroke-width:39.8038;stroke-linecap:round;stroke-linejoin:round;stroke-miterlimit:10;}
	.st3{fill:none;stroke:#666666;stroke-width:68.0372;stroke-linecap:round;stroke-linejoin:round;stroke-miterlimit:10;}
	.st4{fill:#666666;}
	.st5{fill:none;stroke:#666666;stroke-width:40;stroke-linecap:round;stroke-linejoin:round;stroke-miterlimit:10;}
	.st6{fill:none;stroke:#666666;stroke-width:90;stroke-linecap:round;stroke-linejoin:round;stroke-miterlimit:10;}
	.st7{fill:#F2F2F2;}
	.st8{fill:none;stroke:#666666;stroke-width:98.74;stroke-linecap:round;stroke-linejoin:round;stroke-miterlimit:10;}
	.st9{fill:#F2F2F2;stroke:#666666;stroke-width:28;stroke-linecap:round;stroke-linejoin:round;stroke-miterlimit:10;}
</style>
<g>
	<path class="st7" d="M496.69,33.45c-176.96,0-320.92,143.94-320.92,320.85c0,54.62-1.38,144.3-2.71,231.05
		c-1.17,77.09-2.3,149.92-2.3,189.45c0,105.72,86.04,191.74,191.78,191.74c68.53,0,113.55-40.08,160.55-142.97
		c27.18-59.46,73.18-97.41,121.88-137.59c84.88-70.05,172.65-142.47,172.65-331.69C817.62,177.39,673.65,33.45,496.69,33.45z"/>
	<path class="st7" d="M799.42,354.31c0-167.77-136.04-303.78-303.85-303.78S191.72,186.53,191.72,354.31
		c0,103.8-5.01,337.14-5.01,420.51c0,96.47,78.22,174.67,174.71,174.67c50.76,0,94.61-22.62,145.03-132.98
		C583.19,648.54,799.42,644.31,799.42,354.31z"/>
	<path class="st5" d="M657.68,365.18c0-91.51-74.2-165.7-165.73-165.7s-165.73,74.19-165.73,165.7v290"/>
	<path class="st5" d="M327.32,525.9c28.19-17.12,64.24-20.02,96.11-4.53c24.95,12.12,42.62,33.2,51.02,57.48
		c11.62,33.57,1.46,70.9-22.65,97c-17.95,19.43-46.44,48.38-72.27,66.34"/>
	<path class="st4" d="M633.24,650.46c-3.7,3.07-7.41,6.13-11.13,9.21c-49.53,40.88-100.76,83.15-131.18,149.75
		c-51.86,113.51-92.41,123-129.5,123c-86.92,0-157.64-70.7-157.64-157.6c0-39.27,1.12-111.97,2.29-188.93
		c1.33-86.87,2.72-176.7,2.72-231.58c0-158.09,128.65-286.71,286.78-286.71S782.35,196.21,782.35,354.3c0,25.49-1.87,48.37-5,69.49
		c11.17,6.57,21.51,14.38,30.83,23.29c5.33-27.51,8.32-58.15,8.32-92.79c0-176.92-143.97-320.85-320.92-320.85
		S174.65,177.39,174.65,354.3c0,54.62-1.38,144.3-2.71,231.05c-1.17,77.09-2.3,149.92-2.3,189.45
		c0,105.72,86.04,191.74,191.78,191.74c68.53,0,113.55-40.08,160.55-142.97c23.42-51.24,60.85-86.5,101.91-121.01
		C627.86,679.73,632.54,654.17,633.24,650.46z"/>
	<g>
		<path class="st8" d="M605.31,565.51c0-49.84,40.76-90.16,90.76-89.46c47.52,0.66,87.54,40.67,88.21,88.19
			c0.41,29.58-11.33,50.42-35.32,72.5c-30.47,28.05-54.16,62.52-54.16,103.93v0"/>
		<ellipse class="st4" cx="695.99" cy="840.18" rx="42.48" ry="42.47"/>
	</g>
</g>
</svg>
