<?xml version="1.0" encoding="utf-8"?>
<!-- Generator: Adobe Illustrator 26.0.1, SVG Export Plug-In . SVG Version: 6.00 Build 0)  -->
<svg version="1.1" id="Ebene_1" xmlns="http://www.w3.org/2000/svg" xmlns:xlink="http://www.w3.org/1999/xlink" x="0px" y="0px"
	 viewBox="0 0 1000 1000" style="enable-background:new 0 0 1000 1000;" xml:space="preserve">
<style type="text/css">
	.st0{fill:#F2F2F2;stroke:#666666;stroke-width:40;stroke-linecap:round;stroke-linejoin:round;stroke-miterlimit:10;}
	.st1{fill:#F2F2F2;stroke:#666666;stroke-width:39.8038;stroke-linecap:round;stroke-linejoin:round;stroke-miterlimit:10;}
	.st2{fill:none;stroke:#666666;stroke-width:39.8038;stroke-linecap:round;stroke-linejoin:round;stroke-miterlimit:10;}
	.st3{fill:none;stroke:#666666;stroke-width:68.0372;stroke-linecap:round;stroke-linejoin:round;stroke-miterlimit:10;}
	.st4{fill:#666666;}
	.st5{fill:none;stroke:#666666;stroke-width:40;stroke-linecap:round;stroke-linejoin:round;stroke-miterlimit:10;}
	.st6{fill:none;stroke:#666666;stroke-width:90;stroke-linecap:round;stroke-linejoin:round;stroke-miterlimit:10;}
	.st7{fill:#F2F2F2;}
	.st8{fill:none;stroke:#666666;stroke-width:98.74;stroke-linecap:round;stroke-linejoin:round;stroke-miterlimit:10;}
	.st9{fill:#F2F2F2;stroke:#666666;stroke-width:28;stroke-linecap:round;stroke-linejoin:round;stroke-miterlimit:10;}
</style>
<g>
	<path class="st4" d="M611.37,711.64L389.91,585.03c-0.86-0.49-1.93,0.13-1.93,1.12v253.22c0,0.99,1.07,1.61,1.93,1.12
		l221.45-126.61C612.23,713.38,612.23,712.13,611.37,711.64z"/>
	<g>
		<path class="st0" d="M976.24,462.37H23.76c-1.8,0-3.26-1.46-3.26-3.26V269.49c0-1.8,1.46-3.26,3.26-3.26h952.47
			c1.8,0,3.26,1.46,3.26,3.26v189.62C979.5,460.91,978.04,462.37,976.24,462.37z"/>
		<line class="st0" x1="187.19" y1="266.91" x2="187.19" y2="460.3"/>
		<line class="st0" x1="422.93" y1="266.91" x2="422.93" y2="460.3"/>
		<line class="st0" x1="517.79" y1="266.91" x2="517.79" y2="460.3"/>
		<line class="st0" x1="754.22" y1="266.91" x2="754.22" y2="460.3"/>
	</g>
</g>
</svg>
