<?xml version="1.0" encoding="utf-8"?>
<!-- Generator: Adobe Illustrator 26.0.3, SVG Export Plug-In . SVG Version: 6.00 Build 0)  -->
<svg version="1.1" id="Ebene_1" xmlns="http://www.w3.org/2000/svg" xmlns:xlink="http://www.w3.org/1999/xlink" x="0px" y="0px"
	 width="1000px" height="1000px" viewBox="0 0 1000 1000" style="enable-background:new 0 0 1000 1000;" xml:space="preserve">
<style type="text/css">
	.st0{fill:#F2F2F2;stroke:#666666;stroke-width:40;stroke-linecap:round;stroke-linejoin:round;stroke-miterlimit:10;}
	.st1{fill:#F2F2F2;stroke:#666666;stroke-width:39.8038;stroke-linecap:round;stroke-linejoin:round;stroke-miterlimit:10;}
	.st2{fill:none;stroke:#666666;stroke-width:39.8038;stroke-linecap:round;stroke-linejoin:round;stroke-miterlimit:10;}
	.st3{fill:none;stroke:#666666;stroke-width:68.0372;stroke-linecap:round;stroke-linejoin:round;stroke-miterlimit:10;}
	.st4{fill:#666666;}
	.st5{fill:none;stroke:#666666;stroke-width:40;stroke-linecap:round;stroke-linejoin:round;stroke-miterlimit:10;}
	.st6{fill:#F2F2F2;}
	.st7{fill:none;stroke:#666666;stroke-width:98.74;stroke-linecap:round;stroke-linejoin:round;stroke-miterlimit:10;}
	.st8{fill:none;stroke:#666666;stroke-width:90;stroke-linecap:round;stroke-linejoin:round;stroke-miterlimit:10;}
	.st9{fill:#F2F2F2;stroke:#666666;stroke-width:28;stroke-linecap:round;stroke-linejoin:round;stroke-miterlimit:10;}
	.st10{fill:#FFFFFF;}
	.st11{fill:#FFFFFF;stroke:#2F2D7E;stroke-width:40;stroke-linecap:round;stroke-linejoin:round;stroke-miterlimit:10;}
	.st12{fill:none;stroke:#2F2D7E;stroke-width:40;stroke-linecap:round;stroke-linejoin:round;stroke-miterlimit:10;}
	.st13{fill:#FFFFFF;stroke:#2F2D7E;stroke-width:30;stroke-linecap:round;stroke-linejoin:round;stroke-miterlimit:10;}
	.st14{fill:none;stroke:#808080;stroke-width:40;stroke-linecap:round;stroke-linejoin:round;stroke-miterlimit:10;}
	.st15{fill:none;stroke:#808080;stroke-width:110;stroke-linecap:round;stroke-linejoin:round;stroke-miterlimit:10;}
	.st16{clip-path:url(#SVGID_00000160895183956291943010000011516985438724711335_);}
	.st17{fill:#EAA58D;}
	.st18{fill:none;stroke:#808080;stroke-width:70;stroke-linecap:round;stroke-linejoin:round;stroke-miterlimit:10;}
	.st19{fill:none;stroke:#CCCCCC;stroke-width:119.9441;stroke-linecap:round;stroke-linejoin:round;stroke-miterlimit:10;}
	.st20{fill:none;stroke:#666666;stroke-width:59.9664;stroke-linecap:round;stroke-miterlimit:10;}
	.st21{fill:none;stroke:#666666;stroke-width:58.1416;stroke-linecap:round;stroke-miterlimit:10;}
	.st22{fill:none;stroke:#666666;stroke-width:56.47;stroke-miterlimit:10;}
	.st23{fill:none;stroke:#666666;stroke-width:56.47;stroke-linecap:round;stroke-miterlimit:10;}
	.st24{fill:none;stroke:#666666;stroke-width:59.3407;stroke-linecap:round;stroke-miterlimit:10;}
	.st25{fill:none;stroke:#666666;stroke-width:98.0992;stroke-linecap:round;stroke-miterlimit:10;}
	.st26{fill:none;stroke:#666666;stroke-width:61.312;stroke-linecap:round;stroke-miterlimit:10;}
	.st27{fill:none;stroke:#666666;stroke-width:61.312;stroke-linejoin:bevel;stroke-miterlimit:10;}
	.st28{fill:none;stroke:#666666;stroke-width:50;stroke-linecap:round;stroke-miterlimit:10;}
	.st29{fill:none;stroke:#666666;stroke-width:50;stroke-linejoin:bevel;stroke-miterlimit:10;}
	.st30{fill:none;stroke:#666666;stroke-width:40.5198;stroke-linecap:round;stroke-miterlimit:10;}
	.st31{fill:none;stroke:#666666;stroke-width:26.4282;stroke-linecap:round;stroke-miterlimit:10;}
	.st32{fill:none;stroke:#666666;stroke-width:41.6027;stroke-linecap:round;stroke-miterlimit:10;}
	.st33{fill:none;stroke:#666666;stroke-width:125.3478;stroke-linecap:square;stroke-linejoin:round;stroke-miterlimit:10;}
	.st34{fill:none;stroke:#666666;stroke-width:40.4771;stroke-linecap:round;stroke-miterlimit:10;}
	.st35{fill:none;stroke:#666666;stroke-width:47.5393;stroke-linecap:round;stroke-miterlimit:10;}
	.st36{fill:none;stroke:#666666;stroke-width:81.1986;stroke-linecap:round;stroke-miterlimit:10;}
	.st37{fill:#FFFFFF;stroke:#666666;stroke-width:47.5393;stroke-linecap:round;stroke-miterlimit:10;}
</style>
<g>
	<path class="st31" d="M885.05,672.75c22.46-53.1,34.88-111.47,34.88-172.75c0-7.72-0.2-15.39-0.59-23.02
		c-7.91-0.01-15.95-1-23.94-3.25c-31.31-8.83-53.82-33.45-61.54-62.79c-25.11,5.91-52.01,5.78-78.59-1.72
		c-83.65-23.57-132.36-110.5-108.78-194.15c1.6-5.68,3.54-11.16,5.71-16.5c-33.44-29-49.65-75.08-38.6-120.57
		c-43.3-14.1-89.47-21.81-137.47-21.81C231,56.19,32.3,254.89,32.3,500S231,943.81,476.11,943.81
		c134.72,0,255.42-60.03,336.82-154.79"/>
	<circle class="st31" cx="211.14" cy="523.86" r="44.52"/>
	<circle class="st31" cx="546.34" cy="508.13" r="49.47"/>
	<path class="st31" d="M437.58,730.98c-6.33,27.88-31.27,48.7-61.07,48.7c-34.59,0-62.63-28.04-62.63-62.63s28.04-62.63,62.63-62.63
		c20.15,0,38.08,9.52,49.54,24.31"/>
	<path class="st31" d="M463.36,321.15c-1.07,24.8-15.39,48.22-39.3,59.78c-34.65,16.75-76.31,2.25-93.07-32.4
		c-16.75-34.65-2.25-76.31,32.4-93.07c20.19-9.76,42.76-8.91,61.39,0.35"/>
	<circle class="st31" cx="651.22" cy="721.14" r="45.33"/>
	<circle class="st4" cx="855.86" cy="299.49" r="29.24"/>
	<circle class="st4" cx="737.76" cy="266.72" r="29.24"/>
	<circle class="st4" cx="893.8" cy="196.77" r="29.24"/>
	<circle class="st4" cx="951.68" cy="383.81" r="29.24"/>
	<circle class="st4" cx="799.42" cy="181.3" r="29.24"/>
</g>
</svg>
