<?xml version="1.0" encoding="UTF-8" standalone="no"?>
<svg
   version="1.1"
   x="0px"
   y="0px"
   viewBox="0 0 1000 1000"
   style="enable-background:new 0 0 1000 1000;"
   xml:space="preserve"
   id="svg828"
   xmlns="http://www.w3.org/2000/svg"
   xmlns:svg="http://www.w3.org/2000/svg"><defs
   id="defs832" />

<g
   id="layer3"><g
     id="g826"
     transform="matrix(1.002533,0,0,0.94888481,-1.3791343,25.65169)"><path
       d="m 497.52704,984.857 c -0.73458,-2.85137 -4.42807,-22.05114 -8.20741,-42.66451 C 477.36518,876.98844 456.68917,806.87479 428.62945,736.38797 412.52041,695.92216 409.60704,689.47238 362.54212,590.0511 286.49231,429.40613 273.12734,384.2978 275.93762,297.7798 c 2.5769,-79.28533 22.26608,-138.68711 65.00519,-196.12801 35.47575,-47.676559 74.85196,-75.176899 122.75051,-85.724149 118.70199,-26.13796 233.86153,80.05726 257.19437,237.168189 5.43967,36.62812 4.23238,99.66638 -2.56455,133.91286 -7.45639,37.56834 -37.37078,113.57572 -79.64879,202.3656 -76.30823,160.26449 -105.20242,240.31076 -126.83672,351.39141 -8.37619,43.00475 -11.84005,53.68002 -14.31008,44.0913 z"
       style="fill:none;fill-opacity:1;stroke:#808080;stroke-width:57.9905;stroke-miterlimit:4;stroke-dasharray:none;stroke-opacity:1"
       id="path824" /></g></g></svg>
