<?xml version="1.0" encoding="UTF-8" standalone="no"?>
<!-- Generator: Adobe Illustrator 26.0.3, SVG Export Plug-In . SVG Version: 6.00 Build 0)  -->

<svg
   version="1.1"
   id="Ebene_1"
   x="0px"
   y="0px"
   width="1000px"
   height="1000px"
   viewBox="0 0 1000 1000"
   style="enable-background:new 0 0 1000 1000;"
   xml:space="preserve"
   sodipodi:docname="user-marked-favorite.svg"
   inkscape:version="1.1.1 (c3084ef, 2021-09-22)"
   xmlns:inkscape="http://www.inkscape.org/namespaces/inkscape"
   xmlns:sodipodi="http://sodipodi.sourceforge.net/DTD/sodipodi-0.dtd"
   xmlns:xlink="http://www.w3.org/1999/xlink"
   xmlns="http://www.w3.org/2000/svg"
   xmlns:svg="http://www.w3.org/2000/svg"><sodipodi:namedview
   id="namedview837"
   pagecolor="#ffffff"
   bordercolor="#666666"
   borderopacity="1.0"
   inkscape:pageshadow="2"
   inkscape:pageopacity="0.0"
   inkscape:pagecheckerboard="0"
   showgrid="false"
   inkscape:zoom="0.68061879"
   inkscape:cx="481.17978"
   inkscape:cy="295.3195"
   inkscape:window-width="1750"
   inkscape:window-height="990"
   inkscape:window-x="271"
   inkscape:window-y="59"
   inkscape:window-maximized="0"
   inkscape:current-layer="g844"
   showguides="true"
   inkscape:guide-bbox="true"><inkscape:grid
     type="xygrid"
     id="grid2747" /><sodipodi:guide
     position="34.455042,473.33007"
     orientation="1,0"
     id="guide2749" /><sodipodi:guide
     position="966.8431,677.44468"
     orientation="1,0"
     id="guide2751" /><sodipodi:guide
     position="447.91555,1268.2571"
     orientation="1,0"
     id="guide2753" /></sodipodi:namedview><defs
   id="defs849"><linearGradient
     id="linearGradient2110"
     inkscape:swatch="solid"><stop
       style="stop-color:#666666;stop-opacity:1;"
       offset="0"
       id="stop2108" /></linearGradient><linearGradient
     id="linearGradient2086"
     inkscape:swatch="solid"><stop
       style="stop-color:#666666;stop-opacity:1;"
       offset="0"
       id="stop2084" /></linearGradient><linearGradient
     id="linearGradient2062"
     inkscape:swatch="solid"><stop
       style="stop-color:#666666;stop-opacity:1;"
       offset="0"
       id="stop2060" /></linearGradient><linearGradient
     inkscape:collect="always"
     xlink:href="#linearGradient2062"
     id="linearGradient2064"
     x1="18.687539"
     y1="500"
     x2="1012.377"
     y2="500"
     gradientUnits="userSpaceOnUse" /><linearGradient
     inkscape:collect="always"
     xlink:href="#linearGradient2110"
     id="linearGradient2112"
     x1="18.687539"
     y1="500"
     x2="1012.377"
     y2="500"
     gradientUnits="userSpaceOnUse" /></defs>
<style
   type="text/css"
   id="style824">
	.st0{fill:#F2F2F2;stroke:#666666;stroke-width:40;stroke-linecap:round;stroke-linejoin:round;stroke-miterlimit:10;}
	.st1{fill:#F2F2F2;stroke:#666666;stroke-width:39.8038;stroke-linecap:round;stroke-linejoin:round;stroke-miterlimit:10;}
	.st2{fill:none;stroke:#666666;stroke-width:39.8038;stroke-linecap:round;stroke-linejoin:round;stroke-miterlimit:10;}
	.st3{fill:none;stroke:#666666;stroke-width:68.0372;stroke-linecap:round;stroke-linejoin:round;stroke-miterlimit:10;}
	.st4{fill:#666666;}
	.st5{fill:none;stroke:#666666;stroke-width:40;stroke-linecap:round;stroke-linejoin:round;stroke-miterlimit:10;}
	.st6{fill:#F2F2F2;}
	.st7{fill:none;stroke:#666666;stroke-width:98.74;stroke-linecap:round;stroke-linejoin:round;stroke-miterlimit:10;}
	.st8{fill:none;stroke:#666666;stroke-width:90;stroke-linecap:round;stroke-linejoin:round;stroke-miterlimit:10;}
	.st9{fill:#F2F2F2;stroke:#666666;stroke-width:28;stroke-linecap:round;stroke-linejoin:round;stroke-miterlimit:10;}
	.st10{fill:#FFFFFF;}
	.st11{fill:#FFFFFF;stroke:#2F2D7E;stroke-width:40;stroke-linecap:round;stroke-linejoin:round;stroke-miterlimit:10;}
	.st12{fill:none;stroke:#2F2D7E;stroke-width:40;stroke-linecap:round;stroke-linejoin:round;stroke-miterlimit:10;}
	.st13{fill:#FFFFFF;stroke:#2F2D7E;stroke-width:30;stroke-linecap:round;stroke-linejoin:round;stroke-miterlimit:10;}
	.st14{fill:none;stroke:#808080;stroke-width:40;stroke-linecap:round;stroke-linejoin:round;stroke-miterlimit:10;}
	.st15{fill:none;stroke:#808080;stroke-width:110;stroke-linecap:round;stroke-linejoin:round;stroke-miterlimit:10;}
	.st16{clip-path:url(#SVGID_00000105413177418231712450000010231074385824853123_);}
	.st17{fill:#EAA58D;}
	.st18{fill:none;stroke:#808080;stroke-width:70;stroke-linecap:round;stroke-linejoin:round;stroke-miterlimit:10;}
	.st19{fill:none;stroke:#CCCCCC;stroke-width:119.9441;stroke-linecap:round;stroke-linejoin:round;stroke-miterlimit:10;}
	.st20{fill:none;stroke:#666666;stroke-width:59.9664;stroke-linecap:round;stroke-miterlimit:10;}
	.st21{fill:none;stroke:#666666;stroke-width:58.1416;stroke-linecap:round;stroke-miterlimit:10;}
	.st22{fill:none;stroke:#666666;stroke-width:56.47;stroke-miterlimit:10;}
	.st23{fill:none;stroke:#666666;stroke-width:56.47;stroke-linecap:round;stroke-miterlimit:10;}
	.st24{fill:none;stroke:#666666;stroke-width:59.3407;stroke-linecap:round;stroke-miterlimit:10;}
	.st25{fill:none;stroke:#666666;stroke-width:98.0992;stroke-linecap:round;stroke-miterlimit:10;}
	.st26{fill:none;stroke:#666666;stroke-width:61.312;stroke-linecap:round;stroke-miterlimit:10;}
	.st27{fill:none;stroke:#666666;stroke-width:61.312;stroke-linejoin:bevel;stroke-miterlimit:10;}
	.st28{fill:none;stroke:#666666;stroke-width:50;stroke-linecap:round;stroke-miterlimit:10;}
	.st29{fill:none;stroke:#666666;stroke-width:50;stroke-linejoin:bevel;stroke-miterlimit:10;}
	.st30{fill:none;stroke:#666666;stroke-width:40.5198;stroke-linecap:round;stroke-miterlimit:10;}
	.st31{fill:none;stroke:#666666;stroke-width:26.4282;stroke-linecap:round;stroke-miterlimit:10;}
	.st32{fill:none;stroke:#666666;stroke-width:41.6027;stroke-linecap:round;stroke-miterlimit:10;}
	.st33{fill:none;stroke:#666666;stroke-width:125.3478;stroke-linecap:square;stroke-linejoin:round;stroke-miterlimit:10;}
	.st34{fill:none;stroke:#666666;stroke-width:40.4771;stroke-linecap:round;stroke-miterlimit:10;}
	.st35{fill:none;stroke:#666666;stroke-width:47.5393;stroke-linecap:round;stroke-miterlimit:10;}
	.st36{fill:none;stroke:#666666;stroke-width:81.1986;stroke-linecap:round;stroke-miterlimit:10;}
	.st37{fill:#FFFFFF;stroke:#666666;stroke-width:47.5393;stroke-linecap:round;stroke-miterlimit:10;}
</style>
<g
   id="g844">
	<g
   id="g834"
   transform="matrix(0.83121345,0,0,0.84449479,30.084392,79.427451)"
   style="fill:#666666;fill-opacity:1;stroke:#666666;stroke-width:23.87125364;stroke-miterlimit:4;stroke-dasharray:none;stroke-opacity:1">
		
		<g
   id="g832"
   style="fill:#666666;fill-opacity:1;stroke:#666666;stroke-width:23.87125364;stroke-miterlimit:4;stroke-dasharray:none;stroke-opacity:1">
			<path
   class="st4"
   d="m 518.18754,999.5 c -67.42,0 -132.84,-13.21 -194.43,-39.26 -59.48,-25.16 -112.9,-61.17 -158.77,-107.04 -45.87,-45.87 -81.880001,-99.28 -107.040001,-158.77 -26.05,-61.59 -39.26,-127.01 -39.26,-194.43 0,-67.42 13.21,-132.84 39.26,-194.43 25.16,-59.48 61.170001,-112.9 107.040001,-158.77 45.87,-45.87 99.28,-81.88 158.77,-107.04 61.59,-26.05 127.01,-39.26 194.43,-39.26 65.6076,0 129.7828,12.80498 189.29,37.168206 53.10803,21.743296 102.49802,52.692637 145.87,91.961794 9.34,8.46 10.06,22.89 1.6,32.24 -8.46,9.35 -14.24989,10.06 -23.59989,1.6 -83.56,-75.66 -191.7,-117.33 -304.52,-117.33 -61.28,0 -129.36002,12.000204 -185.29011,35.66 -54.03991,22.8602 -102.58254,55.58754 -144.27,97.27 -41.69254,41.68754 -74.42,90.23 -97.270001,144.27 -23.67,55.94 -35.67,115.38 -35.67,176.66 0,61.28 12,120.72 35.66,176.65 22.860001,54.04 55.590001,102.58 97.270001,144.27 41.69,41.69 90.23,74.42 144.27,97.27 55.94,23.66 115.37,35.66 176.65,35.66 61.28,0 120.72,-12 176.65,-35.66 54.04,-22.86 102.58,-55.59 144.27,-97.27 41.69,-41.69 74.42,-90.23 97.27,-144.27 13.74827,-22.65627 50.36518,-26.2863 42.04,17.77 -25.16,59.48 -61.17,112.9 -107.04,158.77 -45.87,45.87 -99.28,81.88 -158.76,107.04 -61.58,26.06 -127,39.27 -194.42,39.27 z"
   id="path830"
   sodipodi:nodetypes="scscscscsscscssscscccsccccscs"
   style="fill:#666666;fill-opacity:1;stroke:#666666;stroke-width:23.8713;stroke-miterlimit:4;stroke-dasharray:none;stroke-opacity:1;paint-order:markers stroke fill" />
		</g>
	</g>
	<g
   id="g838"
   transform="matrix(0.83121345,0,0,0.84449479,36.084392,79.427451)"
   style="stroke-width:29.8391;stroke-miterlimit:4;stroke-dasharray:none">
		<circle
   class="st4"
   cx="493.86243"
   cy="445.81393"
   id="circle836"
   style="stroke-width:25.8786;stroke-miterlimit:4;stroke-dasharray:none"
   r="156.30875" />
	</g>
	<g
   id="g842"
   transform="matrix(0.97380519,0,0,0.84449479,-32.335672,79.427451)"
   style="stroke-width:29.8391;stroke-miterlimit:4;stroke-dasharray:none">
		<path
   class="st4"
   d="m 493.8623,951.20016 c 106.05891,0 202.74259,-39.98132 275.93182,-105.63394 L 743.95803,781.04105 C 709.9609,696.16096 627.73468,640.51668 536.298,640.51668 h -84.88008 c -91.428,0 -173.6629,55.64428 -207.66003,140.52437 l -25.83609,64.52517 c 73.18923,65.65262 169.88159,105.63394 275.9405,105.63394 z"
   id="path840"
   style="stroke-width:25.8786;stroke-miterlimit:4;stroke-dasharray:none" />
	</g>
<g
   id="g923"
   transform="matrix(1.0631142,0,0,1.0631142,1.2451937,0.0878197)"
   style="stroke-width:25;stroke-miterlimit:4;stroke-dasharray:none"><path
     class="st4"
     d="m 794,239.68 35.03,83.55 90.29,7.49 c 12.48,1.04 17.54,16.6 8.05,24.78 l -68.64,59.13 20.78,88.19 c 2.87,12.19 -10.37,21.82 -21.08,15.32 l -77.45,-47.01 -77.45,47.01 c -10.71,6.5 -23.95,-3.12 -21.08,-15.32 l 20.78,-88.19 -68.64,-59.13 c -9.49,-8.18 -4.43,-23.75 8.05,-24.78 l 90.29,-7.49 35.03,-83.55 c 4.83,-11.55 21.2,-11.55 26.04,0 z"
     id="path921"
     style="stroke-width:25;stroke-miterlimit:4;stroke-dasharray:none" /></g></g>
</svg>
