<?xml version="1.0" encoding="utf-8"?>
<!-- Generator: Adobe Illustrator 27.0.1, SVG Export Plug-In . SVG Version: 6.00 Build 0)  -->
<svg version="1.1" id="Ebene_1" xmlns="http://www.w3.org/2000/svg" xmlns:xlink="http://www.w3.org/1999/xlink" x="0px" y="0px"
	 viewBox="0 0 1000 1000" style="enable-background:new 0 0 1000 1000;" xml:space="preserve">
<style type="text/css">
	.st0{fill:#F2F2F2;stroke:#666666;stroke-width:40;stroke-linecap:round;stroke-linejoin:round;stroke-miterlimit:10;}
	.st1{fill:#F2F2F2;stroke:#666666;stroke-width:39.8038;stroke-linecap:round;stroke-linejoin:round;stroke-miterlimit:10;}
	.st2{fill:none;stroke:#666666;stroke-width:39.8038;stroke-linecap:round;stroke-linejoin:round;stroke-miterlimit:10;}
	.st3{fill:none;stroke:#666666;stroke-width:68.0372;stroke-linecap:round;stroke-linejoin:round;stroke-miterlimit:10;}
	.st4{fill:#666666;}
	.st5{fill:none;stroke:#666666;stroke-width:40;stroke-linecap:round;stroke-linejoin:round;stroke-miterlimit:10;}
	.st6{fill:#F2F2F2;}
	.st7{fill:none;stroke:#666666;stroke-width:98.74;stroke-linecap:round;stroke-linejoin:round;stroke-miterlimit:10;}
	.st8{fill:none;stroke:#666666;stroke-width:90;stroke-linecap:round;stroke-linejoin:round;stroke-miterlimit:10;}
	.st9{fill:#F2F2F2;stroke:#666666;stroke-width:28;stroke-linecap:round;stroke-linejoin:round;stroke-miterlimit:10;}
	.st10{fill:#FFFFFF;}
	.st11{fill:#FFFFFF;stroke:#2F2D7E;stroke-width:40;stroke-linecap:round;stroke-linejoin:round;stroke-miterlimit:10;}
	.st12{fill:none;stroke:#2F2D7E;stroke-width:40;stroke-linecap:round;stroke-linejoin:round;stroke-miterlimit:10;}
	.st13{fill:#FFFFFF;stroke:#2F2D7E;stroke-width:30;stroke-linecap:round;stroke-linejoin:round;stroke-miterlimit:10;}
	.st14{fill:none;stroke:#808080;stroke-width:40;stroke-linecap:round;stroke-linejoin:round;stroke-miterlimit:10;}
	.st15{fill:none;stroke:#808080;stroke-width:110;stroke-linecap:round;stroke-linejoin:round;stroke-miterlimit:10;}
	.st16{clip-path:url(#SVGID_00000072981448151896473450000013507887500771503763_);}
	.st17{fill:#EAA58D;}
	.st18{fill:none;stroke:#808080;stroke-width:70;stroke-linecap:round;stroke-linejoin:round;stroke-miterlimit:10;}
	.st19{fill:none;stroke:#CCCCCC;stroke-width:119.9441;stroke-linecap:round;stroke-linejoin:round;stroke-miterlimit:10;}
	.st20{fill:none;stroke:#666666;stroke-width:59.9664;stroke-linecap:round;stroke-miterlimit:10;}
	.st21{fill:none;stroke:#666666;stroke-width:58.1416;stroke-linecap:round;stroke-miterlimit:10;}
	.st22{fill:none;stroke:#666666;stroke-width:56.47;stroke-miterlimit:10;}
	.st23{fill:none;stroke:#666666;stroke-width:56.47;stroke-linecap:round;stroke-miterlimit:10;}
	.st24{fill:none;stroke:#666666;stroke-width:59.3407;stroke-linecap:round;stroke-miterlimit:10;}
	.st25{fill:none;stroke:#666666;stroke-width:98.0992;stroke-linecap:round;stroke-miterlimit:10;}
	.st26{fill:none;stroke:#666666;stroke-width:61.312;stroke-linecap:round;stroke-miterlimit:10;}
	.st27{fill:none;stroke:#666666;stroke-width:61.312;stroke-linejoin:bevel;stroke-miterlimit:10;}
	.st28{fill:none;stroke:#666666;stroke-width:50;stroke-linecap:round;stroke-miterlimit:10;}
	.st29{fill:none;stroke:#666666;stroke-width:50;stroke-linejoin:bevel;stroke-miterlimit:10;}
	.st30{fill:none;stroke:#666666;stroke-width:40.5198;stroke-linecap:round;stroke-miterlimit:10;}
	.st31{fill:none;stroke:#666666;stroke-width:26.4282;stroke-linecap:round;stroke-miterlimit:10;}
	.st32{fill:none;stroke:#666666;stroke-width:41.6027;stroke-linecap:round;stroke-miterlimit:10;}
	.st33{fill:none;stroke:#666666;stroke-width:125.3478;stroke-linecap:square;stroke-linejoin:round;stroke-miterlimit:10;}
	.st34{fill:none;stroke:#666666;stroke-width:40.4771;stroke-linecap:round;stroke-miterlimit:10;}
	.st35{fill:none;stroke:#666666;stroke-width:47.5393;stroke-linecap:round;stroke-miterlimit:10;}
	.st36{fill:none;stroke:#666666;stroke-width:81.1986;stroke-linecap:round;stroke-miterlimit:10;}
	.st37{fill:#FFFFFF;stroke:#666666;stroke-width:47.5393;stroke-linecap:round;stroke-miterlimit:10;}
	.st38{fill:none;stroke:#666666;stroke-width:38.9985;stroke-linecap:round;stroke-linejoin:round;stroke-miterlimit:10;}
	.st39{fill:none;stroke:#666666;stroke-width:25.999;stroke-linecap:round;stroke-linejoin:round;stroke-miterlimit:10;}
	.st40{fill:none;stroke:#666666;stroke-width:38.9985;stroke-linecap:round;stroke-miterlimit:10;}
	.st41{fill:#F2F2F2;stroke:#666666;stroke-width:33.614;stroke-linecap:round;stroke-linejoin:round;stroke-miterlimit:10;}
	.st42{fill:none;stroke:#666666;stroke-width:39.662;stroke-linecap:round;stroke-linejoin:round;stroke-miterlimit:10;}
	.st43{fill:none;stroke:#666666;stroke-width:54.6198;stroke-linecap:round;stroke-linejoin:round;stroke-miterlimit:10;}
	.st44{fill:#F2F2F2;stroke:#666666;stroke-width:39.662;stroke-linecap:round;stroke-linejoin:round;stroke-miterlimit:10;}
	.st45{fill:none;stroke:#666666;stroke-width:38.5513;stroke-linecap:round;stroke-linejoin:round;stroke-miterlimit:10;}
	.st46{fill:none;stroke:#666666;stroke-width:38.5513;stroke-linejoin:round;stroke-miterlimit:10;}
	.st47{fill:none;stroke:#666666;stroke-width:30.4797;stroke-linecap:round;stroke-linejoin:round;stroke-miterlimit:10;}
	.st48{fill:#F2F2F2;stroke:#666666;stroke-width:41.2099;stroke-linecap:round;stroke-linejoin:round;stroke-miterlimit:10;}
	.st49{fill:#F2F2F2;stroke:#666666;stroke-width:42.1309;stroke-linecap:round;stroke-linejoin:round;stroke-miterlimit:10;}
	.st50{fill:#F2F2F2;stroke:#666666;stroke-width:25.885;stroke-linecap:round;stroke-linejoin:round;stroke-miterlimit:10;}
	.st51{fill:#F2F2F2;stroke:#666666;stroke-width:22.5087;stroke-linecap:round;stroke-linejoin:round;stroke-miterlimit:10;}
	.st52{fill:#F2F2F2;stroke:#666666;stroke-width:26.519;stroke-linecap:round;stroke-linejoin:round;stroke-miterlimit:10;}
	.st53{fill:#F2F2F2;stroke:#666666;stroke-width:26.519;stroke-linejoin:round;stroke-miterlimit:10;}
	.st54{fill:#F2F2F2;stroke:#666666;stroke-width:38.2424;stroke-linecap:round;stroke-linejoin:round;stroke-miterlimit:10;}
	.st55{fill:#F2F2F2;stroke:#666666;stroke-width:38;stroke-linecap:round;stroke-linejoin:round;stroke-miterlimit:10;}
	.st56{fill:none;stroke:#666666;stroke-width:33.2105;stroke-linecap:round;stroke-linejoin:round;stroke-miterlimit:10;}
	.st57{fill:#CCCCCC;}
	.st58{fill:#F2F2F2;stroke:#666666;stroke-width:23.728;stroke-linecap:round;stroke-linejoin:round;stroke-miterlimit:10;}
	.st59{fill:none;stroke:#666666;stroke-width:23.728;stroke-linejoin:round;stroke-miterlimit:10;}
	.st60{fill:none;stroke:#808080;stroke-width:40.6378;stroke-linecap:round;stroke-linejoin:round;stroke-miterlimit:10;}
	.st61{fill:#808080;}
	.st62{fill:#F2F2F2;stroke:#666666;stroke-width:29.6069;stroke-linecap:round;stroke-linejoin:round;stroke-miterlimit:10;}
	.st63{fill:none;stroke:#666666;stroke-width:41.8409;stroke-linecap:round;stroke-linejoin:round;stroke-miterlimit:10;}
	.st64{fill:#F2F2F2;stroke:#666666;stroke-width:54.6161;stroke-linecap:round;stroke-linejoin:round;stroke-miterlimit:10;}
	.st65{fill:none;stroke:#666666;stroke-width:61.4772;stroke-linecap:round;stroke-miterlimit:10;}
	.st66{fill:none;stroke:#666666;stroke-width:61.4772;stroke-linecap:square;stroke-miterlimit:10;}
	.st67{fill:none;stroke:#666666;stroke-width:61.4772;stroke-linejoin:bevel;stroke-miterlimit:10;}
	.st68{fill:none;stroke:#666666;stroke-width:61.31;stroke-miterlimit:10;}
	.st69{fill:none;stroke:#666666;stroke-width:61.31;stroke-linejoin:bevel;stroke-miterlimit:10;}
	.st70{fill:none;stroke:#666666;stroke-width:112.3337;stroke-linecap:round;stroke-linejoin:round;stroke-miterlimit:10;}
	.st71{fill:none;stroke:#666666;stroke-width:38.7142;stroke-linecap:round;stroke-linejoin:round;stroke-miterlimit:10;}
	.st72{fill:#F2F2F2;stroke:#666666;stroke-width:29.6809;stroke-linecap:round;stroke-linejoin:round;stroke-miterlimit:10;}
	.st73{fill:none;stroke:#666666;stroke-width:61.0049;stroke-linecap:round;stroke-linejoin:round;stroke-miterlimit:10;}
	.st74{fill:none;stroke:#666666;stroke-width:34.8599;stroke-linecap:round;stroke-linejoin:round;stroke-miterlimit:10;}
	.st75{fill:#F2F2F2;stroke:#666666;stroke-width:40.0014;stroke-linecap:round;stroke-linejoin:round;stroke-miterlimit:10;}
	.st76{fill:none;stroke:#666666;stroke-width:40.0014;stroke-linecap:round;stroke-linejoin:round;stroke-miterlimit:10;}
	.st77{fill:#F2F2F2;stroke:#666666;stroke-width:41.4993;stroke-linecap:round;stroke-linejoin:round;stroke-miterlimit:10;}
	.st78{fill:#F2F2F2;stroke:#666666;stroke-width:41.5214;stroke-linecap:round;stroke-linejoin:round;stroke-miterlimit:10;}
</style>
<path class="st6" d="M94.17,976.16l60.5-60.5l-54.84-54.84l-77.3,73.73c-7.33,7-4.09,19.92,6.02,23.97l50.77,20.32
	C84.63,980.96,90.42,979.92,94.17,976.16z"/>
<path class="st6" d="M86.33,848.67l0.05,0.05l-15.51,15.51c-2.05,2.05-1.67,5.75,0.85,8.27l69.91,69.91
	c2.52,2.52,6.22,2.9,8.27,0.85l15.51-15.51l0.05,0.05c49.91-48.43,124.81-59.68,197.06-36.59c3.49,1.12,6.95,0.52,9.17-1.7
	l68.7-68.7L193.32,573.74l-68.7,68.7c-2.22,2.22-2.82,5.68-1.7,9.17C146.01,723.86,134.76,798.76,86.33,848.67z"/>
<path class="st6" d="M815.27,50.53c-21-21-54.69-22.12-77.04-2.56L138.23,573.12c-5.99,5.24-5.4,15.27,1.28,21.95l281.52,281.52
	c6.68,6.68,16.71,7.27,21.95,1.28l525.15-600.01c19.56-22.35,18.44-56.04-2.56-77.04L815.27,50.53z"/>
<path class="st4" d="M977.02,189.38l-150.3-150.3c-26.94-26.94-70.49-28.38-99.16-3.29L127.56,560.93
	c-5.95,5.21-9.37,12.57-9.64,20.71c-0.3,9.06,3.4,18.13,10.14,24.87l274.17,274.17l-22.31-22.31l-16.23,16.23
	c-78.95-24-156.44-9-208.32,40.43c-0.49,0.39-0.96,0.81-1.41,1.26l-7.76,7.76l-56.12-56.12l7.76-7.76c0.46-0.46,0.88-0.93,1.27-1.42
	c49.42-51.87,64.42-129.36,40.42-208.31l16.23-16.23l-22.91-22.91l-19.68,19.68c-6.47,6.47-8.65,16.26-5.68,25.55
	c22.14,69.27,9.88,136.88-32.79,180.85c-0.31,0.32-0.61,0.65-0.89,0.99l-14.39,14.4c-7.06,7.06-7.86,18.13-2.62,26.72c0,0,0,0,0,0
	l-45.43,43.34c-7.22,6.89-10.38,17-8.44,27.05c2.07,10.74,9.41,19.59,19.62,23.68l50.77,20.32c3.76,1.5,7.67,2.24,11.53,2.24
	c7.73,0,15.23-2.95,20.79-8.5l29.8-29.8c3.48,1.94,7.32,2.93,11.12,2.93c5.44,0,10.78-2,14.81-6.03l14.39-14.39
	c0.34-0.28,0.67-0.58,1-0.89c43.97-42.67,111.58-54.93,180.85-32.79c9.29,2.97,19.08,0.79,25.55-5.68l19.68-19.68l6.75,6.75
	c6.49,6.49,15.13,10.16,23.85,10.16c0.34,0,0.68-0.01,1.03-0.02c8.15-0.27,15.51-3.7,20.72-9.65l525.15-600.01
	C1005.4,259.87,1003.96,216.31,977.02,189.38z M60.27,883.95c-0.45-0.45-0.88-0.93-1.28-1.41C59.4,883.02,59.82,883.5,60.27,883.95z
	 M58.47,881.91c-0.16-0.2-0.3-0.4-0.45-0.6C58.17,881.51,58.32,881.72,58.47,881.91z M84.12,963.31l-48.08-19.25l43.17-41.18
	l32.67,32.67L84.12,963.31z M132.34,955.75c0.3,0.24,0.61,0.46,0.92,0.68C132.95,956.21,132.64,955.99,132.34,955.75z
	 M130.18,953.86c0.49,0.49,1.01,0.95,1.53,1.39C131.19,954.81,130.67,954.36,130.18,953.86z M955.94,267.2l-523.39,598
	c-0.02-0.02-0.04-0.04-0.06-0.06L150.96,583.61c-0.02-0.02-0.04-0.04-0.06-0.06l598-523.39c15.88-13.9,40-13.09,54.91,1.82
	l150.3,150.3C969.03,227.2,969.83,251.32,955.94,267.2z"/>
<path class="st4" d="M434.99,761.08c-3.79,0-7.59-1.32-10.66-4.01c-6.73-5.89-7.41-16.12-1.52-22.86l136.3-155.73
	c5.89-6.73,16.12-7.41,22.86-1.52c6.73,5.89,7.41,16.12,1.52,22.86l-136.3,155.73C443.99,759.21,439.5,761.08,434.99,761.08z"/>
<path class="st4" d="M634.36,533.3c-3.79,0-7.59-1.32-10.66-4.01c-6.73-5.89-7.41-16.12-1.52-22.86l79.73-91.1
	c5.89-6.73,16.12-7.41,22.86-1.52s7.41,16.12,1.52,22.86l-79.73,91.1C643.36,531.42,638.87,533.3,634.36,533.3z"/>
</svg>
