<?xml version="1.0" encoding="utf-8"?>
<!-- Generator: Adobe Illustrator 27.0.1, SVG Export Plug-In . SVG Version: 6.00 Build 0)  -->
<svg version="1.1" id="Ebene_1" xmlns="http://www.w3.org/2000/svg" xmlns:xlink="http://www.w3.org/1999/xlink" x="0px" y="0px"
	 viewBox="0 0 1000 1000" style="enable-background:new 0 0 1000 1000;" xml:space="preserve">
<style type="text/css">
	.st0{fill:#F2F2F2;stroke:#666666;stroke-width:40;stroke-linecap:round;stroke-linejoin:round;stroke-miterlimit:10;}
	.st1{fill:#F2F2F2;stroke:#666666;stroke-width:39.8038;stroke-linecap:round;stroke-linejoin:round;stroke-miterlimit:10;}
	.st2{fill:none;stroke:#666666;stroke-width:39.8038;stroke-linecap:round;stroke-linejoin:round;stroke-miterlimit:10;}
	.st3{fill:none;stroke:#666666;stroke-width:68.0372;stroke-linecap:round;stroke-linejoin:round;stroke-miterlimit:10;}
	.st4{fill:#666666;}
	.st5{fill:none;stroke:#666666;stroke-width:40;stroke-linecap:round;stroke-linejoin:round;stroke-miterlimit:10;}
	.st6{fill:#F2F2F2;}
	.st7{fill:none;stroke:#666666;stroke-width:98.74;stroke-linecap:round;stroke-linejoin:round;stroke-miterlimit:10;}
	.st8{fill:none;stroke:#666666;stroke-width:90;stroke-linecap:round;stroke-linejoin:round;stroke-miterlimit:10;}
	.st9{fill:#F2F2F2;stroke:#666666;stroke-width:28;stroke-linecap:round;stroke-linejoin:round;stroke-miterlimit:10;}
	.st10{fill:#FFFFFF;}
	.st11{fill:#FFFFFF;stroke:#2F2D7E;stroke-width:40;stroke-linecap:round;stroke-linejoin:round;stroke-miterlimit:10;}
	.st12{fill:none;stroke:#2F2D7E;stroke-width:40;stroke-linecap:round;stroke-linejoin:round;stroke-miterlimit:10;}
	.st13{fill:#FFFFFF;stroke:#2F2D7E;stroke-width:30;stroke-linecap:round;stroke-linejoin:round;stroke-miterlimit:10;}
	.st14{fill:none;stroke:#808080;stroke-width:40;stroke-linecap:round;stroke-linejoin:round;stroke-miterlimit:10;}
	.st15{fill:none;stroke:#808080;stroke-width:110;stroke-linecap:round;stroke-linejoin:round;stroke-miterlimit:10;}
	.st16{clip-path:url(#SVGID_00000058548745304052939360000009729313172372474501_);}
	.st17{fill:#EAA58D;}
	.st18{fill:none;stroke:#808080;stroke-width:70;stroke-linecap:round;stroke-linejoin:round;stroke-miterlimit:10;}
	.st19{fill:none;stroke:#CCCCCC;stroke-width:119.9441;stroke-linecap:round;stroke-linejoin:round;stroke-miterlimit:10;}
	.st20{fill:none;stroke:#666666;stroke-width:59.9664;stroke-linecap:round;stroke-miterlimit:10;}
	.st21{fill:none;stroke:#666666;stroke-width:58.1416;stroke-linecap:round;stroke-miterlimit:10;}
	.st22{fill:none;stroke:#666666;stroke-width:56.47;stroke-miterlimit:10;}
	.st23{fill:none;stroke:#666666;stroke-width:56.47;stroke-linecap:round;stroke-miterlimit:10;}
	.st24{fill:none;stroke:#666666;stroke-width:59.3407;stroke-linecap:round;stroke-miterlimit:10;}
	.st25{fill:none;stroke:#666666;stroke-width:98.0992;stroke-linecap:round;stroke-miterlimit:10;}
	.st26{fill:none;stroke:#666666;stroke-width:61.312;stroke-linecap:round;stroke-miterlimit:10;}
	.st27{fill:none;stroke:#666666;stroke-width:61.312;stroke-linejoin:bevel;stroke-miterlimit:10;}
	.st28{fill:none;stroke:#666666;stroke-width:50;stroke-linecap:round;stroke-miterlimit:10;}
	.st29{fill:none;stroke:#666666;stroke-width:50;stroke-linejoin:bevel;stroke-miterlimit:10;}
	.st30{fill:none;stroke:#666666;stroke-width:40.5198;stroke-linecap:round;stroke-miterlimit:10;}
	.st31{fill:none;stroke:#666666;stroke-width:26.4282;stroke-linecap:round;stroke-miterlimit:10;}
	.st32{fill:none;stroke:#666666;stroke-width:41.6027;stroke-linecap:round;stroke-miterlimit:10;}
	.st33{fill:none;stroke:#666666;stroke-width:125.3478;stroke-linecap:square;stroke-linejoin:round;stroke-miterlimit:10;}
	.st34{fill:none;stroke:#666666;stroke-width:40.4771;stroke-linecap:round;stroke-miterlimit:10;}
	.st35{fill:none;stroke:#666666;stroke-width:47.5393;stroke-linecap:round;stroke-miterlimit:10;}
	.st36{fill:none;stroke:#666666;stroke-width:81.1986;stroke-linecap:round;stroke-miterlimit:10;}
	.st37{fill:#FFFFFF;stroke:#666666;stroke-width:47.5393;stroke-linecap:round;stroke-miterlimit:10;}
	.st38{fill:none;stroke:#666666;stroke-width:38.9985;stroke-linecap:round;stroke-linejoin:round;stroke-miterlimit:10;}
	.st39{fill:none;stroke:#666666;stroke-width:25.999;stroke-linecap:round;stroke-linejoin:round;stroke-miterlimit:10;}
	.st40{fill:none;stroke:#666666;stroke-width:38.9985;stroke-linecap:round;stroke-miterlimit:10;}
	.st41{fill:#F2F2F2;stroke:#666666;stroke-width:33.614;stroke-linecap:round;stroke-linejoin:round;stroke-miterlimit:10;}
	.st42{fill:none;stroke:#666666;stroke-width:39.662;stroke-linecap:round;stroke-linejoin:round;stroke-miterlimit:10;}
	.st43{fill:none;stroke:#666666;stroke-width:54.6198;stroke-linecap:round;stroke-linejoin:round;stroke-miterlimit:10;}
	.st44{fill:#F2F2F2;stroke:#666666;stroke-width:39.662;stroke-linecap:round;stroke-linejoin:round;stroke-miterlimit:10;}
	.st45{fill:none;stroke:#666666;stroke-width:38.5513;stroke-linecap:round;stroke-linejoin:round;stroke-miterlimit:10;}
	.st46{fill:none;stroke:#666666;stroke-width:38.5513;stroke-linejoin:round;stroke-miterlimit:10;}
	.st47{fill:none;stroke:#666666;stroke-width:30.4797;stroke-linecap:round;stroke-linejoin:round;stroke-miterlimit:10;}
	.st48{fill:#F2F2F2;stroke:#666666;stroke-width:41.2099;stroke-linecap:round;stroke-linejoin:round;stroke-miterlimit:10;}
	.st49{fill:#F2F2F2;stroke:#666666;stroke-width:42.1309;stroke-linecap:round;stroke-linejoin:round;stroke-miterlimit:10;}
	.st50{fill:#F2F2F2;stroke:#666666;stroke-width:25.885;stroke-linecap:round;stroke-linejoin:round;stroke-miterlimit:10;}
	.st51{fill:#F2F2F2;stroke:#666666;stroke-width:22.5087;stroke-linecap:round;stroke-linejoin:round;stroke-miterlimit:10;}
	.st52{fill:#F2F2F2;stroke:#666666;stroke-width:26.519;stroke-linecap:round;stroke-linejoin:round;stroke-miterlimit:10;}
	.st53{fill:#F2F2F2;stroke:#666666;stroke-width:26.519;stroke-linejoin:round;stroke-miterlimit:10;}
	.st54{fill:#F2F2F2;stroke:#666666;stroke-width:38.2424;stroke-linecap:round;stroke-linejoin:round;stroke-miterlimit:10;}
	.st55{fill:#F2F2F2;stroke:#666666;stroke-width:38;stroke-linecap:round;stroke-linejoin:round;stroke-miterlimit:10;}
	.st56{fill:none;stroke:#666666;stroke-width:33.2105;stroke-linecap:round;stroke-linejoin:round;stroke-miterlimit:10;}
	.st57{fill:#CCCCCC;}
	.st58{fill:#F2F2F2;stroke:#666666;stroke-width:23.728;stroke-linecap:round;stroke-linejoin:round;stroke-miterlimit:10;}
	.st59{fill:none;stroke:#666666;stroke-width:23.728;stroke-linejoin:round;stroke-miterlimit:10;}
	.st60{fill:none;stroke:#808080;stroke-width:40.6378;stroke-linecap:round;stroke-linejoin:round;stroke-miterlimit:10;}
	.st61{fill:#808080;}
	.st62{fill:#F2F2F2;stroke:#666666;stroke-width:29.6069;stroke-linecap:round;stroke-linejoin:round;stroke-miterlimit:10;}
	.st63{fill:none;stroke:#666666;stroke-width:41.8409;stroke-linecap:round;stroke-linejoin:round;stroke-miterlimit:10;}
	.st64{fill:#F2F2F2;stroke:#666666;stroke-width:54.6161;stroke-linecap:round;stroke-linejoin:round;stroke-miterlimit:10;}
	.st65{fill:none;stroke:#666666;stroke-width:61.4772;stroke-linecap:round;stroke-miterlimit:10;}
	.st66{fill:none;stroke:#666666;stroke-width:61.4772;stroke-linecap:square;stroke-miterlimit:10;}
	.st67{fill:none;stroke:#666666;stroke-width:61.4772;stroke-linejoin:bevel;stroke-miterlimit:10;}
	.st68{fill:none;stroke:#666666;stroke-width:61.31;stroke-miterlimit:10;}
	.st69{fill:none;stroke:#666666;stroke-width:61.31;stroke-linejoin:bevel;stroke-miterlimit:10;}
	.st70{fill:none;stroke:#666666;stroke-width:112.3337;stroke-linecap:round;stroke-linejoin:round;stroke-miterlimit:10;}
	.st71{fill:none;stroke:#666666;stroke-width:38.7142;stroke-linecap:round;stroke-linejoin:round;stroke-miterlimit:10;}
	.st72{fill:#F2F2F2;stroke:#666666;stroke-width:29.6809;stroke-linecap:round;stroke-linejoin:round;stroke-miterlimit:10;}
	.st73{fill:none;stroke:#666666;stroke-width:61.0049;stroke-linecap:round;stroke-linejoin:round;stroke-miterlimit:10;}
	.st74{fill:none;stroke:#666666;stroke-width:34.8599;stroke-linecap:round;stroke-linejoin:round;stroke-miterlimit:10;}
	.st75{fill:#F2F2F2;stroke:#666666;stroke-width:40.0014;stroke-linecap:round;stroke-linejoin:round;stroke-miterlimit:10;}
	.st76{fill:none;stroke:#666666;stroke-width:40.0014;stroke-linecap:round;stroke-linejoin:round;stroke-miterlimit:10;}
	.st77{fill:#F2F2F2;stroke:#666666;stroke-width:41.4993;stroke-linecap:round;stroke-linejoin:round;stroke-miterlimit:10;}
	.st78{fill:#F2F2F2;stroke:#666666;stroke-width:41.5214;stroke-linecap:round;stroke-linejoin:round;stroke-miterlimit:10;}
</style>
<g>
	<g>
		<path class="st6" d="M918.02,830.71H81.98c-35.29,0-63.9-29.45-63.9-65.78V235.07c0-36.33,28.61-65.78,63.9-65.78h836.05
			c35.29,0,63.9,29.45,63.9,65.78v529.86C981.93,801.26,953.32,830.71,918.02,830.71z"/>
		<path class="st4" d="M918.02,844.83H81.98c-43.02,0-78.02-35.84-78.02-79.9V235.07c0-44.06,35-79.9,78.02-79.9h836.05
			c43.02,0,78.02,35.84,78.02,79.9v529.86C996.05,808.99,961.05,844.83,918.02,844.83z M81.98,183.41
			c-27.45,0-49.78,23.17-49.78,51.66v529.86c0,28.48,22.33,51.66,49.78,51.66h836.05c27.45,0,49.78-23.17,49.78-51.66V235.07
			c0-28.48-22.33-51.66-49.78-51.66H81.98z"/>
	</g>
	<g>
		<path class="st4" d="M981.93,771.88H26.04c-7.8,0-14.12-6.32-14.12-14.12s6.32-14.12,14.12-14.12h955.89
			c7.8,0,14.12,6.32,14.12,14.12S989.73,771.88,981.93,771.88z"/>
	</g>
	<g>
		<path class="st4" d="M911.76,765.36H762.96c-7.8,0-14.12-6.32-14.12-14.12v-42.03c0-23.14,18.47-41.97,41.17-41.97h94.7
			c22.7,0,41.17,18.83,41.17,41.97v42.03C925.88,759.04,919.56,765.36,911.76,765.36z M777.08,737.12h120.57v-27.91
			c0-7.57-5.8-13.73-12.93-13.73h-94.7c-7.13,0-12.93,6.16-12.93,13.73V737.12z"/>
	</g>
	<g>
		<path class="st6" d="M240.56,682.11c0,0,166.79-81.19,187.23-220.12c20.44-138.93-117.65-198.5-159.38-124.48
			c-60.74,107.73,86.53,264.54,236.98,245.57c232.15-29.27,224.77-262.41,224.77-262.41"/>
		<path class="st4" d="M240.57,696.23c-5.23,0-10.26-2.92-12.71-7.94c-3.41-7.01-0.5-15.46,6.51-18.87l0,0
			c0.41-0.2,41.08-20.24,83.5-56.46c17.09-14.59,32.13-29.79,44.95-45.39c-36.88-20.21-68.99-49.04-91.09-81.94
			c-35.6-53.01-41.3-109.52-15.63-155.06c19.46-34.52,58.51-47.77,99.48-33.75c50.79,17.38,99.42,77.13,86.17,167.22
			c-4.64,31.52-16.7,62.57-35.87,92.4c32.3,12.31,65.68,16.67,97.74,12.62c50.06-6.31,92.27-23.11,125.46-49.92
			c26.49-21.41,47.49-49.34,62.42-83.02c25.87-58.37,24.56-114.47,24.54-115.03c-0.23-7.79,5.9-14.3,13.68-14.53
			c7.77-0.24,14.3,5.87,14.54,13.66c0.08,2.51,1.62,62.22-26.51,126.35c-16.69,38.04-40.38,69.71-70.41,94.12
			c-37.42,30.41-84.59,49.39-140.2,56.4c-38.97,4.91-79.46-0.95-118.18-16.98c-14.93,18.96-32.8,37.33-53.32,54.79
			c-45.1,38.38-87.16,59.04-88.92,59.9C244.75,695.77,242.65,696.23,240.57,696.23z M323.93,319.66c-16.41,0-32.95,6.57-43.22,24.77
			c-20.24,35.9-14.96,81.62,14.47,125.44c20.3,30.22,50.25,56.65,84.67,74.78c18.32-27.51,29.74-56,33.97-84.73
			c7.65-51.97-10.18-116.82-67.37-136.39C339.43,321.13,331.69,319.66,323.93,319.66z"/>
	</g>
</g>
</svg>
