<?xml version="1.0" encoding="utf-8"?>
<!-- Generator: Adobe Illustrator 26.0.3, SVG Export Plug-In . SVG Version: 6.00 Build 0)  -->
<svg version="1.1" id="Ebene_1" xmlns="http://www.w3.org/2000/svg" xmlns:xlink="http://www.w3.org/1999/xlink" x="0px" y="0px"
	 width="1000px" height="1000px" viewBox="0 0 1000 1000" style="enable-background:new 0 0 1000 1000;" xml:space="preserve">
<style type="text/css">
	.st0{fill:#F2F2F2;stroke:#666666;stroke-width:40;stroke-linecap:round;stroke-linejoin:round;stroke-miterlimit:10;}
	.st1{fill:#F2F2F2;stroke:#666666;stroke-width:39.8038;stroke-linecap:round;stroke-linejoin:round;stroke-miterlimit:10;}
	.st2{fill:none;stroke:#666666;stroke-width:39.8038;stroke-linecap:round;stroke-linejoin:round;stroke-miterlimit:10;}
	.st3{fill:none;stroke:#666666;stroke-width:68.0372;stroke-linecap:round;stroke-linejoin:round;stroke-miterlimit:10;}
	.st4{fill:#666666;}
	.st5{fill:none;stroke:#666666;stroke-width:40;stroke-linecap:round;stroke-linejoin:round;stroke-miterlimit:10;}
	.st6{fill:#F2F2F2;}
	.st7{fill:none;stroke:#666666;stroke-width:98.74;stroke-linecap:round;stroke-linejoin:round;stroke-miterlimit:10;}
	.st8{fill:none;stroke:#666666;stroke-width:90;stroke-linecap:round;stroke-linejoin:round;stroke-miterlimit:10;}
	.st9{fill:#F2F2F2;stroke:#666666;stroke-width:28;stroke-linecap:round;stroke-linejoin:round;stroke-miterlimit:10;}
	.st10{fill:#FFFFFF;}
	.st11{fill:#FFFFFF;stroke:#2F2D7E;stroke-width:40;stroke-linecap:round;stroke-linejoin:round;stroke-miterlimit:10;}
	.st12{fill:none;stroke:#2F2D7E;stroke-width:40;stroke-linecap:round;stroke-linejoin:round;stroke-miterlimit:10;}
	.st13{fill:#FFFFFF;stroke:#2F2D7E;stroke-width:30;stroke-linecap:round;stroke-linejoin:round;stroke-miterlimit:10;}
	.st14{fill:none;stroke:#808080;stroke-width:40;stroke-linecap:round;stroke-linejoin:round;stroke-miterlimit:10;}
	.st15{fill:none;stroke:#808080;stroke-width:110;stroke-linecap:round;stroke-linejoin:round;stroke-miterlimit:10;}
	.st16{clip-path:url(#SVGID_00000182528825708041161850000005785328217414421672_);}
	.st17{fill:#EAA58D;}
	.st18{fill:none;stroke:#808080;stroke-width:70;stroke-linecap:round;stroke-linejoin:round;stroke-miterlimit:10;}
	.st19{fill:none;stroke:#CCCCCC;stroke-width:119.9441;stroke-linecap:round;stroke-linejoin:round;stroke-miterlimit:10;}
	.st20{fill:none;stroke:#666666;stroke-width:59.9664;stroke-linecap:round;stroke-miterlimit:10;}
	.st21{fill:none;stroke:#666666;stroke-width:58.1416;stroke-linecap:round;stroke-miterlimit:10;}
	.st22{fill:none;stroke:#666666;stroke-width:56.47;stroke-miterlimit:10;}
	.st23{fill:none;stroke:#666666;stroke-width:56.47;stroke-linecap:round;stroke-miterlimit:10;}
	.st24{fill:none;stroke:#666666;stroke-width:59.3407;stroke-linecap:round;stroke-miterlimit:10;}
	.st25{fill:none;stroke:#666666;stroke-width:98.0992;stroke-linecap:round;stroke-miterlimit:10;}
	.st26{fill:none;stroke:#666666;stroke-width:61.312;stroke-linecap:round;stroke-miterlimit:10;}
	.st27{fill:none;stroke:#666666;stroke-width:61.312;stroke-linejoin:bevel;stroke-miterlimit:10;}
	.st28{fill:none;stroke:#666666;stroke-width:50;stroke-linecap:round;stroke-miterlimit:10;}
	.st29{fill:none;stroke:#666666;stroke-width:50;stroke-linejoin:bevel;stroke-miterlimit:10;}
	.st30{fill:none;stroke:#666666;stroke-width:40.5198;stroke-linecap:round;stroke-miterlimit:10;}
	.st31{fill:none;stroke:#666666;stroke-width:26.4282;stroke-linecap:round;stroke-miterlimit:10;}
	.st32{fill:none;stroke:#666666;stroke-width:41.6027;stroke-linecap:round;stroke-miterlimit:10;}
	.st33{fill:none;stroke:#666666;stroke-width:125.3478;stroke-linecap:square;stroke-linejoin:round;stroke-miterlimit:10;}
	.st34{fill:none;stroke:#666666;stroke-width:40.4771;stroke-linecap:round;stroke-miterlimit:10;}
	.st35{fill:none;stroke:#666666;stroke-width:47.5393;stroke-linecap:round;stroke-miterlimit:10;}
	.st36{fill:none;stroke:#666666;stroke-width:81.1986;stroke-linecap:round;stroke-miterlimit:10;}
	.st37{fill:#FFFFFF;stroke:#666666;stroke-width:47.5393;stroke-linecap:round;stroke-miterlimit:10;}
</style>
<g>
	<path class="st4" d="M406.36,633.38C406.36,633.38,406.36,633.38,406.36,633.38c10.5-11.9,20.66-23.43,30.62-34.72c0,0,0,0,0,0
		c366.88-416.14,369.1-422.8,370.79-427.87c4.02-12.06-2.5-25.1-14.56-29.12c-10.45-3.48-21.56,0.92-26.99,9.93
		c-7,9.33-54.46,64.11-122.88,142.33c0,0,0,0,0,0c-10.67,12.19-21.77,24.88-33.38,38.13c0,0,0,0,0,0
		c-8.87,10.12-17.99,20.52-27.33,31.17c0,0,0,0,0,0c-10.13,11.54-20.44,23.3-31.05,35.37c0,0,0,0,0,0
		c-46.19,52.59-96.51,109.78-147.53,167.68c0,0,0,0,0,0c-10.34,11.73-20.7,23.49-31.06,35.25c0,0,0,0,0,0
		c-17.02,19.3-34.03,38.6-50.92,57.74c-2.52,2.86-5.05,5.72-7.57,8.58c-0.8,0.91-1.6,1.82-2.41,2.73c-5,5.67-10,11.33-14.97,16.96
		c-41.17,46.66-81.18,91.95-118.13,133.74c-8.43,9.52-7.53,24.07,2,32.49c4.37,3.88,9.81,5.78,15.23,5.78
		c6.37,0,12.71-2.63,17.25-7.78c46.71-52.83,89.72-101.52,129.36-146.41c0,0,0,0,0,0c11.37-12.87,22.38-25.36,33.2-37.61
		c0,0,0,0,0,0C386.4,656,396.5,644.55,406.36,633.38z"/>
	<path class="st4" d="M500.01,386.29c5.23,0,10.35,0.47,15.4,1.15c11.83-13.46,23.28-26.5,34.45-39.24
		c-15.72-5.11-32.45-7.95-49.86-7.95c-89.13,0-161.64,72.5-161.64,161.63c0,24.68,5.72,48,15.66,68.94
		c11.59-13.16,23.05-26.16,34.43-39.08c-2.56-9.55-4.05-19.52-4.05-29.87C384.41,438.14,436.26,386.29,500.01,386.29z"/>
	<path class="st4" d="M500.01,617.47c-10.37,0-20.38-1.5-29.95-4.07c-10.69,12.12-21.63,24.53-32.96,37.37
		c19.35,8.2,40.61,12.75,62.91,12.75c89.13,0,161.63-72.51,161.63-161.64c0-29.59-8.13-57.26-22.06-81.14
		c-10.33,11.78-21.25,24.22-32.69,37.24c5.58,13.55,8.71,28.36,8.71,43.89C615.59,565.62,563.74,617.47,500.01,617.47z"/>
	<path class="st4" d="M916.48,455.62c-35.33-31.96-104.53-88.3-193.44-130.38c-9.66,11.1-20.11,23.09-31.46,36.08
		c89.02,39.87,159.1,96.86,194.01,128.45c4.7,4.25,5.4,9.41,5.4,12.11s-0.7,7.87-5.4,12.12
		c-57.42,51.94-209.94,172.76-385.58,172.76c-29.56,0-58.44-3.48-86.34-9.42c-11.17,12.66-22.73,25.75-34.5,39.07
		c38.42,10.22,78.96,16.39,120.84,16.39c191.65,0,355.1-129.13,416.47-184.66c13.06-11.81,20.56-28.69,20.55-46.27
		C937.02,484.29,929.54,467.44,916.48,455.62z"/>
	<path class="st4" d="M295.96,636.68c-83.08-39.44-148.28-92.6-181.53-122.68c-3.48-3.15-5.41-7.45-5.41-12.12
		c0-2.7,0.71-7.86,5.41-12.11c57.42-51.95,209.92-172.77,385.58-172.77c24.35,0,48.23,2.39,71.5,6.53
		c12.13-13.83,23.75-27.1,34.86-39.79c-34.08-8.03-69.69-12.78-106.35-12.78c-191.68,0-355.11,129.14-416.46,184.66
		c-13.07,11.8-20.57,28.66-20.57,46.24c0,17.59,7.49,34.45,20.56,46.28c33.65,30.44,98.04,82.99,180.89,124.27
		C274.97,660.47,285.48,648.55,295.96,636.68z"/>
</g>
</svg>
