<?xml version="1.0" encoding="utf-8"?>
<!-- Generator: Adobe Illustrator 27.0.1, SVG Export Plug-In . SVG Version: 6.00 Build 0)  -->
<svg version="1.0" xmlns="http://www.w3.org/2000/svg" xmlns:xlink="http://www.w3.org/1999/xlink" x="0px" y="0px"
	 viewBox="0 0 1000 1000" style="enable-background:new 0 0 1000 1000;" xml:space="preserve">
<style type="text/css">
	.st0{fill:#666666;}
	.st1{fill:#6F6F6E;}
	.st2{fill:#F2F2F2;}
</style>
<g id="Ebene_1">
	<g>
		<path class="st0" d="M500,907.4C275.4,907.4,92.6,724.6,92.6,500S275.4,92.6,500,92.6S907.4,275.4,907.4,500
			S724.6,907.4,500,907.4z M500,128.7c-204.7,0-371.3,166.6-371.3,371.3S295.3,871.3,500,871.3S871.3,704.7,871.3,500
			S704.7,128.7,500,128.7z"/>
		<path class="st0" d="M794,539c-10,0-18-8.1-18-18c0-19.6-1.9-39.1-5.8-58.1c-2-9.8,4.4-19.3,14.1-21.2c9.7-2,19.3,4.4,21.2,14.1
			c4.3,21.3,6.5,43.3,6.5,65.2C812.1,531,804,539,794,539z"/>
		<path class="st0" d="M774.5,430.1c-7.3,0-14.2-4.5-16.9-11.7c-36.1-96.8-121.6-168.1-223.1-186.2c-9.8-1.7-16.3-11.1-14.6-20.9
			c1.7-9.8,11.1-16.3,20.9-14.6c114,20.3,210,100.4,250.6,209c3.5,9.3-1.3,19.7-10.6,23.2C778.7,429.8,776.6,430.1,774.5,430.1z"/>
		<path class="st0" d="M646.2,485.4L447.3,370.5c-11.2-6.5-25.3,1.6-25.3,14.6v229.7c0,13,14.1,21.1,25.3,14.6l198.9-114.9
			C657.5,508.1,657.5,491.9,646.2,485.4z"/>
	</g>
</g>
<g id="Ebene_2">
</g>
</svg>
