<?xml version="1.0" encoding="utf-8"?>
<!-- Generator: Adobe Illustrator 27.0.1, SVG Export Plug-In . SVG Version: 6.00 Build 0)  -->
<svg version="1.0" xmlns="http://www.w3.org/2000/svg" xmlns:xlink="http://www.w3.org/1999/xlink" x="0px" y="0px"
	 viewBox="0 0 1000 1000" style="enable-background:new 0 0 1000 1000;" xml:space="preserve">
<style type="text/css">
	.st0{fill:#666666;}
	.st1{fill:#6F6F6E;}
	.st2{fill:#F2F2F2;}
</style>
<g id="Ebene_1">
	<g>
		<path class="st0" d="M845.4,296.9L654.9,98c-2.9-3-7-4.8-11.2-4.8H307.6c-44.5,0-80.7,36.2-80.7,80.7v365.9
			c0,8.6,7,15.5,15.5,15.5c8.6,0,15.5-7,15.5-15.5V173.9c0-27.4,22.3-49.7,49.7-49.7h309.3v129c0,45.4,37,82.4,82.4,82.4h119.4
			v490.4c0,27.4-22.3,49.7-49.7,49.7H341.8c-8.6,0-15.5,7-15.5,15.5c0,8.6,7,15.5,15.5,15.5H769c44.5,0,80.7-36.2,80.7-80.7V307.6
			C849.8,303.6,848.2,299.8,845.4,296.9z M647.9,253.3V135.6l162,169.1H699.3C671,304.6,647.9,281.6,647.9,253.3z"/>
		<path class="st0" d="M228.2,616.8h-58.6c-12.2,0-19.1,9.4-19.3,20.7v152.3c0,9.9,9.7,18.8,20.2,18.8c11.1,0,20.2-8.6,20.2-18.8
			v-48.4h37.6c43.4,0,62.7-30.7,62.7-62.2C290.9,648.1,271.6,616.8,228.2,616.8z M226.2,706.1h-35.6v-53.6h36.8
			c15.2,0,22.9,14.9,22.9,26.8C250.3,691.7,242,706.1,226.2,706.1z"/>
		<path class="st0" d="M408.8,807.2c54.7,0,86-40.9,86-94.8c0-54.2-31.2-95.6-86-95.6h-58.6c-10.2,0-15.8,7.7-16,17.1v156.1
			c0,9.1,5.8,17.1,16,17.1H408.8z M374.6,652.5h34.3c30.4,0,45.6,28.5,45.6,60c0,31.2-15.2,59.4-45.6,59.4h-34.3V652.5z"/>
		<path class="st0" d="M646.2,652.5c8.8-0.3,16.6-8.6,16.6-17.7c0-9.9-7.5-18-16.6-18h-87.6c-10.2,0-15.8,7.7-16,17.1v155.9
			c0,9.9,9.7,18.8,20.2,18.8c11.1,0,20.2-8.6,20.2-18.8V731h47c8.9,0,16.6-8.3,16.6-17.4c0-9.7-7.5-17.4-16.6-17.4h-47v-43.7H646.2z
			"/>
	</g>
</g>
<g id="Ebene_2">
</g>
</svg>
