<?xml version="1.0" encoding="utf-8"?>
<!-- Generator: Adobe Illustrator 27.0.1, SVG Export Plug-In . SVG Version: 6.00 Build 0)  -->
<svg version="1.0" xmlns="http://www.w3.org/2000/svg" xmlns:xlink="http://www.w3.org/1999/xlink" x="0px" y="0px"
	 viewBox="0 0 1000 1000" style="enable-background:new 0 0 1000 1000;" xml:space="preserve">
<style type="text/css">
	.st0{fill:#666666;}
	.st1{fill:#6F6F6E;}
	.st2{fill:#F2F2F2;}
</style>
<g id="Ebene_1">
	<g id="Gruppe_90" transform="translate(0 0)">
		<g id="Gruppe_76" transform="translate(2.696 7.593)">
			<path id="Pfad_135" class="st0" d="M147,562.5c-6.5-0.1-11.8-5.4-11.8-11.9V437.4c0-6.5,5.3-11.9,11.8-11.9
				c6.5,0.1,11.8,5.4,11.8,11.9v113.2C158.8,557.1,153.5,562.4,147,562.5"/>
		</g>
		<g id="Gruppe_77" transform="translate(5.502 5.522)">
			<path id="Pfad_136" class="st0" d="M199.9,564.6c-6.5-0.1-11.8-5.4-11.8-11.9V398.3c0-6.5,5.3-11.9,11.8-11.9
				c6.5,0.1,11.8,5.4,11.8,11.9v154.4C211.7,559.2,206.4,564.5,199.9,564.6"/>
		</g>
		<g id="Gruppe_78" transform="translate(8.308 2.416)">
			<path id="Pfad_137" class="st0" d="M252.8,567.6c-6.5-0.1-11.8-5.4-11.8-11.9V339.8c0-6.5,5.3-11.9,11.8-11.9
				c6.5,0.1,11.8,5.4,11.8,11.9v216c0,6.5-5.3,11.9-11.8,11.9"/>
		</g>
		<g id="Gruppe_79" transform="translate(11.114 5.522)">
			<path id="Pfad_138" class="st0" d="M305.8,564.6c-6.5-0.1-11.8-5.4-11.8-11.9V398.3c0-6.5,5.3-11.9,11.8-11.9
				c6.5,0.1,11.8,5.4,11.8,11.9v154.4C317.6,559.2,312.3,564.5,305.8,564.6"/>
		</g>
		<g id="Gruppe_80" transform="translate(13.921 5.522)">
			<path id="Pfad_139" class="st0" d="M358.7,564.6c-6.5-0.1-11.8-5.4-11.8-11.9V398.3c0-6.5,5.3-11.9,11.8-11.9
				c6.5,0.1,11.8,5.4,11.8,11.9v154.4C370.5,559.2,365.2,564.5,358.7,564.6"/>
		</g>
		<g id="Gruppe_81" transform="translate(16.727 7.593)">
			<path id="Pfad_140" class="st0" d="M411.6,562.5c-6.5-0.1-11.8-5.4-11.8-11.9V437.4c0-6.5,5.3-11.9,11.8-11.9
				c6.5,0.1,11.8,5.4,11.8,11.9v113.2C423.4,557.1,418.2,562.4,411.6,562.5"/>
		</g>
		<g id="Gruppe_82" transform="translate(28.172 5.522)">
			<path id="Pfad_141" class="st0" d="M627.5,564.6c-6.5-0.1-11.8-5.4-11.8-11.9V398.3c0-6.5,5.3-11.9,11.8-11.9
				c6.5,0.1,11.8,5.4,11.8,11.9v154.4C639.3,559.2,634,564.5,627.5,564.6"/>
		</g>
		<g id="Gruppe_83" transform="translate(25.366 7.593)">
			<path id="Pfad_142" class="st0" d="M574.6,562.5c-6.5-0.1-11.8-5.4-11.8-11.9V437.4c0-6.5,5.3-11.9,11.8-11.9
				c6.5,0.1,11.8,5.4,11.8,11.9v113.2C586.4,557.1,581.1,562.4,574.6,562.5"/>
		</g>
		<g id="Gruppe_84" transform="translate(19.533 9.664)">
			<path id="Pfad_143" class="st0" d="M464.5,560.5c-6.5-0.1-11.8-5.4-11.8-11.9v-72.1c0-6.5,5.3-11.9,11.8-11.9
				c6.5,0.1,11.8,5.4,11.8,11.9v72.1C476.3,555.1,471.1,560.4,464.5,560.5"/>
		</g>
		<g id="Gruppe_85" transform="translate(0 9.664)">
			<path id="Pfad_144" class="st0" d="M96.1,560.5c-6.5-0.1-11.8-5.4-11.8-11.9v-72.1c0-6.5,5.3-11.9,11.8-11.9
				c6.5,0.1,11.8,5.4,11.8,11.9v72.1C107.9,555.1,102.7,560.4,96.1,560.5"/>
		</g>
		<g id="Gruppe_86" transform="translate(22.339 9.664)">
			<path id="Pfad_145" class="st0" d="M517.5,560.5c-6.5-0.1-11.8-5.4-11.8-11.9v-72.1c0-6.5,5.3-11.9,11.8-11.9
				c6.5,0.1,11.8,5.4,11.8,11.9v72.1C529.3,555.1,524,560.4,517.5,560.5"/>
		</g>
		<g id="Gruppe_87" transform="translate(30.975 9.664)">
			<path id="Pfad_146" class="st0" d="M680.4,560.5c-6.5-0.1-11.8-5.4-11.8-11.9v-72.1c0-6.5,5.3-11.9,11.8-11.9
				c6.5,0.1,11.8,5.4,11.8,11.9v72.1C692.1,555.1,686.9,560.4,680.4,560.5"/>
		</g>
		<g id="Gruppe_88" transform="translate(18.798 0)">
			<path id="Pfad_147" class="st0" d="M639.2,683.9c-110.7-0.2-200.3-90-200.3-200.7c0-110.7,89.6-200.5,200.3-200.7
				c110.7,0.2,200.3,90,200.3,200.7C839.5,593.8,749.9,683.6,639.2,683.9 M639.2,335.9c-81.2,0.2-147,66-147,147.2
				c0,81.2,65.8,147.1,147,147.2c81.2-0.2,147-66,147-147.2C786.2,401.9,720.4,336.1,639.2,335.9"/>
		</g>
		<g id="Gruppe_89" transform="translate(34.083 14.928)">
			<path id="Pfad_148" class="st0" d="M854.9,702.6c-6.3,0-12.4-2.2-17.2-6.3l-101.1-85.2c-11.3-9.5-12.8-26.4-3.2-37.7
				c9.5-11.3,26.3-12.7,37.6-3.3c0,0,0,0,0,0l101.1,85.2c11.3,9.5,12.7,26.4,3.2,37.7C870.2,699.2,862.7,702.7,854.9,702.6"/>
		</g>
	</g>
</g>
<g id="Ebene_2">
</g>
</svg>
