<?xml version="1.0" encoding="utf-8"?>
<!-- Generator: Adobe Illustrator 27.0.1, SVG Export Plug-In . SVG Version: 6.00 Build 0)  -->
<svg version="1.0" xmlns="http://www.w3.org/2000/svg" xmlns:xlink="http://www.w3.org/1999/xlink" x="0px" y="0px"
	 viewBox="0 0 1000 1000" style="enable-background:new 0 0 1000 1000;" xml:space="preserve">
<style type="text/css">
	.st0{fill:#666666;}
	.st1{fill:#6F6F6E;}
	.st2{fill:#F2F2F2;}
</style>
<g id="Ebene_1">
	<g>
		<path class="st0" d="M629.2,816.2H370.8c-16,0-29-13-29-29v-57.6c0-14.7,11-27.1,25.7-28.8l62.7-7.2V299.4h-72.6l-5.2,50
			c-1.5,14.8-13.9,26-28.8,26h-57.7c-16,0-29-13-29-29V213.2c0-16.3,13-29.5,29-29.5h468.1c16,0,29,13,29,29v133.6c0,16-13,29-29,29
			h-57.6c-14.9,0-27.3-11.2-28.8-26l-5.2-50h-72.6v394.5l62.7,7c14.7,1.6,25.8,14,25.8,28.8v57.6
			C658.2,803.2,645.2,816.2,629.2,816.2z M372.8,785.2h254.3v-53.7l-74.6-8.3c-7.9-0.9-13.8-7.5-13.8-15.4V283.8
			c0-8.6,6.9-15.5,15.5-15.5h102.1c7.9,0,14.6,6,15.4,13.9l6.5,62H732V214.8H268v129.5h53.7l6.5-62c0.8-7.9,7.5-13.9,15.4-13.9
			h102.1c8.6,0,15.5,6.9,15.5,15.5v423.7c0,7.9-5.9,14.5-13.8,15.4l-74.7,8.5V785.2z M734.1,214.8L734.1,214.8L734.1,214.8z"/>
	</g>
</g>
<g id="Ebene_2">
</g>
</svg>
