<?xml version="1.0" encoding="utf-8"?>
<!-- Generator: Adobe Illustrator 26.2.1, SVG Export Plug-In . SVG Version: 6.00 Build 0)  -->
<svg version="1.1" id="Ebene_1" xmlns="http://www.w3.org/2000/svg" xmlns:xlink="http://www.w3.org/1999/xlink" x="0px" y="0px"
	 width="1000px" height="1000px" viewBox="0 0 1000 1000" style="enable-background:new 0 0 1000 1000;" xml:space="preserve">
<style type="text/css">
	.st0{fill:#F2F2F2;stroke:#666666;stroke-width:40;stroke-linecap:round;stroke-linejoin:round;stroke-miterlimit:10;}
	.st1{fill:#F2F2F2;stroke:#666666;stroke-width:39.8038;stroke-linecap:round;stroke-linejoin:round;stroke-miterlimit:10;}
	.st2{fill:none;stroke:#666666;stroke-width:39.8038;stroke-linecap:round;stroke-linejoin:round;stroke-miterlimit:10;}
	.st3{fill:none;stroke:#666666;stroke-width:68.0372;stroke-linecap:round;stroke-linejoin:round;stroke-miterlimit:10;}
	.st4{fill:#666666;}
	.st5{fill:none;stroke:#666666;stroke-width:40;stroke-linecap:round;stroke-linejoin:round;stroke-miterlimit:10;}
	.st6{fill:#F2F2F2;}
	.st7{fill:none;stroke:#666666;stroke-width:98.74;stroke-linecap:round;stroke-linejoin:round;stroke-miterlimit:10;}
	.st8{fill:none;stroke:#666666;stroke-width:90;stroke-linecap:round;stroke-linejoin:round;stroke-miterlimit:10;}
	.st9{fill:#F2F2F2;stroke:#666666;stroke-width:28;stroke-linecap:round;stroke-linejoin:round;stroke-miterlimit:10;}
	.st10{fill:#FFFFFF;}
	.st11{fill:#FFFFFF;stroke:#2F2D7E;stroke-width:40;stroke-linecap:round;stroke-linejoin:round;stroke-miterlimit:10;}
	.st12{fill:none;stroke:#2F2D7E;stroke-width:40;stroke-linecap:round;stroke-linejoin:round;stroke-miterlimit:10;}
	.st13{fill:#FFFFFF;stroke:#2F2D7E;stroke-width:30;stroke-linecap:round;stroke-linejoin:round;stroke-miterlimit:10;}
	.st14{fill:none;stroke:#808080;stroke-width:40;stroke-linecap:round;stroke-linejoin:round;stroke-miterlimit:10;}
	.st15{fill:none;stroke:#808080;stroke-width:110;stroke-linecap:round;stroke-linejoin:round;stroke-miterlimit:10;}
	.st16{clip-path:url(#SVGID_00000130610841448036331670000004566608734521175938_);}
	.st17{fill:#EAA58D;}
	.st18{fill:none;stroke:#808080;stroke-width:70;stroke-linecap:round;stroke-linejoin:round;stroke-miterlimit:10;}
	.st19{fill:none;stroke:#CCCCCC;stroke-width:119.9441;stroke-linecap:round;stroke-linejoin:round;stroke-miterlimit:10;}
	.st20{fill:none;stroke:#666666;stroke-width:59.9664;stroke-linecap:round;stroke-miterlimit:10;}
	.st21{fill:none;stroke:#666666;stroke-width:58.1416;stroke-linecap:round;stroke-miterlimit:10;}
	.st22{fill:none;stroke:#666666;stroke-width:56.47;stroke-miterlimit:10;}
	.st23{fill:none;stroke:#666666;stroke-width:56.47;stroke-linecap:round;stroke-miterlimit:10;}
	.st24{fill:none;stroke:#666666;stroke-width:59.3407;stroke-linecap:round;stroke-miterlimit:10;}
	.st25{fill:none;stroke:#666666;stroke-width:98.0992;stroke-linecap:round;stroke-miterlimit:10;}
	.st26{fill:none;stroke:#666666;stroke-width:61.312;stroke-linecap:round;stroke-miterlimit:10;}
	.st27{fill:none;stroke:#666666;stroke-width:61.312;stroke-linejoin:bevel;stroke-miterlimit:10;}
	.st28{fill:none;stroke:#666666;stroke-width:50;stroke-linecap:round;stroke-miterlimit:10;}
	.st29{fill:none;stroke:#666666;stroke-width:50;stroke-linejoin:bevel;stroke-miterlimit:10;}
	.st30{fill:none;stroke:#666666;stroke-width:40.5198;stroke-linecap:round;stroke-miterlimit:10;}
	.st31{fill:none;stroke:#666666;stroke-width:26.4282;stroke-linecap:round;stroke-miterlimit:10;}
	.st32{fill:none;stroke:#666666;stroke-width:41.6027;stroke-linecap:round;stroke-miterlimit:10;}
	.st33{fill:none;stroke:#666666;stroke-width:125.3478;stroke-linecap:square;stroke-linejoin:round;stroke-miterlimit:10;}
	.st34{fill:none;stroke:#666666;stroke-width:40.4771;stroke-linecap:round;stroke-miterlimit:10;}
	.st35{fill:none;stroke:#666666;stroke-width:47.5393;stroke-linecap:round;stroke-miterlimit:10;}
	.st36{fill:none;stroke:#666666;stroke-width:81.1986;stroke-linecap:round;stroke-miterlimit:10;}
	.st37{fill:#FFFFFF;stroke:#666666;stroke-width:47.5393;stroke-linecap:round;stroke-miterlimit:10;}
	.st38{fill:none;stroke:#666666;stroke-width:38.9985;stroke-linecap:round;stroke-linejoin:round;stroke-miterlimit:10;}
	.st39{fill:none;stroke:#666666;stroke-width:25.999;stroke-linecap:round;stroke-linejoin:round;stroke-miterlimit:10;}
	.st40{fill:none;stroke:#666666;stroke-width:38.9985;stroke-linecap:round;stroke-miterlimit:10;}
	.st41{fill:#F2F2F2;stroke:#666666;stroke-width:33.614;stroke-linecap:round;stroke-linejoin:round;stroke-miterlimit:10;}
	.st42{fill:none;stroke:#666666;stroke-width:39.662;stroke-linecap:round;stroke-linejoin:round;stroke-miterlimit:10;}
	.st43{fill:none;stroke:#666666;stroke-width:54.6198;stroke-linecap:round;stroke-linejoin:round;stroke-miterlimit:10;}
	.st44{fill:#F2F2F2;stroke:#666666;stroke-width:39.662;stroke-linecap:round;stroke-linejoin:round;stroke-miterlimit:10;}
	.st45{fill:none;stroke:#666666;stroke-width:38.5513;stroke-linecap:round;stroke-linejoin:round;stroke-miterlimit:10;}
	.st46{fill:none;stroke:#666666;stroke-width:38.5513;stroke-linejoin:round;stroke-miterlimit:10;}
	.st47{fill:none;stroke:#666666;stroke-width:30.4797;stroke-linecap:round;stroke-linejoin:round;stroke-miterlimit:10;}
</style>
<g>
	<g>
		<line class="st47" x1="131.14" y1="704.2" x2="131.14" y2="843.87"/>
		<line class="st47" x1="212.06" y1="644.6" x2="212.06" y2="843.87"/>
		<line class="st47" x1="292.98" y1="555.21" x2="292.98" y2="843.87"/>
		<line class="st47" x1="373.9" y1="644.6" x2="373.9" y2="843.87"/>
		<line class="st47" x1="454.82" y1="644.6" x2="454.82" y2="843.87"/>
		<line class="st47" x1="535.73" y1="704.2" x2="535.73" y2="843.87"/>
		<line class="st47" x1="865.78" y1="644.6" x2="865.78" y2="843.87"/>
		<line class="st47" x1="784.86" y1="704.2" x2="784.86" y2="843.87"/>
		<line class="st47" x1="616.65" y1="763.8" x2="616.65" y2="843.87"/>
		<line class="st47" x1="53.4" y1="763.8" x2="53.4" y2="843.87"/>
		<line class="st47" x1="697.57" y1="763.8" x2="697.57" y2="843.87"/>
		<line class="st47" x1="946.6" y1="763.8" x2="946.6" y2="843.87"/>
	</g>
	<g>
		<path class="st4" d="M357.06,441.03H241.8l-21.35,72.21c-2.62,8.87-15.18,8.91-17.86,0.06l-21.87-72.26H67.77
			c-15.99,0-28.96-12.96-28.96-28.96V169.85c0-15.99,12.96-28.96,28.96-28.96h289.29c15.99,0,28.96,12.96,28.96,28.96v242.23
			C386.01,428.07,373.05,441.03,357.06,441.03z"/>
		<g>
			<path class="st6" d="M212.41,343.72c8.79,0,15.94-7.15,15.94-15.94c0-11.36,6.15-22.54,18.78-34.18
				c9.81-9.02,21.02-22.19,20.74-43.97c-0.42-29.73-24.95-54.26-54.68-54.68c-15.41,0.02-29.16,5.53-39.74,15.96
				c-10.65,10.51-16.51,24.53-16.51,39.51c0,8.81,7.15,15.96,15.94,15.96c8.81,0,15.96-7.15,15.96-15.96
				c0-6.35,2.49-12.3,7.02-16.78c4.41-4.36,10.41-6.77,16.86-6.77c12.43,0.17,23.06,10.8,23.23,23.2
				c0.08,6.68-1.55,11.87-10.44,20.05c-19.29,17.76-29.06,37.17-29.06,57.66C196.45,336.57,203.6,343.72,212.41,343.72z"/>
			<g>
				<circle class="st6" cx="212.99" cy="382.85" r="20.79"/>
			</g>
		</g>
	</g>
	<g>
		<path class="st4" d="M817.05,552.29h-115.2l-21.34,72.17c-2.62,8.87-15.17,8.91-17.85,0.06l-21.86-72.23H527.9
			c-15.99,0-28.94-12.96-28.94-28.94V281.23c0-15.99,12.96-28.94,28.94-28.94h289.16c15.99,0,28.94,12.96,28.94,28.94v242.12
			C846,539.33,833.04,552.29,817.05,552.29z"/>
		<g>
			<path class="st6" d="M672.48,460.97c11.81,0,21.5,8.78,21.5,20.59c0,11.81-9.69,20.29-21.5,20.29c-11.51,0-21.5-8.48-21.5-20.29
				C650.97,469.75,660.97,460.97,672.48,460.97z M672.17,298.51c8.78,0,16.05,7.57,16.05,16.35l-3.93,116.44
				c0,6.96-5.46,13.03-12.42,13.03s-12.42-6.06-12.42-13.03l-3.93-116.44c0-8.78,7.26-16.35,16.05-16.35H672.17z"/>
		</g>
	</g>
</g>
</svg>
