<?xml version="1.0" encoding="utf-8"?>
<!-- Generator: Adobe Illustrator 27.0.1, SVG Export Plug-In . SVG Version: 6.00 Build 0)  -->
<svg version="1.0" id="Ebene_1" xmlns="http://www.w3.org/2000/svg" xmlns:xlink="http://www.w3.org/1999/xlink" x="0px" y="0px"
	 viewBox="0 0 1000 1000" style="enable-background:new 0 0 1000 1000;" xml:space="preserve">
<style type="text/css">
	.st0{fill:#676767;}
</style>
<g>
	<path class="st0" d="M745.1,131.5h-47.5v-7.4c0-26.8-21.2-48.8-47.7-50V46.9C649.9,21,628.9,0,603,0H397c-25.8,0-46.9,21-46.9,46.9
		V74c-26.5,1.2-47.7,23.2-47.7,50v7.4h-47.5c-49.5,0-89.8,40.3-89.8,89.8v688.8c0,49.5,40.3,89.8,89.8,89.8h490.3
		c49.5,0,89.8-40.3,89.8-89.8V221.3C835,171.8,794.7,131.5,745.1,131.5z M342.4,124.1c0-5.6,4.5-10.1,10.1-10.1h17.7
		c11,0,20-9,20-20V46.9c0-3.8,3.1-6.9,6.9-6.9H603c3.8,0,6.9,3.1,6.9,6.9V94c0,11,9,20,20,20h17.7c5.6,0,10.1,4.5,10.1,10.1v27.4
		c0,0,0,0,0,0v23.7c0,5.6-4.5,10.1-10.1,10.1H352.4c-5.6,0-10.1-4.5-10.1-10.1V124.1z M795,910.2c0,27.5-22.4,49.8-49.8,49.8H254.9
		c-27.5,0-49.8-22.4-49.8-49.8V221.3c0-27.5,22.4-49.8,49.8-49.8h47.5v3.7c0,27.6,22.5,50.1,50.1,50.1h0h295.1h0
		c27.6,0,50.1-22.5,50.1-50.1v-3.7h47.5c27.5,0,49.8,22.4,49.8,49.8V910.2z"/>
	<circle class="st0" cx="500" cy="88.5" r="24.1"/>
	<path class="st0" d="M279.6,343h160.2c7.7,0,14-6.3,14-14c0-7.7-6.3-14-14-14H279.6c-7.7,0-14,6.3-14,14
		C265.6,336.8,271.9,343,279.6,343z"/>
	<path class="st0" d="M514.8,385.6H279.6c-7.7,0-14,6.3-14,14c0,7.7,6.3,14,14,14h235.2c7.7,0,14-6.3,14-14
		C528.8,391.9,522.5,385.6,514.8,385.6z"/>
	<path class="st0" d="M727.7,277.1c-6.6-4-15.2-1.9-19.2,4.7l-51.5,85l-22.9-31.7c-4.5-6.3-13.3-7.7-19.5-3.2
		c-6.3,4.5-7.7,13.3-3.2,19.5l35.3,48.8c2.6,3.7,6.9,5.8,11.3,5.8c0.2,0,0.4,0,0.6,0c4.7-0.2,9-2.7,11.4-6.7l62.4-103.1
		C736.4,289.7,734.3,281.1,727.7,277.1z"/>
	<path class="st0" d="M279.6,563.6h160.2c7.7,0,14-6.3,14-14s-6.3-14-14-14H279.6c-7.7,0-14,6.3-14,14S271.9,563.6,279.6,563.6z"/>
	<path class="st0" d="M514.8,606.2H279.6c-7.7,0-14,6.3-14,14c0,7.7,6.3,14,14,14h235.2c7.7,0,14-6.3,14-14
		C528.8,612.5,522.5,606.2,514.8,606.2z"/>
	<path class="st0" d="M727.7,497.7c-6.6-4-15.2-1.9-19.2,4.7l-51.5,85l-22.9-31.7c-4.5-6.3-13.3-7.7-19.5-3.2
		c-6.3,4.5-7.7,13.3-3.2,19.5l35.3,48.8c2.6,3.7,6.9,5.8,11.3,5.8c0.2,0,0.4,0,0.6,0c4.7-0.2,9-2.7,11.4-6.7l62.4-103.1
		C736.4,510.3,734.3,501.7,727.7,497.7z"/>
	<path class="st0" d="M279.6,790.3h160.2c7.7,0,14-6.3,14-14c0-7.7-6.3-14-14-14H279.6c-7.7,0-14,6.3-14,14
		C265.6,784,271.9,790.3,279.6,790.3z"/>
	<path class="st0" d="M514.8,832.9H279.6c-7.7,0-14,6.3-14,14s6.3,14,14,14h235.2c7.7,0,14-6.3,14-14S522.5,832.9,514.8,832.9z"/>
	<path class="st0" d="M727.7,724.4c-6.6-4-15.2-1.9-19.2,4.7l-51.5,85l-22.9-31.7c-4.5-6.3-13.3-7.7-19.5-3.2
		c-6.3,4.5-7.7,13.3-3.2,19.5l35.3,48.8c2.6,3.7,6.9,5.8,11.3,5.8c0.2,0,0.4,0,0.6,0c4.7-0.2,9-2.7,11.4-6.7l62.4-103.1
		C736.4,737,734.3,728.4,727.7,724.4z"/>
</g>
</svg>
