<?xml version="1.0" encoding="utf-8"?>
<!-- Generator: Adobe Illustrator 27.0.1, SVG Export Plug-In . SVG Version: 6.00 Build 0)  -->
<svg version="1.0" id="Ebene_1" xmlns="http://www.w3.org/2000/svg" xmlns:xlink="http://www.w3.org/1999/xlink" x="0px" y="0px"
	 viewBox="0 0 1000 1000" style="enable-background:new 0 0 1000 1000;" xml:space="preserve">
<style type="text/css">
	.st0{fill:#676767;}
</style>
<g>
	<path class="st0" d="M785.2,361.7c9.6-10.1,14.8-23.3,14.5-37.3c-0.3-14-6-26.9-16.1-36.6c-10.2-9.8-23.5-14.9-37.4-14.5
		c-13.9,0.3-26.9,6.1-36.5,16.1l-44.2,46.2l-69.2-100.9c-0.4-0.6-0.9-1.2-1.2-1.6c-0.7-1.1-1.6-2.3-2.8-3.6
		c-0.6-0.6-1.1-1.1-1.5-1.4c-3.5-3.7-7.6-6.8-12.1-9.3c-7.5-4.6-15.4-7.5-23.6-8.6c-3.3-0.5-27.8-0.8-56.7-0.8
		c46.1-9.3,81.1-52.3,81.1-103.7C579.5,47.4,534.8,0,479.8,0S380,47.4,380,105.6c0,51.4,34.9,94.4,81,103.7
		c-32.5,0.1-61.8,0.4-65.4,0.9c-5.4,0.8-10.8,2.4-16.1,4.7c-12.7,3.4-23.4,11.3-30.5,22.5l-99.4,157.1c-0.8,1.2-1.3,2.3-1.6,3
		c-0.2,0.3-0.3,0.6-0.5,0.9c-1.4,2.7-2.5,5.2-3.3,7.8c-0.2,0.5-0.3,1.1-0.5,1.6c-0.7,2.5-1.3,4.9-1.6,7.4c-0.1,0.5-0.2,1-0.2,1.5
		L227,545c-3.3,28.6,17.3,54.6,45.9,57.9c2,0.2,4,0.4,6.1,0.4c11.9,0,23.1-3.9,32.4-11.3c10.9-8.7,17.8-21.1,19.4-35l13.5-116.8
		l12.3-19.5c0.1,113.9-0.6,209.7-0.8,230.5l-0.1,13.7c0,1.4,0.1,2.7,0.4,4.1v241c-4.4,8.3-14.3,26.8-20,36.5
		c-10.2,17.2-10.7,31-10.7,33.6c0,11,9,20,20,20h124.7c1.9,0,3.7-0.3,5.5-0.8c1.7,0.5,3.6,0.8,5.5,0.8h125.2c11,0,20-8.9,20-19.9
		c0-2.6-0.5-16.5-10.7-33.6c-5.8-9.7-15.6-28.2-20-36.5V620.2c0-3.5-0.3-7.1-1-10.7c-0.3-41-0.6-112.8-0.5-193.3l16.3,23.7
		c2.8,6.4,6.7,12.1,11.6,16.8c9.8,9.3,22.6,14.5,36.1,14.5c0.4,0,0.7,0,1.1,0c0,0,0.1,0,0.1,0c14-0.3,27-6,36.6-16.1L785.2,361.7z
		 M420,105.6c0-36.2,26.8-65.6,59.8-65.6s59.8,29.4,59.8,65.6c0,36.2-26.8,65.6-59.8,65.6S420,141.8,420,105.6z M658.4,431.3l-0.3,0
		c-3.2,0-6.1-1.2-8.4-3.4c-1.2-1.2-2.2-2.7-2.9-4.5c-0.6-1.5-1.3-2.9-2.2-4.2L591,341.1c-4.6-6.7-12.9-10-20.9-8.2
		c-8,1.8-14.1,8.2-15.4,16.3l-0.3,1.6c-0.2,1.1-0.3,2.1-0.3,3.2c-0.5,106,0,206.9,0.3,257.7c0,1.4,0.2,2.8,0.5,4.2
		c0.3,1.6,0.5,3,0.5,4.4v294.6c0,2.7,0.5,5.2,1.5,7.5c0.3,0.7,0.6,1.3,0.9,2c0.5,1,11.2,21.3,19.3,35.7h-76.1V665c0-11-9-20-20-20
		h-10.9c-11,0-20,9-20,20v295h-75.7c8.1-14.4,18.8-34.7,19.3-35.7c0.2-0.4,0.4-0.7,0.5-1.1c1.2-2.6,1.8-5.4,1.8-8.4V665
		c0-1.3-0.1-2.5-0.4-3.7l0.1-9.8c0.2-24.8,1.2-155.9,0.6-297.6c0-1.1-0.1-2.2-0.3-3.3l-0.3-1.6c-1.4-8.2-7.6-14.7-15.8-16.3
		c-8.1-1.6-16.4,1.9-20.9,8.9l-51.2,81c-1.6,2.5-2.6,5.4-3,8.4l-14,121.3c-0.4,3.3-2,6.1-4.6,8.2c-2.2,1.7-4.8,2.7-7.6,2.7
		c-0.5,0-1,0-1.4-0.1c-6.7-0.8-11.6-6.9-10.8-13.6L281.4,422c0.1-0.4,0.1-0.7,0.2-1.1c0.1-0.5,0.2-1.2,0.4-2c0,0,0-0.1,0-0.1
		c0-0.2,0.1-0.3,0.1-0.5c0.2-0.4,0.4-1,0.7-1.6c0.1-0.3,0.3-0.5,0.4-0.8c0.2-0.3,0.3-0.7,0.5-0.9l98.9-156.3
		c1.8-2.8,4.5-4.7,7.7-5.4c1.5-0.3,3-0.8,4.3-1.5c2.1-1,4.1-1.7,6-2c12.6-0.8,136.4-0.8,149,0c2.7,0.5,5.4,1.5,8.2,3.3
		c0.3,0.2,0.7,0.4,1,0.6c1.2,0.7,2.2,1.4,3.1,2.4c0.1,0.1,0.3,0.3,0.4,0.4c0.1,0.2,0.2,0.3,0.3,0.5c0.4,0.5,0.7,0.9,1,1.2
		l82.5,120.4c3.4,5,8.9,8.1,14.9,8.6c6,0.5,11.9-1.8,16.1-6.1l61.2-64c2.3-2.4,5.3-3.7,8.6-3.8c0.1,0,0.1,0,0.2,0
		c3.1-0.1,6.2,1.1,8.6,3.4c0,0,0,0,0,0c2.4,2.3,3.7,5.2,3.8,8.5c0.1,3.3-1.1,6.4-3.4,8.8l-89.4,93.4
		C664.6,429.9,661.7,431.2,658.4,431.3z"/>
	<path class="st0" d="M824.4,384.5c-5.5-5.4-14.4-5.3-19.8,0.2l-55.1,56c-5.4,5.5-5.3,14.4,0.2,19.8c2.7,2.7,6.3,4,9.8,4
		c3.6,0,7.2-1.4,10-4.2l55.1-56C830,398.8,829.9,389.9,824.4,384.5z"/>
	<path class="st0" d="M712.1,474.8l-16.9,17c-5.4,5.5-5.4,14.4,0.1,19.8c2.7,2.7,6.3,4.1,9.9,4.1c3.6,0,7.2-1.4,9.9-4.1l16.9-17
		c5.4-5.5,5.4-14.4-0.1-19.8C726.4,469.3,717.6,469.3,712.1,474.8z"/>
	<path class="st0" d="M230.4,618.2c-39.6-21.1-30.2-62.9-29.8-64.8c1.8-7.5-2.7-15-10.2-16.9c-7.5-1.9-15.1,2.7-17,10.2
		c-0.4,1.7-4,16.9-0.7,36c3.2,18.4,13.5,43.8,44.4,60.2c2.1,1.1,4.4,1.6,6.6,1.6c5,0,9.8-2.7,12.4-7.4
		C239.9,630.3,237.3,621.8,230.4,618.2z"/>
</g>
</svg>
