<?xml version="1.0" encoding="utf-8"?>
<!-- Generator: Adobe Illustrator 27.0.1, SVG Export Plug-In . SVG Version: 6.00 Build 0)  -->
<svg version="1.0" id="Ebene_1" xmlns="http://www.w3.org/2000/svg" xmlns:xlink="http://www.w3.org/1999/xlink" x="0px" y="0px"
	 viewBox="0 0 1000 1000" style="enable-background:new 0 0 1000 1000;" xml:space="preserve">
<style type="text/css">
	.st0{fill:#676767;}
</style>
<g>
	<path class="st0" d="M980,480h-28c-4.5-47.6-25.3-91.7-59.5-125.9c-39-39-90.8-60.4-145.9-60.4s-106.9,21.5-145.9,60.4
		c-27.8,27.8-46.7,62.1-55.2,99.5c-28.6-13.7-62.3-13.2-90.6,1.4c-8.4-37.9-27.4-72.8-55.5-100.9c-39-39-90.8-60.4-145.9-60.4
		s-106.9,21.5-145.9,60.4C73.3,388.3,52.6,432.4,48,480H20c-11,0-20,9-20,20c0,11,9,20,20,20h28c4.5,47.6,25.3,91.7,59.5,125.9
		c39,39,90.8,60.4,145.9,60.4c55.1,0,106.9-21.5,145.9-60.4c39-39,60.4-90.8,60.4-145.8c22.5-20.9,57-21.9,80.5-2.7
		c0,0.9,0,1.8,0,2.7c0,55.1,21.5,106.9,60.4,145.9c39,39,90.8,60.4,145.9,60.4s106.9-21.5,145.9-60.4
		c34.2-34.2,54.9-78.3,59.5-125.9h28c11,0,20-9,20-20C1000,489,991,480,980,480z M253.4,666.3c-91.7,0-166.3-74.6-166.3-166.3
		c0-91.7,74.6-166.3,166.3-166.3S419.8,408.3,419.8,500C419.8,591.7,345.1,666.3,253.4,666.3z M746.6,666.3
		c-91.7,0-166.3-74.6-166.3-166.3c0-91.7,74.6-166.3,166.3-166.3c91.7,0,166.3,74.6,166.3,166.3
		C912.9,591.7,838.3,666.3,746.6,666.3z"/>
	<path class="st0" d="M765.8,391.7c-6.3,4.4-7.9,13.1-3.5,19.5l88.9,127.5c2.7,3.9,7.1,6,11.5,6c2.8,0,5.6-0.8,8-2.5
		c6.3-4.4,7.9-13.1,3.5-19.5l-88.9-127.5C780.8,388.9,772.1,387.3,765.8,391.7z"/>
	<path class="st0" d="M759.5,454.9c-4.4-6.3-13.1-7.9-19.5-3.5s-7.9,13.1-3.5,19.5l46.7,67c2.7,3.9,7.1,6,11.5,6
		c2.8,0,5.6-0.8,8-2.5c6.3-4.4,7.9-13.1,3.5-19.5L759.5,454.9z"/>
</g>
</svg>
