<?xml version="1.0" encoding="utf-8"?>
<!-- Generator: Adobe Illustrator 27.0.1, SVG Export Plug-In . SVG Version: 6.00 Build 0)  -->
<svg version="1.0" id="Ebene_1" xmlns="http://www.w3.org/2000/svg" xmlns:xlink="http://www.w3.org/1999/xlink" x="0px" y="0px"
	 viewBox="0 0 1000 1000" style="enable-background:new 0 0 1000 1000;" xml:space="preserve">
<style type="text/css">
	.st0{fill:#676767;}
</style>
<path class="st0" d="M672.9,707.8c2.2-3.2,3.6-7.2,3.6-11.4V20c0-11-9-20-20-20c-11,0-20,9-20,20v669L499.1,812.8L356.9,684.6
	c-8.2-7.4-20.9-6.7-28.2,1.5c-7.4,8.2-6.7,20.9,1.5,28.2l139.1,125.4L330.2,965.1c-8.2,7.4-8.9,20-1.5,28.2
	c3.9,4.4,9.4,6.6,14.9,6.6c4.8,0,9.6-1.7,13.4-5.1l142.2-128.2l142.2,128.2c3.8,3.4,8.6,5.1,13.4,5.1c5.5,0,10.9-2.2,14.9-6.6
	c7.4-8.2,6.7-20.9-1.5-28.2L529,839.8l139.1-125.4C670.2,712.5,671.8,710.2,672.9,707.8z"/>
</svg>
