<?xml version="1.0" encoding="UTF-8" standalone="no"?>
<!-- Generator: Adobe Illustrator 26.0.1, SVG Export Plug-In . SVG Version: 6.00 Build 0)  -->

<svg
   version="1.1"
   x="0px"
   y="0px"
   viewBox="0 0 1000 1000"
   style="enable-background:new 0 0 1000 1000;"
   xml:space="preserve"
   xmlns="http://www.w3.org/2000/svg"
   xmlns:svg="http://www.w3.org/2000/svg">
<style
   type="text/css"
   id="style824">
	.st0{fill:#F2F2F2;stroke:#666666;stroke-width:40;stroke-linecap:round;stroke-linejoin:round;stroke-miterlimit:10;}
	.st1{fill:#F2F2F2;stroke:#666666;stroke-width:39.8038;stroke-linecap:round;stroke-linejoin:round;stroke-miterlimit:10;}
	.st2{fill:none;stroke:#666666;stroke-width:39.8038;stroke-linecap:round;stroke-linejoin:round;stroke-miterlimit:10;}
	.st3{fill:none;stroke:#666666;stroke-width:68.0372;stroke-linecap:round;stroke-linejoin:round;stroke-miterlimit:10;}
	.st4{fill:#666666;}
	.st5{fill:none;stroke:#666666;stroke-width:40;stroke-linecap:round;stroke-linejoin:round;stroke-miterlimit:10;}
	.st6{fill:none;stroke:#666666;stroke-width:90;stroke-linecap:round;stroke-linejoin:round;stroke-miterlimit:10;}
	.st7{fill:#F2F2F2;}
	.st8{fill:none;stroke:#666666;stroke-width:98.74;stroke-linecap:round;stroke-linejoin:round;stroke-miterlimit:10;}
	.st9{fill:#F2F2F2;stroke:#666666;stroke-width:28;stroke-linecap:round;stroke-linejoin:round;stroke-miterlimit:10;}
</style>

<g
   id="g832"
   transform="matrix(0.59198121,0,0,0.59198121,17.356779,-8.983741)"><path
     class="st0"
     d="m 940.76,866.84 c -293.84,0 -587.68,0 -881.52,0 -15.570127,-18.92804 -3.203466,-53.11076 -7.16,-78.24498 0,-202.89834 0,-405.79668 0,-608.69502 18.928037,-15.57013 53.11076,-3.20347 78.24498,-7.16 270.14834,0 540.29668,0 810.44502,0 15.57013,18.92804 3.20347,53.11076 7.16,78.24498 0,202.89834 0,405.79668 0,608.69502 l -2.10375,5.065 z"
     id="path826"
     style="stroke-width:59.1235;stroke-miterlimit:10;stroke-dasharray:none" /><ellipse
     class="st4"
     cx="405.82999"
     cy="410.28"
     rx="84.830002"
     ry="85.059998"
     id="ellipse828" /><path
     class="st4"
     d="M 938.1,854.05 C 852.99118,724.92019 771.00774,593.45445 683.93979,465.78891 641.35198,431.24449 609.52012,483.75859 590.89113,516.3994 540.66075,593.66626 490.43038,670.93313 440.2,748.2 399.95042,710.37388 365.33529,665.35674 321.17531,632.50437 273.05465,616.5106 248.10924,671.24602 216.56915,696.73769 165.0661,749.17513 113.56305,801.61256 62.06,854.05 c 292.01333,0 584.02667,0 876.04,0 z"
     id="path830" /></g><path
   style="fill:none;stroke:#666666;stroke-width:40;stroke-linecap:round;stroke-linejoin:miter;stroke-miterlimit:4;stroke-dasharray:none;stroke-opacity:1"
   d="m 655.56437,99.43322 c 92.69934,0 185.39869,0 278.09803,0"
   id="path2589" /><path
   style="fill:none;stroke:#666666;stroke-width:40;stroke-linecap:round;stroke-linejoin:miter;stroke-miterlimit:4;stroke-dasharray:none;stroke-opacity:1"
   d="m 657.5125,230.47069 c 92.69933,0 185.39867,0 278.098,0"
   id="path2589-6" /><path
   style="fill:none;stroke:#666666;stroke-width:40;stroke-linecap:round;stroke-linejoin:miter;stroke-miterlimit:4;stroke-dasharray:none;stroke-opacity:1"
   d="m 655.53555,358.73582 c 92.69932,0 185.39863,0 278.09795,0"
   id="path2589-6-7" /><path
   style="fill:none;stroke:#666666;stroke-width:40;stroke-linecap:round;stroke-linejoin:miter;stroke-miterlimit:4;stroke-dasharray:none;stroke-opacity:1"
   d="m 656.18113,491.85397 c 92.69932,0 185.39865,0 278.09797,0"
   id="path2589-6-7-4" /><path
   style="fill:none;stroke:#666666;stroke-width:40;stroke-linecap:round;stroke-linejoin:miter;stroke-miterlimit:4;stroke-dasharray:none;stroke-opacity:1"
   d="m 57.36121,620.21191 c 292.1004,0 584.20079,0 876.30119,0"
   id="path4394" /><path
   style="fill:none;stroke:#666666;stroke-width:40;stroke-linecap:round;stroke-linejoin:miter;stroke-miterlimit:4;stroke-dasharray:none;stroke-opacity:1"
   d="m 57.36121,748.44597 c 292.1004,0 584.20079,0 876.30119,0"
   id="path4394-1" /><path
   style="fill:none;stroke:#666666;stroke-width:40;stroke-linecap:round;stroke-linejoin:miter;stroke-miterlimit:4;stroke-dasharray:none;stroke-opacity:1"
   d="m 57.36116,878.18482 c 292.10041,0 584.20083,0 876.30124,0"
   id="path4394-1-1" /></svg>
