<?xml version="1.0" encoding="utf-8"?>
<!-- Generator: Adobe Illustrator 27.0.1, SVG Export Plug-In . SVG Version: 6.00 Build 0)  -->
<svg version="1.1" id="Ebene_1" xmlns="http://www.w3.org/2000/svg" xmlns:xlink="http://www.w3.org/1999/xlink" x="0px" y="0px"
	 viewBox="0 0 1000 1000" style="enable-background:new 0 0 1000 1000;" xml:space="preserve">
<style type="text/css">
	.st0{fill:#F2F2F2;stroke:#666666;stroke-width:40;stroke-linecap:round;stroke-linejoin:round;stroke-miterlimit:10;}
	.st1{fill:#F2F2F2;stroke:#666666;stroke-width:39.8038;stroke-linecap:round;stroke-linejoin:round;stroke-miterlimit:10;}
	.st2{fill:none;stroke:#666666;stroke-width:39.8038;stroke-linecap:round;stroke-linejoin:round;stroke-miterlimit:10;}
	.st3{fill:none;stroke:#666666;stroke-width:68.0372;stroke-linecap:round;stroke-linejoin:round;stroke-miterlimit:10;}
	.st4{fill:#666666;}
	.st5{fill:none;stroke:#666666;stroke-width:40;stroke-linecap:round;stroke-linejoin:round;stroke-miterlimit:10;}
	.st6{fill:#F2F2F2;}
	.st7{fill:none;stroke:#666666;stroke-width:98.74;stroke-linecap:round;stroke-linejoin:round;stroke-miterlimit:10;}
	.st8{fill:none;stroke:#666666;stroke-width:90;stroke-linecap:round;stroke-linejoin:round;stroke-miterlimit:10;}
	.st9{fill:#F2F2F2;stroke:#666666;stroke-width:28;stroke-linecap:round;stroke-linejoin:round;stroke-miterlimit:10;}
	.st10{fill:#FFFFFF;}
	.st11{fill:#FFFFFF;stroke:#2F2D7E;stroke-width:40;stroke-linecap:round;stroke-linejoin:round;stroke-miterlimit:10;}
	.st12{fill:none;stroke:#2F2D7E;stroke-width:40;stroke-linecap:round;stroke-linejoin:round;stroke-miterlimit:10;}
	.st13{fill:#FFFFFF;stroke:#2F2D7E;stroke-width:30;stroke-linecap:round;stroke-linejoin:round;stroke-miterlimit:10;}
	.st14{fill:none;stroke:#808080;stroke-width:40;stroke-linecap:round;stroke-linejoin:round;stroke-miterlimit:10;}
	.st15{fill:none;stroke:#808080;stroke-width:110;stroke-linecap:round;stroke-linejoin:round;stroke-miterlimit:10;}
	.st16{clip-path:url(#SVGID_00000003065665591323417750000014888478934517585038_);}
	.st17{fill:#EAA58D;}
	.st18{fill:none;stroke:#808080;stroke-width:70;stroke-linecap:round;stroke-linejoin:round;stroke-miterlimit:10;}
	.st19{fill:none;stroke:#CCCCCC;stroke-width:119.9441;stroke-linecap:round;stroke-linejoin:round;stroke-miterlimit:10;}
	.st20{fill:none;stroke:#666666;stroke-width:59.9664;stroke-linecap:round;stroke-miterlimit:10;}
	.st21{fill:none;stroke:#666666;stroke-width:58.1416;stroke-linecap:round;stroke-miterlimit:10;}
	.st22{fill:none;stroke:#666666;stroke-width:56.47;stroke-miterlimit:10;}
	.st23{fill:none;stroke:#666666;stroke-width:56.47;stroke-linecap:round;stroke-miterlimit:10;}
	.st24{fill:none;stroke:#666666;stroke-width:59.3407;stroke-linecap:round;stroke-miterlimit:10;}
	.st25{fill:none;stroke:#666666;stroke-width:98.0992;stroke-linecap:round;stroke-miterlimit:10;}
	.st26{fill:none;stroke:#666666;stroke-width:61.312;stroke-linecap:round;stroke-miterlimit:10;}
	.st27{fill:none;stroke:#666666;stroke-width:61.312;stroke-linejoin:bevel;stroke-miterlimit:10;}
	.st28{fill:none;stroke:#666666;stroke-width:50;stroke-linecap:round;stroke-miterlimit:10;}
	.st29{fill:none;stroke:#666666;stroke-width:50;stroke-linejoin:bevel;stroke-miterlimit:10;}
	.st30{fill:none;stroke:#666666;stroke-width:40.5198;stroke-linecap:round;stroke-miterlimit:10;}
	.st31{fill:none;stroke:#666666;stroke-width:26.4282;stroke-linecap:round;stroke-miterlimit:10;}
	.st32{fill:none;stroke:#666666;stroke-width:41.6027;stroke-linecap:round;stroke-miterlimit:10;}
	.st33{fill:none;stroke:#666666;stroke-width:125.3478;stroke-linecap:square;stroke-linejoin:round;stroke-miterlimit:10;}
	.st34{fill:none;stroke:#666666;stroke-width:40.4771;stroke-linecap:round;stroke-miterlimit:10;}
	.st35{fill:none;stroke:#666666;stroke-width:47.5393;stroke-linecap:round;stroke-miterlimit:10;}
	.st36{fill:none;stroke:#666666;stroke-width:81.1986;stroke-linecap:round;stroke-miterlimit:10;}
	.st37{fill:#FFFFFF;stroke:#666666;stroke-width:47.5393;stroke-linecap:round;stroke-miterlimit:10;}
	.st38{fill:none;stroke:#666666;stroke-width:38.9985;stroke-linecap:round;stroke-linejoin:round;stroke-miterlimit:10;}
	.st39{fill:none;stroke:#666666;stroke-width:25.999;stroke-linecap:round;stroke-linejoin:round;stroke-miterlimit:10;}
	.st40{fill:none;stroke:#666666;stroke-width:38.9985;stroke-linecap:round;stroke-miterlimit:10;}
	.st41{fill:#F2F2F2;stroke:#666666;stroke-width:33.614;stroke-linecap:round;stroke-linejoin:round;stroke-miterlimit:10;}
	.st42{fill:none;stroke:#666666;stroke-width:39.662;stroke-linecap:round;stroke-linejoin:round;stroke-miterlimit:10;}
	.st43{fill:none;stroke:#666666;stroke-width:54.6198;stroke-linecap:round;stroke-linejoin:round;stroke-miterlimit:10;}
	.st44{fill:#F2F2F2;stroke:#666666;stroke-width:39.662;stroke-linecap:round;stroke-linejoin:round;stroke-miterlimit:10;}
	.st45{fill:none;stroke:#666666;stroke-width:38.5513;stroke-linecap:round;stroke-linejoin:round;stroke-miterlimit:10;}
	.st46{fill:none;stroke:#666666;stroke-width:38.5513;stroke-linejoin:round;stroke-miterlimit:10;}
	.st47{fill:none;stroke:#666666;stroke-width:30.4797;stroke-linecap:round;stroke-linejoin:round;stroke-miterlimit:10;}
	.st48{fill:#F2F2F2;stroke:#666666;stroke-width:41.2099;stroke-linecap:round;stroke-linejoin:round;stroke-miterlimit:10;}
	.st49{fill:#F2F2F2;stroke:#666666;stroke-width:42.1309;stroke-linecap:round;stroke-linejoin:round;stroke-miterlimit:10;}
	.st50{fill:#F2F2F2;stroke:#666666;stroke-width:25.885;stroke-linecap:round;stroke-linejoin:round;stroke-miterlimit:10;}
	.st51{fill:#F2F2F2;stroke:#666666;stroke-width:22.5087;stroke-linecap:round;stroke-linejoin:round;stroke-miterlimit:10;}
	.st52{fill:#F2F2F2;stroke:#666666;stroke-width:26.519;stroke-linecap:round;stroke-linejoin:round;stroke-miterlimit:10;}
	.st53{fill:#F2F2F2;stroke:#666666;stroke-width:26.519;stroke-linejoin:round;stroke-miterlimit:10;}
	.st54{fill:#F2F2F2;stroke:#666666;stroke-width:38.2424;stroke-linecap:round;stroke-linejoin:round;stroke-miterlimit:10;}
	.st55{fill:#F2F2F2;stroke:#666666;stroke-width:38;stroke-linecap:round;stroke-linejoin:round;stroke-miterlimit:10;}
	.st56{fill:none;stroke:#666666;stroke-width:33.2105;stroke-linecap:round;stroke-linejoin:round;stroke-miterlimit:10;}
	.st57{fill:#CCCCCC;}
	.st58{fill:#F2F2F2;stroke:#666666;stroke-width:23.728;stroke-linecap:round;stroke-linejoin:round;stroke-miterlimit:10;}
	.st59{fill:none;stroke:#666666;stroke-width:23.728;stroke-linejoin:round;stroke-miterlimit:10;}
	.st60{fill:none;stroke:#808080;stroke-width:40.6378;stroke-linecap:round;stroke-linejoin:round;stroke-miterlimit:10;}
	.st61{fill:#808080;}
	.st62{fill:#F2F2F2;stroke:#666666;stroke-width:29.6069;stroke-linecap:round;stroke-linejoin:round;stroke-miterlimit:10;}
	.st63{fill:none;stroke:#666666;stroke-width:41.8409;stroke-linecap:round;stroke-linejoin:round;stroke-miterlimit:10;}
	.st64{fill:#F2F2F2;stroke:#666666;stroke-width:54.6161;stroke-linecap:round;stroke-linejoin:round;stroke-miterlimit:10;}
	.st65{fill:none;stroke:#666666;stroke-width:61.4772;stroke-linecap:round;stroke-miterlimit:10;}
	.st66{fill:none;stroke:#666666;stroke-width:61.4772;stroke-linecap:square;stroke-miterlimit:10;}
	.st67{fill:none;stroke:#666666;stroke-width:61.4772;stroke-linejoin:bevel;stroke-miterlimit:10;}
	.st68{fill:none;stroke:#666666;stroke-width:61.31;stroke-miterlimit:10;}
	.st69{fill:none;stroke:#666666;stroke-width:61.31;stroke-linejoin:bevel;stroke-miterlimit:10;}
	.st70{fill:none;stroke:#666666;stroke-width:112.3337;stroke-linecap:round;stroke-linejoin:round;stroke-miterlimit:10;}
	.st71{fill:none;stroke:#666666;stroke-width:38.7142;stroke-linecap:round;stroke-linejoin:round;stroke-miterlimit:10;}
	.st72{fill:#F2F2F2;stroke:#666666;stroke-width:29.6809;stroke-linecap:round;stroke-linejoin:round;stroke-miterlimit:10;}
	.st73{fill:none;stroke:#666666;stroke-width:61.0049;stroke-linecap:round;stroke-linejoin:round;stroke-miterlimit:10;}
	.st74{fill:none;stroke:#666666;stroke-width:34.8599;stroke-linecap:round;stroke-linejoin:round;stroke-miterlimit:10;}
	.st75{fill:#F2F2F2;stroke:#666666;stroke-width:40.0014;stroke-linecap:round;stroke-linejoin:round;stroke-miterlimit:10;}
	.st76{fill:none;stroke:#666666;stroke-width:40.0014;stroke-linecap:round;stroke-linejoin:round;stroke-miterlimit:10;}
	.st77{fill:#F2F2F2;stroke:#666666;stroke-width:41.4993;stroke-linecap:round;stroke-linejoin:round;stroke-miterlimit:10;}
	.st78{fill:#F2F2F2;stroke:#666666;stroke-width:41.5214;stroke-linecap:round;stroke-linejoin:round;stroke-miterlimit:10;}
</style>
<g>
	<g>
		<path class="st4" d="M971.01,288.77H298.94c-15.3,0-27.7-12.4-27.7-27.7s12.4-27.7,27.7-27.7h672.07c15.3,0,27.7,12.4,27.7,27.7
			S986.31,288.77,971.01,288.77z"/>
	</g>
	<g>
		<path class="st4" d="M971.01,546.37H298.94c-15.3,0-27.7-12.4-27.7-27.7c0-15.3,12.4-27.7,27.7-27.7h672.07
			c15.3,0,27.7,12.4,27.7,27.7C998.71,533.97,986.31,546.37,971.01,546.37z"/>
	</g>
	<g>
		<rect x="40.11" y="202.37" class="st6" width="138.5" height="138.5"/>
	</g>
	<g>
		<rect x="23.82" y="431.68" class="st6" width="171.08" height="171.08"/>
		<path class="st4" d="M194.9,619.04H23.82c-8.99,0-16.28-7.29-16.28-16.28V431.68c0-8.99,7.29-16.28,16.28-16.28H194.9
			c8.99,0,16.28,7.29,16.28,16.28v171.08C211.18,611.75,203.89,619.04,194.9,619.04z M40.1,586.48h138.52V447.96H40.1V586.48z"/>
	</g>
	<g>
		<path class="st4" d="M971.01,792.24H298.94c-15.3,0-27.7-12.4-27.7-27.7s12.4-27.7,27.7-27.7h672.07c15.3,0,27.7,12.4,27.7,27.7
			S986.31,792.24,971.01,792.24z"/>
	</g>
	<g>
		<rect x="23.82" y="677.55" class="st6" width="171.08" height="171.08"/>
		<path class="st4" d="M194.9,864.91H23.82c-8.99,0-16.28-7.29-16.28-16.28V677.55c0-8.99,7.29-16.28,16.28-16.28H194.9
			c8.99,0,16.28,7.29,16.28,16.28v171.08C211.18,857.62,203.89,864.91,194.9,864.91z M40.1,832.35h138.52V693.83H40.1V832.35z"/>
	</g>
	<g>
		<g>
			<path class="st4" d="M178.61,276.64v64.22H40.11v-138.5h116.56l28.93-32.58H23.82c-8.99,0-16.29,7.3-16.29,16.29v171.08
				c0,8.99,7.3,16.29,16.29,16.29H194.9c8.99,0,16.29-7.3,16.29-16.29V239.96L178.61,276.64z"/>
		</g>
		<g>
			<path class="st4" d="M211.18,218.64v-32.56c0-6.16-3.56-11.33-8.6-14.1l-26.98,30.39h3.01v52.96L211.18,218.64z"/>
		</g>
	</g>
	<g>
		<path class="st4" d="M229.29,151.37c-5.15,0-10.29,2.12-13.99,6.29L113.46,272.35L86.3,245.18c-3.65-3.65-8.44-5.48-13.23-5.48
			c-4.79,0-9.57,1.83-13.23,5.48c-7.3,7.3-7.3,19.15,0,26.46l41.2,41.19c3.51,3.51,8.28,5.48,13.23,5.48c0.19,0,0.37-0.01,0.56-0.01
			c5.14-0.16,10-2.42,13.44-6.27L243.28,182.5c6.84-7.72,6.15-19.55-1.57-26.41C238.15,152.93,233.72,151.37,229.29,151.37z"/>
	</g>
</g>
</svg>
