<?xml version="1.0" encoding="utf-8"?>
<!-- Generator: Adobe Illustrator 27.0.0, SVG Export Plug-In . SVG Version: 6.00 Build 0)  -->
<svg version="1.1" id="Ebene_1" xmlns="http://www.w3.org/2000/svg" xmlns:xlink="http://www.w3.org/1999/xlink" x="0px" y="0px"
	 width="1000px" height="1000px" viewBox="0 0 1000 1000" style="enable-background:new 0 0 1000 1000;" xml:space="preserve">
<style type="text/css">
	.st0{fill:#F2F2F2;stroke:#666666;stroke-width:40;stroke-linecap:round;stroke-linejoin:round;stroke-miterlimit:10;}
	.st1{fill:#F2F2F2;stroke:#666666;stroke-width:39.8038;stroke-linecap:round;stroke-linejoin:round;stroke-miterlimit:10;}
	.st2{fill:none;stroke:#666666;stroke-width:39.8038;stroke-linecap:round;stroke-linejoin:round;stroke-miterlimit:10;}
	.st3{fill:none;stroke:#666666;stroke-width:68.0372;stroke-linecap:round;stroke-linejoin:round;stroke-miterlimit:10;}
	.st4{fill:#666666;}
	.st5{fill:none;stroke:#666666;stroke-width:40;stroke-linecap:round;stroke-linejoin:round;stroke-miterlimit:10;}
	.st6{fill:#F2F2F2;}
	.st7{fill:none;stroke:#666666;stroke-width:98.74;stroke-linecap:round;stroke-linejoin:round;stroke-miterlimit:10;}
	.st8{fill:none;stroke:#666666;stroke-width:90;stroke-linecap:round;stroke-linejoin:round;stroke-miterlimit:10;}
	.st9{fill:#F2F2F2;stroke:#666666;stroke-width:28;stroke-linecap:round;stroke-linejoin:round;stroke-miterlimit:10;}
	.st10{fill:#FFFFFF;}
	.st11{fill:#FFFFFF;stroke:#2F2D7E;stroke-width:40;stroke-linecap:round;stroke-linejoin:round;stroke-miterlimit:10;}
	.st12{fill:none;stroke:#2F2D7E;stroke-width:40;stroke-linecap:round;stroke-linejoin:round;stroke-miterlimit:10;}
	.st13{fill:#FFFFFF;stroke:#2F2D7E;stroke-width:30;stroke-linecap:round;stroke-linejoin:round;stroke-miterlimit:10;}
	.st14{fill:none;stroke:#808080;stroke-width:40;stroke-linecap:round;stroke-linejoin:round;stroke-miterlimit:10;}
	.st15{fill:none;stroke:#808080;stroke-width:110;stroke-linecap:round;stroke-linejoin:round;stroke-miterlimit:10;}
	.st16{clip-path:url(#SVGID_00000116916786072102499280000006495768155536967583_);}
	.st17{fill:#EAA58D;}
	.st18{fill:none;stroke:#808080;stroke-width:70;stroke-linecap:round;stroke-linejoin:round;stroke-miterlimit:10;}
	.st19{fill:none;stroke:#CCCCCC;stroke-width:119.9441;stroke-linecap:round;stroke-linejoin:round;stroke-miterlimit:10;}
	.st20{fill:none;stroke:#666666;stroke-width:59.9664;stroke-linecap:round;stroke-miterlimit:10;}
	.st21{fill:none;stroke:#666666;stroke-width:58.1416;stroke-linecap:round;stroke-miterlimit:10;}
	.st22{fill:none;stroke:#666666;stroke-width:56.47;stroke-miterlimit:10;}
	.st23{fill:none;stroke:#666666;stroke-width:56.47;stroke-linecap:round;stroke-miterlimit:10;}
	.st24{fill:none;stroke:#666666;stroke-width:59.3407;stroke-linecap:round;stroke-miterlimit:10;}
	.st25{fill:none;stroke:#666666;stroke-width:98.0992;stroke-linecap:round;stroke-miterlimit:10;}
	.st26{fill:none;stroke:#666666;stroke-width:61.312;stroke-linecap:round;stroke-miterlimit:10;}
	.st27{fill:none;stroke:#666666;stroke-width:61.312;stroke-linejoin:bevel;stroke-miterlimit:10;}
	.st28{fill:none;stroke:#666666;stroke-width:50;stroke-linecap:round;stroke-miterlimit:10;}
	.st29{fill:none;stroke:#666666;stroke-width:50;stroke-linejoin:bevel;stroke-miterlimit:10;}
	.st30{fill:none;stroke:#666666;stroke-width:40.5198;stroke-linecap:round;stroke-miterlimit:10;}
	.st31{fill:none;stroke:#666666;stroke-width:26.4282;stroke-linecap:round;stroke-miterlimit:10;}
	.st32{fill:none;stroke:#666666;stroke-width:41.6027;stroke-linecap:round;stroke-miterlimit:10;}
	.st33{fill:none;stroke:#666666;stroke-width:125.3478;stroke-linecap:square;stroke-linejoin:round;stroke-miterlimit:10;}
	.st34{fill:none;stroke:#666666;stroke-width:40.4771;stroke-linecap:round;stroke-miterlimit:10;}
	.st35{fill:none;stroke:#666666;stroke-width:47.5393;stroke-linecap:round;stroke-miterlimit:10;}
	.st36{fill:none;stroke:#666666;stroke-width:81.1986;stroke-linecap:round;stroke-miterlimit:10;}
	.st37{fill:#FFFFFF;stroke:#666666;stroke-width:47.5393;stroke-linecap:round;stroke-miterlimit:10;}
	.st38{fill:none;stroke:#666666;stroke-width:38.9985;stroke-linecap:round;stroke-linejoin:round;stroke-miterlimit:10;}
	.st39{fill:none;stroke:#666666;stroke-width:25.999;stroke-linecap:round;stroke-linejoin:round;stroke-miterlimit:10;}
	.st40{fill:none;stroke:#666666;stroke-width:38.9985;stroke-linecap:round;stroke-miterlimit:10;}
	.st41{fill:#F2F2F2;stroke:#666666;stroke-width:33.614;stroke-linecap:round;stroke-linejoin:round;stroke-miterlimit:10;}
	.st42{fill:none;stroke:#666666;stroke-width:39.662;stroke-linecap:round;stroke-linejoin:round;stroke-miterlimit:10;}
	.st43{fill:none;stroke:#666666;stroke-width:54.6198;stroke-linecap:round;stroke-linejoin:round;stroke-miterlimit:10;}
	.st44{fill:#F2F2F2;stroke:#666666;stroke-width:39.662;stroke-linecap:round;stroke-linejoin:round;stroke-miterlimit:10;}
	.st45{fill:none;stroke:#666666;stroke-width:38.5513;stroke-linecap:round;stroke-linejoin:round;stroke-miterlimit:10;}
	.st46{fill:none;stroke:#666666;stroke-width:38.5513;stroke-linejoin:round;stroke-miterlimit:10;}
	.st47{fill:none;stroke:#666666;stroke-width:30.4797;stroke-linecap:round;stroke-linejoin:round;stroke-miterlimit:10;}
	.st48{fill:#F2F2F2;stroke:#666666;stroke-width:41.2099;stroke-linecap:round;stroke-linejoin:round;stroke-miterlimit:10;}
	.st49{fill:#F2F2F2;stroke:#666666;stroke-width:42.1309;stroke-linecap:round;stroke-linejoin:round;stroke-miterlimit:10;}
	.st50{fill:#F2F2F2;stroke:#666666;stroke-width:25.885;stroke-linecap:round;stroke-linejoin:round;stroke-miterlimit:10;}
	.st51{fill:#F2F2F2;stroke:#666666;stroke-width:22.5087;stroke-linecap:round;stroke-linejoin:round;stroke-miterlimit:10;}
	.st52{fill:#F2F2F2;stroke:#666666;stroke-width:26.519;stroke-linecap:round;stroke-linejoin:round;stroke-miterlimit:10;}
	.st53{fill:#F2F2F2;stroke:#666666;stroke-width:26.519;stroke-linejoin:round;stroke-miterlimit:10;}
	.st54{fill:#F2F2F2;stroke:#666666;stroke-width:38.2424;stroke-linecap:round;stroke-linejoin:round;stroke-miterlimit:10;}
	.st55{fill:#F2F2F2;stroke:#666666;stroke-width:38;stroke-linecap:round;stroke-linejoin:round;stroke-miterlimit:10;}
	.st56{fill:none;stroke:#666666;stroke-width:33.2105;stroke-linecap:round;stroke-linejoin:round;stroke-miterlimit:10;}
	.st57{fill:#CCCCCC;}
	.st58{fill:#F2F2F2;stroke:#666666;stroke-width:23.728;stroke-linecap:round;stroke-linejoin:round;stroke-miterlimit:10;}
	.st59{fill:none;stroke:#666666;stroke-width:23.728;stroke-linejoin:round;stroke-miterlimit:10;}
	.st60{fill:none;stroke:#808080;stroke-width:40.6378;stroke-linecap:round;stroke-linejoin:round;stroke-miterlimit:10;}
	.st61{fill:#808080;}
	.st62{fill:#F2F2F2;stroke:#666666;stroke-width:29.6069;stroke-linecap:round;stroke-linejoin:round;stroke-miterlimit:10;}
	.st63{fill:none;stroke:#666666;stroke-width:41.8409;stroke-linecap:round;stroke-linejoin:round;stroke-miterlimit:10;}
</style>
<g>
	<path class="st62" d="M973.72,875.45H26.28c-3.95,0-7.16-3.21-7.16-7.16V131.71c0-3.95,3.21-7.16,7.16-7.16h947.43
		c3.95,0,7.16,3.21,7.16,7.16v736.58C980.88,872.25,977.67,875.45,973.72,875.45z"/>
	<line class="st63" x1="330.98" y1="296.56" x2="809.73" y2="296.56"/>
	<line class="st63" x1="330.98" y1="492.43" x2="809.73" y2="492.43"/>
	<line class="st63" x1="330.98" y1="688.29" x2="809.73" y2="688.29"/>
	<path class="st4" d="M220.72,229.26h-0.38c-1.81,0-4.66,0.32-8.01,1.87l-32.13,15.3c-3.1,1.43-5.46,4.08-6.65,7.45
		c-1.29,3.68-1.01,7.83,0.75,11.4c3.18,6.78,11.54,10.01,18.31,7.05l3.75-1.58v78.43c0,8.34,8.05,15.93,16.89,15.93
		c9.16,0,16.89-7.3,16.89-15.93V238.68C230.14,233.48,225.91,229.26,220.72,229.26z"/>
	<path class="st4" d="M236.91,527.15h-23.39l23.4-27.04c9.3-11.25,14.01-22.7,14.01-34.01c0-23.71-19.12-41.6-44.47-41.6
		c-21.41,0-37.68,11.39-44.65,31.25l-0.04,0.11c-1.43,4.52-1.07,9.14,1.02,13.01c1.9,3.51,5.03,6.04,8.82,7.1
		c9.93,2.84,17.56-3.11,20.45-9.86c2.41-5.78,6.98-8.96,12.87-8.96c7.31,0,12.22,3.6,12.22,8.96c0,3.9-3.19,8.48-5.93,11.98
		l-45.54,56.45c-3.02,3.55-4.83,8.17-4.83,12.38c0,7.35,4.98,12.49,12.1,12.49h63.96c8.08,0,15.17-7.54,15.17-16.13
		C252.07,534.53,245.13,527.15,236.91,527.15z"/>
	<path class="st4" d="M233.72,682.52c7.88-6.26,12.58-15.03,12.6-23.96c0.62-20.52-17.14-37.55-40.44-38.77
		c-13.7-0.78-26.94,3.89-36.31,12.83c-5.98,5.72-6.39,15.21-0.87,21.21c6.2,6.45,13.32,6.74,22.45,0.87
		c2.87-1.91,6.73-3.05,10.32-3.05c7.52,0,9.15,6.88,9.15,8.58l0,0.23c0.05,1.52-0.07,5.31-2.36,7.67c-1.43,1.48-3.53,2.2-6.42,2.2
		h-4.98c-7.44,0-14.21,7.14-14.21,14.98c0,8.12,6.51,14.98,14.21,14.98h6.13c4.42,0,7.7,1.12,9.73,3.33
		c2.92,3.17,2.81,7.99,2.69,9.49c-0.57,4.53-6.42,10.75-14.4,10.27c-4.46-0.17-10-2.38-13.76-5.49c-8.35-7.12-17.92-4.92-23.05,0.9
		c-6.01,6.74-4.59,16.73,0.46,21.77c9,9.42,20.73,14.83,33.88,15.62c1.33,0.09,2.64,0.14,3.95,0.14c25.34,0,47-16.81,49.17-38.94
		C252.84,703.74,245.25,689.55,233.72,682.52z"/>
</g>
</svg>
