<?xml version="1.0" encoding="utf-8"?>
<!-- Generator: Adobe Illustrator 26.0.1, SVG Export Plug-In . SVG Version: 6.00 Build 0)  -->
<svg version="1.1" id="Ebene_1" xmlns="http://www.w3.org/2000/svg" xmlns:xlink="http://www.w3.org/1999/xlink" x="0px" y="0px"
	 viewBox="0 0 1000 1000" style="enable-background:new 0 0 1000 1000;" xml:space="preserve">
<style type="text/css">
	.st0{fill:#F2F2F2;stroke:#666666;stroke-width:40;stroke-linecap:round;stroke-linejoin:round;stroke-miterlimit:10;}
	.st1{fill:#F2F2F2;stroke:#666666;stroke-width:39.8038;stroke-linecap:round;stroke-linejoin:round;stroke-miterlimit:10;}
	.st2{fill:none;stroke:#666666;stroke-width:39.8038;stroke-linecap:round;stroke-linejoin:round;stroke-miterlimit:10;}
	.st3{fill:none;stroke:#666666;stroke-width:68.0372;stroke-linecap:round;stroke-linejoin:round;stroke-miterlimit:10;}
	.st4{fill:#666666;}
	.st5{fill:none;stroke:#666666;stroke-width:40;stroke-linecap:round;stroke-linejoin:round;stroke-miterlimit:10;}
	.st6{fill:none;stroke:#666666;stroke-width:90;stroke-linecap:round;stroke-linejoin:round;stroke-miterlimit:10;}
	.st7{fill:#F2F2F2;}
	.st8{fill:none;stroke:#666666;stroke-width:98.74;stroke-linecap:round;stroke-linejoin:round;stroke-miterlimit:10;}
	.st9{fill:#F2F2F2;stroke:#666666;stroke-width:28;stroke-linecap:round;stroke-linejoin:round;stroke-miterlimit:10;}
</style>
<g>
	<g>
		<path class="st7" d="M511.24,591.03c-8.46,0-16.42-4.16-21.29-11.12c-4.86-6.94-6.02-15.83-3.12-23.8l43.91-119.4
			c0.9-2.45,2.47-4.61,4.54-6.21l319.21-248.69c8.59-6.81,19.35-10.56,30.31-10.56c14.95,0,28.86,6.69,38.17,18.35l51.92,65.06
			c8.12,10.18,11.79,22.91,10.33,35.84c-1.46,12.94-7.89,24.53-18.08,32.64c-0.04,0.03-319.38,248.82-319.38,248.82
			c-1.98,1.55-4.35,2.53-6.84,2.84l-126.36,16.02C513.42,590.97,512.32,591.03,511.24,591.03
			C511.24,591.03,511.24,591.03,511.24,591.03z"/>
		<path class="st4" d="M884.79,185.25c10.22,0,20.36,4.48,27.22,13.09l51.92,65.06c11.97,15,9.49,36.84-5.53,48.79L639.14,560.92
			l-126.36,16.02c-0.52,0.06-1.03,0.1-1.53,0.1c-8.16,0-14.16-8.18-11.26-16.13l43.9-119.36l319.27-248.73
			C869.54,187.72,877.19,185.25,884.79,185.25 M884.79,157.25c-14.08,0-27.91,4.81-38.96,13.56L526.67,419.46
			c-4.12,3.21-7.27,7.52-9.07,12.42l-43.9,119.36c-0.01,0.03-0.02,0.06-0.03,0.09c-4.46,12.25-2.66,25.94,4.81,36.62
			c7.49,10.7,19.74,17.09,32.76,17.09c1.65,0,3.33-0.1,4.97-0.31c0.03,0,0.05-0.01,0.08-0.01l126.36-16.02
			c4.99-0.63,9.72-2.6,13.69-5.69l319.26-248.73c0.07-0.06,0.15-0.12,0.22-0.17c13.13-10.44,21.4-25.37,23.28-42.02
			c1.88-16.65-2.84-33.04-13.29-46.14l-51.92-65.06C921.92,165.86,904.02,157.25,884.79,157.25L884.79,157.25z"/>
	</g>
	<line class="st9" x1="874.41" y1="331.14" x2="653.13" y2="501.94"/>
	<line class="st9" x1="719.42" y1="405.12" x2="628.83" y2="477.04"/>
	<path class="st9" d="M573.84,482.73c1.04,1.31,62.88,78.8,62.88,78.8"/>
	<path class="st9" d="M502.63,522.47c1.04,1.31,50.36,61.5,50.36,61.5"/>
	<line class="st5" x1="94.93" y1="390.12" x2="380.59" y2="390.12"/>
	<line class="st5" x1="20.48" y1="515.57" x2="306.09" y2="515.57"/>
	<line class="st5" x1="77.41" y1="652.43" x2="228.84" y2="652.43"/>
	<line class="st5" x1="86.17" y1="789.29" x2="377.95" y2="789.29"/>
	
		<ellipse transform="matrix(0.9231 -0.3846 0.3846 0.9231 -219.7222 193.5656)" class="st4" cx="374.01" cy="646.04" rx="113.59" ry="75.64"/>
</g>
</svg>
