<?xml version="1.0" encoding="utf-8"?>
<!-- Generator: Adobe Illustrator 26.0.1, SVG Export Plug-In . SVG Version: 6.00 Build 0)  -->
<svg version="1.1" id="Ebene_1" xmlns="http://www.w3.org/2000/svg" xmlns:xlink="http://www.w3.org/1999/xlink" x="0px" y="0px"
	 viewBox="0 0 595.28 841.89" style="enable-background:new 0 0 595.28 841.89;" xml:space="preserve">
<style type="text/css">
	.st0{fill:#F7F8FB;}
	.st1{fill:none;stroke:#CCD5E2;stroke-width:0.6359;stroke-miterlimit:10;}
	.st2{opacity:0.2;fill:#302D7E;enable-background:new    ;}
	.st3{fill:#D9E2F4;}
	.st4{fill:#EF825E;}
	.st5{fill:#F0B7A8;}
	.st6{fill:#302D7E;}
	.st7{fill:#FEEDDD;stroke:#302D7E;stroke-width:2.47;stroke-linecap:square;stroke-linejoin:round;stroke-miterlimit:10;}
	.st8{fill:none;stroke:#302D7E;stroke-width:2.1565;stroke-linecap:round;stroke-miterlimit:10;}
	.st9{fill:none;stroke:#302D7E;stroke-width:1.8083;stroke-linecap:round;stroke-miterlimit:10;}
	.st10{fill:none;stroke:#302D7E;stroke-width:2.47;stroke-linecap:round;stroke-miterlimit:10;}
	.st11{fill:#FEEDDD;stroke:#302D7E;stroke-width:2.47;stroke-linecap:round;stroke-linejoin:round;stroke-miterlimit:10;}
	.st12{fill:#FEEDDD;}
	.st13{opacity:0.23;fill:#EF825E;enable-background:new    ;}
	.st14{fill:#EF825E;stroke:#302D7E;stroke-width:2.4682;stroke-linecap:round;stroke-miterlimit:10;}
	.st15{fill:none;stroke:#D9E2F4;stroke-width:2.4682;stroke-miterlimit:10;}
	.st16{fill:#FCE2DD;}
	.st17{fill:#302D7E;stroke:#302D7E;stroke-width:2.1732;stroke-linecap:round;stroke-linejoin:round;stroke-miterlimit:10;}
	.st18{fill:none;stroke:#D9E2F4;stroke-width:0.617;stroke-miterlimit:10;}
</style>
<rect x="78.91" y="318.8" class="st0" width="260.3" height="168.73"/>
<g>
	<path class="st1" d="M259.25,336.37H92.43c0,0-0.31,12.38,0,12.66h166.82"/>
	<line class="st1" x1="92.42" y1="340.59" x2="259.25" y2="340.59"/>
	<line class="st1" x1="92.42" y1="344.81" x2="259.25" y2="344.81"/>
	<path class="st1" d="M259.25,361.05H92.43c0,0-0.31,12.38,0,12.66h166.82"/>
	<line class="st1" x1="92.42" y1="365.27" x2="259.25" y2="365.27"/>
	<line class="st1" x1="92.42" y1="369.49" x2="259.25" y2="369.49"/>
	<path class="st1" d="M259.25,385.73H92.43c0,0-0.31,12.38,0,12.66h166.82"/>
	<line class="st1" x1="92.42" y1="389.95" x2="259.25" y2="389.95"/>
	<line class="st1" x1="92.42" y1="394.17" x2="259.25" y2="394.17"/>
	<path class="st1" d="M259.25,410.41H92.43c0,0-0.31,12.38,0,12.66h166.82"/>
	<line class="st1" x1="92.42" y1="414.63" x2="259.25" y2="414.63"/>
	<line class="st1" x1="92.42" y1="418.85" x2="259.25" y2="418.85"/>
	<path class="st1" d="M259.25,435.09H92.43c0,0-0.31,12.38,0,12.66h166.82"/>
	<line class="st1" x1="92.42" y1="439.31" x2="259.25" y2="439.31"/>
	<line class="st1" x1="92.42" y1="443.54" x2="259.25" y2="443.54"/>
	<path class="st1" d="M259.25,459.78H92.43c0,0-0.31,12.38,0,12.66h166.82"/>
	<line class="st1" x1="92.42" y1="464" x2="259.25" y2="464"/>
	<line class="st1" x1="92.42" y1="468.22" x2="259.25" y2="468.22"/>
</g>
<path class="st2" d="M166.16,438.01c4.68,1.73,5.26,4.82,5.26,4.82s0.56-0.04,1.49-0.1l5.12,44.69h15.92
	c-2.61-20.67-4.83-38.25-5.8-45.96c0.33-0.03,0.66-0.07,0.97-0.1c0.78-7.32-0.23-11.44-0.41-11.62l-1.03-35.54
	c-0.17-2.2,1.36-4.55-0.78-4.31l-0.19,0.02l-0.31-2.05c-0.39-2.54-2.63-4.35-5.15-4.15l-13.29,1.07c-5.5,0.44-9.51,5.53-8.74,11.11
	C161.29,411.02,165.08,437.61,166.16,438.01z"/>
<path class="st3" d="M487.76,487.41l16.59-1.99c0,0,33.42-31.51,12.42-73.52c-21-42.01-65.88-54.42-98.35-53.47
	c-15.28-30.56-38.2-56.34-76.38-56.34c-38.2,0-58.24,24.82-68.75,37.24l-27.96,83.59c-7.73,23.11,4.41,48.17,27.33,56.44l22.31,8.05
	L487.76,487.41L487.76,487.41z"/>
<rect x="155.41" y="400.35" transform="matrix(0.9704 -0.2416 0.2416 0.9704 -92.3075 50.131)" class="st4" width="5.72" height="2.26"/>
<path class="st4" d="M155.53,398.13l1.99,8.02c0.09,0.38-0.14,0.77-0.52,0.86l-0.46,0.12c-2.09,0.52-4.2-0.75-4.71-2.83l-0.46-1.85
	c-0.52-2.09,0.75-4.2,2.83-4.71l0.46-0.12C155.05,397.51,155.44,397.74,155.53,398.13z"/>
<rect x="162.74" y="426.27" transform="matrix(0.9704 -0.2416 0.2416 0.9704 -98.3525 52.6688)" class="st4" width="5.72" height="2.26"/>
<path class="st4" d="M162.95,424.34l1.73,6.95c0.09,0.38-0.14,0.77-0.52,0.86l-0.46,0.12c-2.09,0.52-4.2-0.75-4.71-2.83l-0.2-0.78
	c-0.52-2.09,0.75-4.2,2.83-4.71l0.46-0.12C162.47,423.72,162.86,423.96,162.95,424.34z"/>
<rect x="158.52" y="412.99" transform="matrix(0.9704 -0.2416 0.2416 0.9704 -95.2677 51.2545)" class="st4" width="5.72" height="2.26"/>
<path class="st4" d="M158.78,411.37l1.69,6.8l-1.85,0.46c-1.7,0.43-3.42-0.61-3.85-2.31l-0.16-0.64c-0.43-1.7,0.61-3.42,2.31-3.85
	L158.78,411.37z"/>
<rect x="154.1" y="400.61" transform="matrix(0.9704 -0.2416 0.2416 0.9704 -92.4095 49.8212)" class="st4" width="5.72" height="2.26"/>
<path class="st4" d="M154.22,398.39l1.99,8.02c0.09,0.38-0.14,0.77-0.52,0.86l-0.46,0.12c-2.09,0.52-4.2-0.75-4.71-2.83l-0.46-1.85
	c-0.52-2.09,0.75-4.2,2.83-4.71l0.46-0.12C153.74,397.78,154.12,398.01,154.22,398.39z"/>
<rect x="161.43" y="426.54" transform="matrix(0.9704 -0.2416 0.2416 0.9704 -98.456 52.3596)" class="st4" width="5.72" height="2.26"/>
<path class="st4" d="M161.63,424.6l1.73,6.95c0.09,0.38-0.14,0.77-0.52,0.86l-0.46,0.12c-2.09,0.52-4.2-0.75-4.71-2.83l-0.2-0.78
	c-0.52-2.09,0.75-4.2,2.83-4.71l0.46-0.12C161.15,423.98,161.54,424.22,161.63,424.6z"/>
<rect x="157.19" y="413.25" transform="matrix(0.9704 -0.2416 0.2416 0.9704 -95.3703 50.9434)" class="st4" width="5.72" height="2.26"/>
<path class="st4" d="M157.47,411.63l1.69,6.8l-1.85,0.46c-1.7,0.43-3.42-0.61-3.85-2.31l-0.16-0.64c-0.43-1.7,0.61-3.42,2.31-3.85
	L157.47,411.63z"/>
<rect x="194.77" y="417.5" transform="matrix(0.9802 -0.198 0.198 0.9802 -78.9759 47.4181)" class="st4" width="5.72" height="2.26"/>
<path class="st4" d="M200.37,422.23l-1.64-8.1c-0.08-0.39,0.17-0.77,0.56-0.84l0.47-0.09c2.1-0.43,4.16,0.94,4.58,3.04l0.38,1.87
	c0.43,2.1-0.94,4.16-3.04,4.58l-0.47,0.09C200.83,422.86,200.45,422.61,200.37,422.23z"/>
<rect x="188.6" y="391.28" transform="matrix(0.9802 -0.198 0.198 0.9802 -73.9057 45.6786)" class="st4" width="5.72" height="2.26"/>
<path class="st4" d="M194.13,395.71l-1.42-7.02c-0.08-0.39,0.17-0.77,0.56-0.84l0.47-0.09c2.1-0.43,4.16,0.94,4.58,3.04l0.16,0.79
	c0.43,2.1-0.94,4.16-3.04,4.58l-0.47,0.09C194.59,396.35,194.21,396.1,194.13,395.71z"/>
<rect x="192.24" y="404.74" transform="matrix(0.9802 -0.198 0.198 0.9802 -76.5 46.6646)" class="st4" width="5.72" height="2.26"/>
<path class="st4" d="M197.72,408.86l-1.39-6.87l1.87-0.38c1.72-0.35,3.39,0.77,3.74,2.48l0.13,0.65c0.35,1.72-0.77,3.39-2.48,3.74
	L197.72,408.86z"/>
<path class="st5" d="M169.56,434.89c-1.12-0.27-7.97-25.68-11.8-40.18c-1.41-5.33,1.99-10.74,7.4-11.79l13.07-2.55
	c2.47-0.48,4.91,1.02,5.59,3.45l0.55,1.96l0.19-0.04c2.1-0.48,4.18,0.88,4.6,2.99l7.79,39.19c0.2,0.15-4.28,0.4-4.2,7.61
	c-6.31,1.4-17.4,3.44-17.4,3.44S174.4,436.04,169.56,434.89z"/>
<path class="st6" d="M322.37,338.65c10.31,9.08,16.08,40.05,16.08,67.94c0,27.89,5.47,39.88,6.26,41.18
	c0.78,1.3-65.43,4.95-87.84,4.17c-22.42-0.78-32.85-3.13-32.85-3.13s-0.78-82.37,14.6-103.22"/>
<path class="st7" d="M309.65,460.7l-1.35-31.82c2.77-4.99,7.78-7.52,9.06-25.06c0,0,10.58-45.74,0.69-61.19
	c-3.3-5.15-20.05-18.41-33.36-18.28c-44.79,0.46-47.43,43.5-47.43,43.5s-5.18,52.55,7.95,63.94c10.9,9.46,19.57,11.48,19.57,11.48
	l-1.05,18.43"/>
<path class="st8" d="M269.65,380.91c0.07,5.22-4.5,15.52-4.8,17.31c-0.17,0.99,0.57,2.76,2.01,3.94c1.44,1.18,3.28,1.84,3.28,1.84"
	/>
<path class="st5" d="M204.82,487.41c-7.61-30.17-14.04-55.68-14.04-55.68l-14.42,5.1l12.12,50.59L204.82,487.41L204.82,487.41z"/>
<path class="st9" d="M283.34,384.53c0,0,3.51,4.1,10.32,1.49"/>
<path class="st10" d="M260.79,414.47c0,0,8.02,6.66,16.48,1.33"/>
<path class="st10" d="M237.23,368.72"/>
<path class="st11" d="M315.44,384.32c2.04-2.85,8.04-7.2,10.41-2.06c2.37,5.14-0.71,17.88-4.15,19.46c-3.43,1.57-6.62,1.6-6.62,1.6"
	/>
<path class="st10" d="M319.38,386.27c0,0,3.12,1.01,2.75,4.41c-0.28,2.6-0.28,2.6-0.28,2.6"/>
<path class="st10" d="M318.4,390.75c0,0-1.19,1.67-0.91,2.37"/>
<ellipse class="st6" cx="252.55" cy="383.83" rx="2.85" ry="3.67"/>
<path class="st6" d="M235.69,378.36c0,0,23.32-17.49,31.56-33.97c7.03,8.84,24.92,20.1,37.79,19.7c1.81,7.44,7.24,16.08,11.06,18.49
	c4.22-2.21,7.03-2.21,7.03-2.21l4.02,4.83c0,0,8.24-35.38-7.24-49.04c-15.48-13.67-36.38-19.09-54.07-13.46
	S227.45,345.19,235.69,378.36z"/>
<path class="st12" d="M307.58,391.5c0,0.28-0.38,11.24-0.38,11.24l7.18-0.28c0,0,2.74-0.85,2.83-1.23c0.09-0.38-0.19-4.15-0.19-4.15
	L307.58,391.5z"/>
<path class="st9" d="M285.33,372.62c0,0,7.13-0.35,11.47,3.65"/>
<path class="st9" d="M255.62,370.37c0,0-7.13-0.35-11.47,3.65"/>
<path class="st6" d="M264.27,442.05c0,0,11.19,1.97,14.83,1.81c-11.05,2.42-11.35,3.78-21.18,0.91"/>
<g>
	<g>
		<path class="st6" d="M219.86,402.29c3.63,3.93,8.32,6.68,13.56,7.66c-1.37-12.66-0.94-26.93-0.44-35.69
			c4.28-3.47,11.18-9.36,17.64-16.23c-3.77-2.43-8.16-3.82-12.84-3.82c-3.87,0-7.53,0.95-10.81,2.65c-0.02,0.19-0.04,0.38-0.06,0.56
			C223.33,369.95,221.17,386.47,219.86,402.29z"/>
		<path class="st12" d="M232.98,374.27c-0.5,8.76-0.93,23.03,0.44,35.69c1.41,0.27,2.87,0.41,4.35,0.41
			c14.09,0,25.51-12.57,25.51-28.08c0-10.35-5.1-19.39-12.67-24.26C244.16,364.91,237.27,370.8,232.98,374.27z M248.84,390.2
			c-1.71,0-3.1-2.45-3.1-5.47s1.39-5.47,3.1-5.47c1.71,0,3.1,2.45,3.1,5.47S250.55,390.2,248.84,390.2z M252.22,367.65
			c0.54,0.02,0.96,0.49,0.93,1.02c-0.02,0.54-0.5,0.98-1.02,0.93c-0.07,0-7.39-0.3-11.74,3.7c-0.19,0.17-0.43,0.26-0.67,0.26
			c-0.27,0-0.53-0.1-0.72-0.31c-0.36-0.4-0.34-1.02,0.06-1.39C244.02,367.31,251.89,367.63,252.22,367.65z"/>
		<ellipse class="st6" cx="248.84" cy="384.73" rx="3.1" ry="5.47"/>
		<path class="st6" d="M239.01,373.25c0.19,0.21,0.46,0.31,0.72,0.31c0.23,0,0.48-0.09,0.67-0.26c4.35-4,11.66-3.7,11.74-3.7
			c0.52,0.04,1-0.39,1.02-0.93c0.02-0.54-0.39-1-0.93-1.02c-0.33-0.02-8.2-0.35-13.16,4.22
			C238.66,372.24,238.63,372.85,239.01,373.25z"/>
	</g>
</g>
<ellipse class="st13" cx="288.57" cy="403.99" rx="2.91" ry="3.27"/>
<ellipse class="st13" cx="253.98" cy="403.74" rx="2.91" ry="3.27"/>
<path class="st14" d="M237.77,354.22c-14.09,0-25.51,12.57-25.51,28.08c0,10.78,5.52,20.14,13.63,24.84l-10.85,41.08l6.7,1.77
	l10.63-40.25c1.75,0.41,3.55,0.64,5.41,0.64c14.09,0,25.51-12.57,25.51-28.08C263.29,366.79,251.86,354.22,237.77,354.22z
	 M237.77,404.2c-10.67,0-19.34-9.83-19.34-21.91c0-12.08,8.68-21.91,19.34-21.91s19.34,9.83,19.34,21.91
	C257.12,394.38,248.44,404.2,237.77,404.2z"/>
<ellipse transform="matrix(0.9564 -0.2922 0.2922 0.9564 -74.1417 132.6863)" class="st3" cx="407.13" cy="314.55" rx="6.17" ry="4.7"/>
<polyline class="st15" points="411.84,313.91 411.84,292.98 416.02,292.98 "/>
<ellipse transform="matrix(0.9564 -0.2922 0.2922 0.9564 -71.1085 139.4532)" class="st3" cx="431.3" cy="307.78" rx="6.17" ry="4.7"/>
<ellipse transform="matrix(0.9564 -0.2922 0.2922 0.9564 -68.5542 144.2142)" class="st3" cx="448.52" cy="301.61" rx="6.17" ry="4.7"/>
<polyline class="st15" points="453.15,300.87 453.15,279.94 435.93,286.11 435.93,307.04 "/>
<line class="st15" x1="452.48" y1="283.77" x2="435.56" y2="289.94"/>
<g>
	<g>
		
			<ellipse transform="matrix(0.9564 -0.2922 0.2922 0.9564 -109.7963 153.1222)" class="st6" cx="457.72" cy="444.13" rx="6.17" ry="4.7"/>
	</g>
	<g>
		<polygon class="st6" points="463.59,443.65 461.12,443.65 461.12,421.48 466.54,421.48 466.54,423.95 463.59,423.95 		"/>
	</g>
</g>
<path class="st6" d="M157.64,475.23c8.99,3.7,16.52,7.87,21.18,12.18h9.71c0.02-0.1,0.04-0.15,0.04-0.15
	c0.33-5.1-10.95-36.44-27.43-38.78C144.64,446.13,143.73,469.51,157.64,475.23z"/>
<g>
	<path class="st12" d="M217.87,460.41l0.16-1.35l0.07-0.14c7.95-16.02,3.35-21.89,1.83-23.82l-0.72-0.93l0.89-0.54
		c1.15-0.7,3,0,5.68,1.15c0.56,0.24,1.09,0.47,1.51,0.62c0.24,0.09,0.44,0.06,0.68-0.09c0.73-0.45,1.36-1.81,1.47-2.76
		c0.07-0.59,0.17-3.55-4.55-4.54c-4.25-0.89-7.45,1.15-7.49,1.17l-2.55,1.67l1.2-2.8c0.07-0.17,1.86-4.25,6-5.4
		c1.16-0.32,1.83-0.86,2.05-1.65c0.35-1.24-0.49-2.8-0.8-3.13c-0.09-0.1-0.6-0.35-1.76-0.3c-2.1,0.08-5,1.1-6.46,2.9
		c-2.57,3.15-3.78,8.07-4.28,10.72l-1.07,5.77l-0.75-5.82c-0.52-3.99,0.13-11,1.04-14.36c1.14-4.25,1.14-7.02,0.77-7.55
		c-0.19-0.28-0.77-0.73-1.6-0.86c-0.7-0.1-1.36,0.06-1.95,0.49c-1.33,1.88-3.11,6.51-4.22,17.83c-0.49,4.99,1.73,16.6,2.97,22.04
		c0.81,3.55,1.11,14.7,0.83,17.21c0.65,7.16,1.6,14.46,2.75,21.48h19.81c-4.51-14.11-10.18-24.92-11.34-26.72L217.87,460.41z"/>
	<path class="st6" d="M209.58,487.41c-1.15-7.02-2.09-14.32-2.75-21.48c0.27-2.51-0.02-13.66-0.83-17.21
		c-1.25-5.44-3.47-17.06-2.97-22.04c1.11-11.32,2.89-15.94,4.22-17.83c0.59-0.43,1.25-0.6,1.95-0.49c0.83,0.12,1.41,0.58,1.6,0.86
		c0.36,0.53,0.37,3.3-0.77,7.55c-0.9,3.36-1.55,10.37-1.04,14.36l0.75,5.82l1.07-5.77c0.49-2.65,1.7-7.57,4.28-10.72
		c1.46-1.8,4.36-2.81,6.46-2.9c1.16-0.04,1.67,0.2,1.76,0.3c0.31,0.33,1.14,1.89,0.8,3.13c-0.22,0.78-0.89,1.33-2.05,1.65
		c-4.13,1.14-5.92,5.22-6,5.4l-1.2,2.8l2.55-1.67c0.03-0.02,3.24-2.06,7.49-1.17c4.72,0.99,4.62,3.96,4.55,4.54
		c-0.11,0.94-0.75,2.31-1.47,2.76c-0.24,0.15-0.44,0.17-0.68,0.09c-0.42-0.15-0.95-0.38-1.51-0.62c-2.68-1.15-4.53-1.84-5.68-1.15
		l-0.89,0.54l0.72,0.93c1.51,1.93,6.12,7.8-1.83,23.82l-0.07,0.14l-0.16,1.35l0.18,0.28c1.17,1.81,6.83,12.61,11.34,26.72h1.93
		c-4.42-13.99-10.01-24.9-11.54-27.44l0.04-0.38c6.95-14.07,4.6-20.96,2.64-24.13c0.88,0.29,1.94,0.74,2.59,1.02
		c0.59,0.25,1.14,0.49,1.6,0.65c0.77,0.28,1.56,0.19,2.28-0.25c1.3-0.8,2.18-2.72,2.34-4.12c0.28-2.39-1.12-5.55-6-6.57
		c-2.3-0.48-4.31-0.24-5.85,0.17c0.77-0.8,1.8-1.57,3.11-1.93c2.26-0.63,3.06-1.94,3.34-2.94c0.59-2.13-0.7-4.34-1.25-4.9
		c-0.76-0.8-2.14-0.91-3.17-0.88c-2.52,0.1-5.92,1.24-7.82,3.58c-1.22,1.49-2.15,3.3-2.88,5.14c0.19-2.75,0.58-5.5,1.03-7.18
		c0.44-1.65,1.8-7.2,0.51-9.07c-0.56-0.82-1.68-1.46-2.84-1.64c-0.87-0.13-2.18-0.07-3.47,0.94l-0.1,0.08l-0.07,0.1
		c-2.14,2.91-3.7,9.25-4.65,18.84c-0.64,6.53,2.86,21.98,3.02,22.63c0.77,3.38,1.07,14.53,0.79,16.67l-0.01,0.1l0.01,0.1
		c0.66,7.19,1.59,14.45,2.71,21.41L209.58,487.41L209.58,487.41z"/>
</g>
<g>
	<polygon class="st16" points="178.86,438.47 171.42,427.47 171.11,427.69 178.5,438.59 190.08,487.41 190.47,487.41 	"/>
	<polygon class="st16" points="181.14,437.84 166.9,413.44 166.57,413.63 180.78,437.96 192.51,487.41 192.9,487.41 	"/>
	<polygon class="st16" points="183.42,437.21 163.06,400.56 162.73,400.75 183.06,437.32 194.94,487.41 195.33,487.41 	"/>
	<polygon class="st16" points="185.71,436.62 185.45,393.42 185.07,393.43 185.33,436.67 197.37,487.41 197.76,487.41 	"/>
	<path class="st16" d="M187.99,435.96c-0.02-0.67,0.25-18.83,0.41-28.4l-0.38-0.01c-0.38,24.1-0.44,27.85-0.36,28.48l-0.04,0.01
		l12.19,51.37h0.39L187.99,435.96z"/>
	<path class="st16" d="M190.27,435.33l-0.02,0.01c0-0.01,0-0.01,0.01-0.02l0.01-0.01l-0.01,0.01c0.12-0.7,0.25-3.45,0.7-14.36
		l-0.38-0.02c-0.16,3.87-0.59,14-0.67,14.4l0.15,0.04l-0.16,0.05l12.33,52h0.39L190.27,435.33z"/>
</g>
<g>
	<circle class="st4" cx="165.8" cy="399.43" r="3.33"/>
	<circle class="st4" cx="169.66" cy="412.23" r="3.33"/>
	<circle class="st4" cx="173.55" cy="425.28" r="3.33"/>
	<circle class="st4" cx="182.33" cy="394.55" r="3.33"/>
	<circle class="st4" cx="184.87" cy="407.67" r="3.33"/>
	<circle class="st4" cx="187.43" cy="421.05" r="3.33"/>
</g>
<path class="st6" d="M358.4,487.41c-8.91-16.48-30.42-22.18-49.46-30.43c-20.64,11.3-45.7,0.25-45.7,0.25
	c-17.16,8.68-29.08,19.25-37.31,30.18L358.4,487.41L358.4,487.41z"/>
<path class="st6" d="M412.94,487.41h10.18c5.89-3.49,15.61-5.67,27.4-4.41c17.79,1.9,16.6-15.18,10.67-18.5
	c-5.93-3.32-16.84-2.61-27.51,2.84c-0.28,0.14-0.56,0.3-0.84,0.46c-0.11-1.67,0.52-3.96,3.96-5.82c6.16-3.32,10.2-13.29,8.54-19.92
	c-1.66-6.64-7.11-8.3-14.23-6.64c-7.11,1.66-7.55,11.75-7.11,15.18c0.68,5.46-0.23,12.57-1.9,14.23c-1.66,1.66-4.98-0.23-6.64-4.5
	c-1.66-4.27-7.11-2.84-9.02,1.66c-1.9,4.5,4.03,9.96,6.4,15.65C413.96,480.31,413.62,484.12,412.94,487.41z"/>
<path class="st17" d="M374.78,469.22c6.63-2.58,8.47-0.17,9.08,0.68c0.62,0.86-0.17,3.38-2.15,4.02c-1.98,0.64-7.24,3.88-5.55,6.66
	c1.7,2.79,4.94,2.84,6.83,0.97c1.89-1.87,5.82-2.13,7.89-0.96c1.55,0.89,6.11,3.49,8.9,6.82h7.34c-0.88-5.79-2.81-17.28-4.96-21.87
	c-2.94-6.24-8.5-17.15-25.21-16.41c-16.71,0.74-16.48,13.12-15.88,16.25C361.67,468.5,368.15,471.8,374.78,469.22z"/>
<g>
	<path class="st4" d="M196.55,452.45l0.02,0.1c0.06,0.28-0.11,0.56-0.39,0.62l-15.72,3.6c-0.28,0.06-0.56-0.11-0.62-0.39l-0.02-0.1
		c-0.06-0.28,0.11-0.56,0.39-0.62l15.72-3.6C196.21,452,196.48,452.17,196.55,452.45z"/>
	<path class="st4" d="M199.95,466.39l0.02,0.1c0.06,0.28-0.11,0.56-0.39,0.62l-15.72,3.6c-0.28,0.06-0.56-0.11-0.62-0.39l-0.02-0.1
		c-0.06-0.28,0.11-0.56,0.39-0.62l15.72-3.6C199.61,465.93,199.88,466.11,199.95,466.39z"/>
	<path class="st4" d="M203.35,480.32l0.02,0.1c0.06,0.28-0.11,0.56-0.39,0.62l-15.72,3.6c-0.28,0.06-0.56-0.11-0.62-0.39l-0.02-0.1
		c-0.06-0.28,0.11-0.56,0.39-0.62l15.72-3.6C203.01,479.87,203.29,480.05,203.35,480.32z"/>
</g>
<g>
	<path class="st4" d="M193.1,435.07l0.02,0.11c0.07,0.3-0.12,0.6-0.43,0.67l-16.59,3.8c-0.3,0.07-0.6-0.12-0.67-0.43l-0.02-0.11
		c-0.07-0.3,0.12-0.6,0.43-0.67l16.59-3.8C192.73,434.58,193.04,434.77,193.1,435.07z"/>
</g>
<path class="st6" d="M157.64,475.23c8.99,3.7,16.52,7.87,21.18,12.18h9.71c0.02-0.1,0.04-0.15,0.04-0.15
	c0.33-5.1-10.95-36.44-27.43-38.78C144.64,446.13,143.73,469.51,157.64,475.23z"/>
<path class="st18" d="M185.22,487.36c-8.19-20.66-26.78-32.44-33.85-36.2"/>
</svg>
