<?xml version="1.0" encoding="UTF-8" standalone="no"?>
<svg
   version="1.1"
   id="Ebene_1"
   x="0px"
   y="0px"
   viewBox="0 0 118 118"
   xml:space="preserve"
   width="118"
   height="118"
   sodipodi:docname="logo-1 [resized square].svg"
   inkscape:version="1.1.1 (c3084ef, 2021-09-22)"
   inkscape:export-filename="/Users/adriana/Documents/Educandu resources/OMA/logo-1 [resized square].png"
   inkscape:export-xdpi="96"
   inkscape:export-ydpi="96"
   xmlns:inkscape="http://www.inkscape.org/namespaces/inkscape"
   xmlns:sodipodi="http://sodipodi.sourceforge.net/DTD/sodipodi-0.dtd"
   xmlns="http://www.w3.org/2000/svg"
   xmlns:svg="http://www.w3.org/2000/svg"><sodipodi:namedview
   id="namedview835"
   pagecolor="#ffffff"
   bordercolor="#666666"
   borderopacity="1.0"
   inkscape:pageshadow="2"
   inkscape:pageopacity="0.0"
   inkscape:pagecheckerboard="0"
   showgrid="false"
   inkscape:zoom="9.6864407"
   inkscape:cx="46.1986"
   inkscape:cy="58.27734"
   inkscape:window-width="2560"
   inkscape:window-height="1387"
   inkscape:window-x="0"
   inkscape:window-y="25"
   inkscape:window-maximized="1"
   inkscape:current-layer="Ebene_1"
   height="118px"
   showguides="true"
   inkscape:guide-bbox="true"><inkscape:grid
     type="xygrid"
     id="grid978" /><sodipodi:guide
     position="-45.424322,57.91601"
     orientation="0,-1"
     id="guide980" /></sodipodi:namedview><defs
   id="defs824" />
<style
   type="text/css"
   id="style826">
	.st0{fill:#859CBE;}
</style>
<path
   class="st0"
   d="m 82.162369,57.11636 v 14.515788 c 0,2.253197 -1.624899,3.8131 -3.813101,3.8131 -2.253197,0 -3.878097,-1.559903 -3.878097,-3.8131 V 58.24296 c 0,-4.073082 -2.253198,-6.629592 -5.882144,-6.629592 -3.628948,0 -5.882143,2.567343 -5.882143,6.629592 v 13.389188 c 0,2.253197 -1.559905,3.8131 -3.813103,3.8131 -2.253197,0 -3.878097,-1.559903 -3.878097,-3.8131 V 58.24296 c 0,-4.073082 -2.253197,-6.629592 -5.882144,-6.629592 -3.628946,0 -5.882143,2.567343 -5.882143,6.629592 v 13.389188 c 0,2.253197 -1.559906,3.8131 -3.813102,3.8131 -2.253197,0 -3.813102,-1.559903 -3.813102,-3.8131 V 48.916032 c 0,-2.253197 1.559905,-3.813102 3.758939,-3.813102 2.188202,0 3.693943,1.37575 3.878099,3.444791 1.819888,-2.502348 4.690548,-4.073087 8.265331,-4.073087 4.376401,0 7.702033,1.93905 9.576086,5.448837 1.754893,-2.946488 4.820541,-5.448837 9.576085,-5.448837 6.911247,0 11.482636,4.636386 11.482636,12.641726 z"
   id="path828"
   style="fill:#002f65;fill-opacity:1" />
<path
   class="st0"
   d="m 117.83441,48.916032 v 22.716116 c 0,2.253197 -1.5599,3.8131 -3.81309,3.8131 -2.18822,0 -3.75897,-1.440745 -3.87811,-3.509787 -2.12321,2.567344 -5.19973,4.127251 -9.14283,4.127251 -7.95117,0 -14.396612,-6.445443 -14.396612,-15.837374 0,-9.012779 6.066298,-15.772369 14.396612,-15.772369 3.9431,0 7.00879,1.440746 9.14283,3.943094 0.24914,-2.004045 1.75489,-3.314799 3.87811,-3.314799 2.24234,0.02167 3.81309,1.581571 3.81309,3.834768 z m -7.70204,11.330972 c 0,-4.820541 -3.31484,-8.633636 -7.88623,-8.633636 -4.636373,0 -8.016168,3.813095 -8.016168,8.633636 0,4.820541 3.379795,8.69864 8.016168,8.69864 4.57139,0 7.88623,-3.878099 7.88623,-8.69864 z"
   id="path830"
   style="fill:#002f65;fill-opacity:1" />
<path
   class="st0"
   d="m 20.286125,45.124595 v 7.886188 c 2.14487,1.538237 3.477288,4.181407 3.477288,7.236221 0,4.820541 -3.314799,8.69864 -7.886188,8.69864 -4.636385,0 -8.0161759,-3.878099 -8.0161759,-8.69864 0,-3.054814 1.3649179,-5.708817 3.5422809,-7.236221 v -7.897021 c -6.4779358,1.928217 -11.1684846,7.97285 -11.1684846,15.133242 0,8.763635 6.9437457,15.837373 15.5882156,15.837373 8.69864,0 15.642385,-7.073738 15.642385,-15.837373 -0.01083,-7.138727 -4.690549,-13.18336 -11.179321,-15.122409 z"
   id="path832"
   style="fill:#002f65;fill-opacity:1" />
</svg>
