<?xml version="1.0" encoding="utf-8"?>
<!-- Generator: Adobe Illustrator 26.0.1, SVG Export Plug-In . SVG Version: 6.00 Build 0)  -->
<svg version="1.1" id="Ebene_1" xmlns="http://www.w3.org/2000/svg" xmlns:xlink="http://www.w3.org/1999/xlink" x="0px" y="0px"
	 viewBox="0 0 123.14 51.79" style="enable-background:new 0 0 123.14 51.79;" xml:space="preserve">
<style type="text/css">
	.st0{fill:#859CBE;}
</style>
<path class="st0" d="M83.08,23.04v13.4c0,2.08-1.5,3.52-3.52,3.52c-2.08,0-3.58-1.44-3.58-3.52V24.08c0-3.76-2.08-6.12-5.43-6.12
	s-5.43,2.37-5.43,6.12v12.36c0,2.08-1.44,3.52-3.52,3.52c-2.08,0-3.58-1.44-3.58-3.52V24.08c0-3.76-2.08-6.12-5.43-6.12
	s-5.43,2.37-5.43,6.12v12.36c0,2.08-1.44,3.52-3.52,3.52c-2.08,0-3.52-1.44-3.52-3.52V15.47c0-2.08,1.44-3.52,3.47-3.52
	c2.02,0,3.41,1.27,3.58,3.18c1.68-2.31,4.33-3.76,7.63-3.76c4.04,0,7.11,1.79,8.84,5.03c1.62-2.72,4.45-5.03,8.84-5.03
	C78.86,11.37,83.08,15.65,83.08,23.04z"/>
<path class="st0" d="M116.01,15.47v20.97c0,2.08-1.44,3.52-3.52,3.52c-2.02,0-3.47-1.33-3.58-3.24c-1.96,2.37-4.8,3.81-8.44,3.81
	c-7.34,0-13.29-5.95-13.29-14.62c0-8.32,5.6-14.56,13.29-14.56c3.64,0,6.47,1.33,8.44,3.64c0.23-1.85,1.62-3.06,3.58-3.06
	C114.56,11.95,116.01,13.39,116.01,15.47z M108.9,25.93c0-4.45-3.06-7.97-7.28-7.97c-4.28,0-7.4,3.52-7.4,7.97s3.12,8.03,7.4,8.03
	C105.84,33.96,108.9,30.38,108.9,25.93z"/>
<path class="st0" d="M25.96,11.97v7.28c1.98,1.42,3.21,3.86,3.21,6.68c0,4.45-3.06,8.03-7.28,8.03c-4.28,0-7.4-3.58-7.4-8.03
	c0-2.82,1.26-5.27,3.27-6.68v-7.29c-5.98,1.78-10.31,7.36-10.31,13.97c0,8.09,6.41,14.62,14.39,14.62c8.03,0,14.44-6.53,14.44-14.62
	C36.27,19.34,31.95,13.76,25.96,11.97z"/>
</svg>
