<?xml version="1.0" encoding="utf-8"?>
<!-- Generator: Adobe Illustrator 26.4.1, SVG Export Plug-In . SVG Version: 6.00 Build 0)  -->
<svg version="1.1" id="Ebene_1" xmlns="http://www.w3.org/2000/svg" xmlns:xlink="http://www.w3.org/1999/xlink" x="0px" y="0px"
	 width="1000px" height="1000px" viewBox="0 0 1000 1000" style="enable-background:new 0 0 1000 1000;" xml:space="preserve">
<style type="text/css">
	.st0{fill:#F2F2F2;stroke:#666666;stroke-width:40;stroke-linecap:round;stroke-linejoin:round;stroke-miterlimit:10;}
	.st1{fill:#F2F2F2;stroke:#666666;stroke-width:39.8038;stroke-linecap:round;stroke-linejoin:round;stroke-miterlimit:10;}
	.st2{fill:none;stroke:#666666;stroke-width:39.8038;stroke-linecap:round;stroke-linejoin:round;stroke-miterlimit:10;}
	.st3{fill:none;stroke:#666666;stroke-width:68.0372;stroke-linecap:round;stroke-linejoin:round;stroke-miterlimit:10;}
	.st4{fill:#666666;}
	.st5{fill:none;stroke:#666666;stroke-width:40;stroke-linecap:round;stroke-linejoin:round;stroke-miterlimit:10;}
	.st6{fill:#F2F2F2;}
	.st7{fill:none;stroke:#666666;stroke-width:98.74;stroke-linecap:round;stroke-linejoin:round;stroke-miterlimit:10;}
	.st8{fill:none;stroke:#666666;stroke-width:90;stroke-linecap:round;stroke-linejoin:round;stroke-miterlimit:10;}
	.st9{fill:#F2F2F2;stroke:#666666;stroke-width:28;stroke-linecap:round;stroke-linejoin:round;stroke-miterlimit:10;}
	.st10{fill:#FFFFFF;}
	.st11{fill:#FFFFFF;stroke:#2F2D7E;stroke-width:40;stroke-linecap:round;stroke-linejoin:round;stroke-miterlimit:10;}
	.st12{fill:none;stroke:#2F2D7E;stroke-width:40;stroke-linecap:round;stroke-linejoin:round;stroke-miterlimit:10;}
	.st13{fill:#FFFFFF;stroke:#2F2D7E;stroke-width:30;stroke-linecap:round;stroke-linejoin:round;stroke-miterlimit:10;}
	.st14{fill:none;stroke:#808080;stroke-width:40;stroke-linecap:round;stroke-linejoin:round;stroke-miterlimit:10;}
	.st15{fill:none;stroke:#808080;stroke-width:110;stroke-linecap:round;stroke-linejoin:round;stroke-miterlimit:10;}
	.st16{clip-path:url(#SVGID_00000055685491938560583570000004050355309418745512_);}
	.st17{fill:#EAA58D;}
	.st18{fill:none;stroke:#808080;stroke-width:70;stroke-linecap:round;stroke-linejoin:round;stroke-miterlimit:10;}
	.st19{fill:none;stroke:#CCCCCC;stroke-width:119.9441;stroke-linecap:round;stroke-linejoin:round;stroke-miterlimit:10;}
	.st20{fill:none;stroke:#666666;stroke-width:59.9664;stroke-linecap:round;stroke-miterlimit:10;}
	.st21{fill:none;stroke:#666666;stroke-width:58.1416;stroke-linecap:round;stroke-miterlimit:10;}
	.st22{fill:none;stroke:#666666;stroke-width:56.47;stroke-miterlimit:10;}
	.st23{fill:none;stroke:#666666;stroke-width:56.47;stroke-linecap:round;stroke-miterlimit:10;}
	.st24{fill:none;stroke:#666666;stroke-width:59.3407;stroke-linecap:round;stroke-miterlimit:10;}
	.st25{fill:none;stroke:#666666;stroke-width:98.0992;stroke-linecap:round;stroke-miterlimit:10;}
	.st26{fill:none;stroke:#666666;stroke-width:61.312;stroke-linecap:round;stroke-miterlimit:10;}
	.st27{fill:none;stroke:#666666;stroke-width:61.312;stroke-linejoin:bevel;stroke-miterlimit:10;}
	.st28{fill:none;stroke:#666666;stroke-width:50;stroke-linecap:round;stroke-miterlimit:10;}
	.st29{fill:none;stroke:#666666;stroke-width:50;stroke-linejoin:bevel;stroke-miterlimit:10;}
	.st30{fill:none;stroke:#666666;stroke-width:40.5198;stroke-linecap:round;stroke-miterlimit:10;}
	.st31{fill:none;stroke:#666666;stroke-width:26.4282;stroke-linecap:round;stroke-miterlimit:10;}
	.st32{fill:none;stroke:#666666;stroke-width:41.6027;stroke-linecap:round;stroke-miterlimit:10;}
	.st33{fill:none;stroke:#666666;stroke-width:125.3478;stroke-linecap:square;stroke-linejoin:round;stroke-miterlimit:10;}
	.st34{fill:none;stroke:#666666;stroke-width:40.4771;stroke-linecap:round;stroke-miterlimit:10;}
	.st35{fill:none;stroke:#666666;stroke-width:47.5393;stroke-linecap:round;stroke-miterlimit:10;}
	.st36{fill:none;stroke:#666666;stroke-width:81.1986;stroke-linecap:round;stroke-miterlimit:10;}
	.st37{fill:#FFFFFF;stroke:#666666;stroke-width:47.5393;stroke-linecap:round;stroke-miterlimit:10;}
	.st38{fill:none;stroke:#666666;stroke-width:38.9985;stroke-linecap:round;stroke-linejoin:round;stroke-miterlimit:10;}
	.st39{fill:none;stroke:#666666;stroke-width:25.999;stroke-linecap:round;stroke-linejoin:round;stroke-miterlimit:10;}
	.st40{fill:none;stroke:#666666;stroke-width:38.9985;stroke-linecap:round;stroke-miterlimit:10;}
	.st41{fill:#F2F2F2;stroke:#666666;stroke-width:33.614;stroke-linecap:round;stroke-linejoin:round;stroke-miterlimit:10;}
	.st42{fill:none;stroke:#666666;stroke-width:39.662;stroke-linecap:round;stroke-linejoin:round;stroke-miterlimit:10;}
	.st43{fill:none;stroke:#666666;stroke-width:54.6198;stroke-linecap:round;stroke-linejoin:round;stroke-miterlimit:10;}
	.st44{fill:#F2F2F2;stroke:#666666;stroke-width:39.662;stroke-linecap:round;stroke-linejoin:round;stroke-miterlimit:10;}
	.st45{fill:none;stroke:#666666;stroke-width:38.5513;stroke-linecap:round;stroke-linejoin:round;stroke-miterlimit:10;}
	.st46{fill:none;stroke:#666666;stroke-width:38.5513;stroke-linejoin:round;stroke-miterlimit:10;}
	.st47{fill:none;stroke:#666666;stroke-width:30.4797;stroke-linecap:round;stroke-linejoin:round;stroke-miterlimit:10;}
	.st48{fill:#F2F2F2;stroke:#666666;stroke-width:41.2099;stroke-linecap:round;stroke-linejoin:round;stroke-miterlimit:10;}
	.st49{fill:#F2F2F2;stroke:#666666;stroke-width:42.1309;stroke-linecap:round;stroke-linejoin:round;stroke-miterlimit:10;}
	.st50{fill:#F2F2F2;stroke:#666666;stroke-width:25.885;stroke-linecap:round;stroke-linejoin:round;stroke-miterlimit:10;}
	.st51{fill:#F2F2F2;stroke:#666666;stroke-width:22.5087;stroke-linecap:round;stroke-linejoin:round;stroke-miterlimit:10;}
	.st52{fill:#F2F2F2;stroke:#666666;stroke-width:26.519;stroke-linecap:round;stroke-linejoin:round;stroke-miterlimit:10;}
	.st53{fill:#F2F2F2;stroke:#666666;stroke-width:26.519;stroke-linejoin:round;stroke-miterlimit:10;}
</style>
<g>
	<g>
		<path class="st50" d="M935.88,976.09H259.31c-26.06,0-47.19-21.17-47.19-47.29V71.2c0-26.11,21.13-47.29,47.19-47.29h676.57
			c26.06,0,47.19,21.17,47.19,47.29V928.8C983.06,954.92,961.94,976.09,935.88,976.09z"/>
		<g>
			<line class="st51" x1="595.41" y1="600.04" x2="595.41" y2="658.83"/>
			<line class="st51" x1="595.41" y1="151.9" x2="595.41" y2="411.78"/>
			<path class="st51" d="M615.71,558.94H575.1c-10.7,0-19.37-8.69-19.37-19.41v-69.24c0-10.72,8.67-19.41,19.37-19.41h40.61
				c10.7,0,19.37,8.69,19.37,19.41v69.24C635.09,550.25,626.41,558.94,615.71,558.94z"/>
			<line class="st51" x1="370.56" y1="442.32" x2="370.56" y2="658.83"/>
			<line class="st51" x1="370.56" y1="151.9" x2="370.56" y2="254.06"/>
			<path class="st51" d="M390.86,401.21h-40.61c-10.7,0-19.37-8.69-19.37-19.41v-69.24c0-10.72,8.67-19.41,19.37-19.41h40.61
				c10.7,0,19.37,8.69,19.37,19.41v69.24C410.23,392.52,401.56,401.21,390.86,401.21z"/>
			<line class="st51" x1="820.26" y1="509.91" x2="820.26" y2="658.83"/>
			<line class="st51" x1="820.26" y1="151.9" x2="820.26" y2="321.65"/>
			<path class="st51" d="M840.56,468.81h-40.61c-10.7,0-19.37-8.69-19.37-19.41v-69.24c0-10.72,8.67-19.41,19.37-19.41h40.61
				c10.7,0,19.37,8.69,19.37,19.41v69.24C859.94,460.12,851.26,468.81,840.56,468.81z"/>
			<ellipse class="st51" cx="372.79" cy="801.16" rx="61.66" ry="61.79"/>
			<line class="st51" x1="372.79" y1="739.37" x2="372.79" y2="801.16"/>
			<ellipse class="st51" cx="822.39" cy="801.16" rx="61.66" ry="61.79"/>
			<line class="st51" x1="884.05" y1="801.16" x2="822.39" y2="801.16"/>
			<ellipse class="st51" cx="599.95" cy="801.16" rx="61.66" ry="61.79"/>
			<line class="st51" x1="642.58" y1="756.52" x2="599.95" y2="801.16"/>
		</g>
	</g>
	<g>
		<g>
			<ellipse class="st4" cx="152.48" cy="182.29" rx="148.49" ry="148.8"/>
		</g>
		<path class="st6" d="M221.24,171.21l-95.7-55.37c-7.82-4.52-17.58,1.13-17.58,10.17v110.74c0,9.04,9.77,14.7,17.58,10.17
			l95.7-55.37C229.06,187.03,229.06,175.73,221.24,171.21z"/>
	</g>
</g>
</svg>
