<?xml version="1.0" encoding="UTF-8" standalone="no"?>
<svg xmlns:svg="http://www.w3.org/2000/svg" xmlns="http://www.w3.org/2000/svg"
  xmlns:xlink="http://www.w3.org/1999/xlink" viewBox="0 0 1000 1000" height="1em" width="1em">
  <defs>
    <clipPath id="clippath">
      <circle cy="0" cx="0" id="circle4" r="298" />
    </clipPath>
  </defs>
  <g transform="matrix(1.2300123,0,0,1.2300123,366.59378,633.45633)">
    <circle style="fill: currentColor" r="100" cx="108.45926" cy="0" />
    <g id="arrow" transform="translate(108.45926)" clip-path="url(#clippath)" style="fill: currentColor">
      <path style="fill: currentColor" d="M -11,180 V 298 H 11 V 180" />
      <path style="fill: currentColor" d="M -43,185 0,110 43,185" />
    </g>
    <g id="arrows3" transform="translate(108.45926)" style="fill: currentColor">
      <use style="fill: currentColor" height="100%" width="100%" y="0" x="0" transform="rotate(45,54.22963,-130.92191)" xlink:href="#arrow" />
      <use style="fill: currentColor" height="100%" width="100%" y="0" x="0" transform="rotate(90,54.22963,-54.22963)" xlink:href="#arrow" />
      <use style="fill: currentColor" height="100%" width="100%" y="0" x="0" transform="rotate(135,54.22963,-22.462648)" xlink:href="#arrow" />
    </g>
    <use height="100%" width="100%" y="0" x="0" transform="matrix(-1,0,0,1,216.91852,0)" xlink:href="#arrows3" style="fill: currentColor" />
    <path style="fill:none;stroke: currentColor; stroke-width:84; stroke-opacity: 1" d="m -72.560075,-181.01934 a 256,256 0 1 0 362.038675,0 C 218.76792,-251.73001 111.9948,-215.66757 90.781592,-371.23106" />
    <path d="m 85.45926,-515 c 0,0 -36,135 -80,185 -44,50 116,-62 170,-5 54,57 -90,-180 -90,-180 z" style="fill: currentColor" />
  </g>
</svg>
