<?xml version="1.0" encoding="utf-8"?>
<!-- Generator: Adobe Illustrator 26.2.1, SVG Export Plug-In . SVG Version: 6.00 Build 0)  -->
<svg version="1.1" id="Ebene_1" xmlns="http://www.w3.org/2000/svg" xmlns:xlink="http://www.w3.org/1999/xlink" x="0px" y="0px"
	 width="1000px" height="1000px" viewBox="0 0 1000 1000" style="enable-background:new 0 0 1000 1000;" xml:space="preserve">
<style type="text/css">
	.st0{fill:#F2F2F2;stroke:#666666;stroke-width:40;stroke-linecap:round;stroke-linejoin:round;stroke-miterlimit:10;}
	.st1{fill:#F2F2F2;stroke:#666666;stroke-width:39.8038;stroke-linecap:round;stroke-linejoin:round;stroke-miterlimit:10;}
	.st2{fill:none;stroke:#666666;stroke-width:39.8038;stroke-linecap:round;stroke-linejoin:round;stroke-miterlimit:10;}
	.st3{fill:none;stroke:#666666;stroke-width:68.0372;stroke-linecap:round;stroke-linejoin:round;stroke-miterlimit:10;}
	.st4{fill:#666666;}
	.st5{fill:none;stroke:#666666;stroke-width:40;stroke-linecap:round;stroke-linejoin:round;stroke-miterlimit:10;}
	.st6{fill:#F2F2F2;}
	.st7{fill:none;stroke:#666666;stroke-width:98.74;stroke-linecap:round;stroke-linejoin:round;stroke-miterlimit:10;}
	.st8{fill:none;stroke:#666666;stroke-width:90;stroke-linecap:round;stroke-linejoin:round;stroke-miterlimit:10;}
	.st9{fill:#F2F2F2;stroke:#666666;stroke-width:28;stroke-linecap:round;stroke-linejoin:round;stroke-miterlimit:10;}
	.st10{fill:#FFFFFF;}
	.st11{fill:#FFFFFF;stroke:#2F2D7E;stroke-width:40;stroke-linecap:round;stroke-linejoin:round;stroke-miterlimit:10;}
	.st12{fill:none;stroke:#2F2D7E;stroke-width:40;stroke-linecap:round;stroke-linejoin:round;stroke-miterlimit:10;}
	.st13{fill:#FFFFFF;stroke:#2F2D7E;stroke-width:30;stroke-linecap:round;stroke-linejoin:round;stroke-miterlimit:10;}
	.st14{fill:none;stroke:#808080;stroke-width:40;stroke-linecap:round;stroke-linejoin:round;stroke-miterlimit:10;}
	.st15{fill:none;stroke:#808080;stroke-width:110;stroke-linecap:round;stroke-linejoin:round;stroke-miterlimit:10;}
	.st16{clip-path:url(#SVGID_00000016070558054071952680000013545864624002603669_);}
	.st17{fill:#EAA58D;}
	.st18{fill:none;stroke:#808080;stroke-width:70;stroke-linecap:round;stroke-linejoin:round;stroke-miterlimit:10;}
	.st19{fill:none;stroke:#CCCCCC;stroke-width:119.9441;stroke-linecap:round;stroke-linejoin:round;stroke-miterlimit:10;}
	.st20{fill:none;stroke:#666666;stroke-width:59.9664;stroke-linecap:round;stroke-miterlimit:10;}
	.st21{fill:none;stroke:#666666;stroke-width:58.1416;stroke-linecap:round;stroke-miterlimit:10;}
	.st22{fill:none;stroke:#666666;stroke-width:56.47;stroke-miterlimit:10;}
	.st23{fill:none;stroke:#666666;stroke-width:56.47;stroke-linecap:round;stroke-miterlimit:10;}
	.st24{fill:none;stroke:#666666;stroke-width:59.3407;stroke-linecap:round;stroke-miterlimit:10;}
	.st25{fill:none;stroke:#666666;stroke-width:98.0992;stroke-linecap:round;stroke-miterlimit:10;}
	.st26{fill:none;stroke:#666666;stroke-width:61.312;stroke-linecap:round;stroke-miterlimit:10;}
	.st27{fill:none;stroke:#666666;stroke-width:61.312;stroke-linejoin:bevel;stroke-miterlimit:10;}
	.st28{fill:none;stroke:#666666;stroke-width:50;stroke-linecap:round;stroke-miterlimit:10;}
	.st29{fill:none;stroke:#666666;stroke-width:50;stroke-linejoin:bevel;stroke-miterlimit:10;}
	.st30{fill:none;stroke:#666666;stroke-width:40.5198;stroke-linecap:round;stroke-miterlimit:10;}
	.st31{fill:none;stroke:#666666;stroke-width:26.4282;stroke-linecap:round;stroke-miterlimit:10;}
	.st32{fill:none;stroke:#666666;stroke-width:41.6027;stroke-linecap:round;stroke-miterlimit:10;}
	.st33{fill:none;stroke:#666666;stroke-width:125.3478;stroke-linecap:square;stroke-linejoin:round;stroke-miterlimit:10;}
	.st34{fill:none;stroke:#666666;stroke-width:40.4771;stroke-linecap:round;stroke-miterlimit:10;}
	.st35{fill:none;stroke:#666666;stroke-width:47.5393;stroke-linecap:round;stroke-miterlimit:10;}
	.st36{fill:none;stroke:#666666;stroke-width:81.1986;stroke-linecap:round;stroke-miterlimit:10;}
	.st37{fill:#FFFFFF;stroke:#666666;stroke-width:47.5393;stroke-linecap:round;stroke-miterlimit:10;}
	.st38{fill:none;stroke:#666666;stroke-width:38.9985;stroke-linecap:round;stroke-linejoin:round;stroke-miterlimit:10;}
	.st39{fill:none;stroke:#666666;stroke-width:25.999;stroke-linecap:round;stroke-linejoin:round;stroke-miterlimit:10;}
	.st40{fill:none;stroke:#666666;stroke-width:38.9985;stroke-linecap:round;stroke-miterlimit:10;}
	.st41{fill:#F2F2F2;stroke:#666666;stroke-width:33.614;stroke-linecap:round;stroke-linejoin:round;stroke-miterlimit:10;}
	.st42{fill:none;stroke:#666666;stroke-width:39.662;stroke-linecap:round;stroke-linejoin:round;stroke-miterlimit:10;}
	.st43{fill:none;stroke:#666666;stroke-width:54.6198;stroke-linecap:round;stroke-linejoin:round;stroke-miterlimit:10;}
	.st44{fill:#F2F2F2;stroke:#666666;stroke-width:39.662;stroke-linecap:round;stroke-linejoin:round;stroke-miterlimit:10;}
	.st45{fill:none;stroke:#666666;stroke-width:38.5513;stroke-linecap:round;stroke-linejoin:round;stroke-miterlimit:10;}
	.st46{fill:none;stroke:#666666;stroke-width:38.5513;stroke-linejoin:round;stroke-miterlimit:10;}
	.st47{fill:none;stroke:#666666;stroke-width:30.4797;stroke-linecap:round;stroke-linejoin:round;stroke-miterlimit:10;}
	.st48{fill:#F2F2F2;stroke:#666666;stroke-width:41.2099;stroke-linecap:round;stroke-linejoin:round;stroke-miterlimit:10;}
	.st49{fill:#F2F2F2;stroke:#666666;stroke-width:42.1309;stroke-linecap:round;stroke-linejoin:round;stroke-miterlimit:10;}
</style>
<g>
	<g>
		<line class="st48" x1="816.7" y1="535.47" x2="974.58" y2="535.47"/>
		<line class="st48" x1="804.12" y1="336.37" x2="941.9" y2="259.28"/>
		<line class="st48" x1="936.24" y1="806.01" x2="798.46" y2="728.92"/>
	</g>
	<line class="st49" x1="199.88" y1="427.11" x2="199.88" y2="638.11"/>
	<g>
		<path class="st6" d="M210.46,634.1l82.97,48.99l319.95-489.95l-403.02,235.1c-3.15,1.84-6.72,2.82-10.38,2.82h-132
			c-12.11,0-21.94,9.83-21.94,21.92v156.3c0,12.11,9.83,21.94,21.94,21.94h132C203.67,631.23,207.28,632.23,210.46,634.1z"/>
		<path class="st6" d="M390.66,740.51l237.18,140.06c10.62,6.11,23.6,6.09,34.42-0.17c10.85-6.28,17.3-17.5,17.3-30.03V298.1
			L390.66,740.51z"/>
	</g>
	<g>
		<path class="st4" d="M270.87,717.64l22.56-34.55l-82.97-48.99c-3.18-1.87-6.79-2.87-10.48-2.87h-132
			c-12.11,0-21.94-9.83-21.94-21.94v-156.3c0-12.09,9.83-21.92,21.94-21.92h132c3.66,0,7.23-0.98,10.38-2.82l403.02-235.1
			l35.18-53.88c-6.5-0.32-13.04-0.04-19.56,1.36c-7.59,1.64-14.96,4.5-21.89,8.49c-0.05,0.02-0.09,0.03-0.12,0.07L194.42,389.84
			H67.98c-34.82,0-63.17,28.33-63.17,63.15v156.3c0,34.82,28.35,63.17,63.17,63.17h126.37L270.87,717.64z"/>
		<path class="st4" d="M679.57,298.1v552.27c0,12.53-6.46,23.74-17.3,30.03c-10.81,6.26-23.8,6.28-34.42,0.17L390.66,740.51
			l-22.56,34.55l238.99,141.12c11.85,6.81,24.83,10.2,37.81,10.2c13.05,0,26.11-3.45,38-10.32c23.71-13.72,37.88-38.28,37.88-65.69
			v-615.4L679.57,298.1z"/>
	</g>
	<line class="st48" x1="765.82" y1="62.85" x2="194.9" y2="937.15"/>
</g>
</svg>
