<?xml version="1.0" encoding="utf-8"?>
<!-- Generator: Adobe Illustrator 27.0.1, SVG Export Plug-In . SVG Version: 6.00 Build 0)  -->
<svg version="1.0" id="Ebene_1" xmlns="http://www.w3.org/2000/svg" xmlns:xlink="http://www.w3.org/1999/xlink" x="0px" y="0px"
	 viewBox="0 0 1000 1000" style="enable-background:new 0 0 1000 1000;" xml:space="preserve">
<style type="text/css">
	.st0{fill:#676767;}
</style>
<path class="st0" d="M994.8,364.9L846.1,124.4c-7.2-11.6-20-17.8-33.6-16.1c-13.6,1.7-24.6,10.9-28.8,24v0
	C768.9,179,740,228,700.1,274c-42.8,49.3-83.5,78.7-95.5,86.9L265.7,570.7c-26.2,16.2-47.5,38.7-62.2,65.1l-93.7,58
	c-18.4,11.4-40,14.9-61,10l-13.6-3.2c-11.3-2.7-23,1.7-29.8,11.2c-6.8,9.4-7.2,21.9-1.1,31.8l67.2,108.6
	c5.3,8.6,14.5,13.6,24.3,13.6c1.5,0,3.1-0.1,4.7-0.4c11.5-1.9,20.6-10.4,23.3-21.7L127,830c4.9-21,17.8-38.8,36.1-50.2L187,765
	c3.7,13.6,9.1,26.9,16.2,39.4c23.4,41.2,61.5,70.3,107.4,82c14.4,3.7,28.8,5.5,43.2,5.5c31.6,0,62.7-8.8,90.3-25.9l223.6-138.4
	c2.1-1.3,4.1-2.7,6.1-4.3c0.8-0.6,1.5-1.3,2.2-2c33.1-25.6,55.6-62.2,63.7-103.6c8.3-42.8,0.3-86.7-22.6-123.6
	c-0.1-0.2-0.2-0.3-0.3-0.5L697.4,464c22.8-10.8,61.5-26.8,110.1-38.1c55.3-12.9,106.6-15.8,152.3-8.6c13.6,2.1,26.8-3.6,34.4-15.1
	C1001.7,390.8,1001.9,376.5,994.8,364.9z M142.1,745.8c-23.8,14.7-41.4,36.7-50.5,62.8l-39.4-63.7c27.4,3.5,54.9-2.4,78.7-17.2
	l52.3-32.4c-1.3,8.7-2,17.5-2,26.2L142.1,745.8z M669.9,432.9c-0.5,0.3-1,0.5-1.5,0.9L312.8,653.8c-18,11.2-30.8,29.5-35,50.4
	c-4.2,21.1,0.4,42.5,12.9,60c14.7,20.6,38.3,31.6,62.6,31.6c14.4,0,29.1-3.9,42.3-12.1L611,650.5c17.5-10.8,29.7-27.8,34.4-47.9
	c4.7-20.1,1.4-40.7-9.5-58.2c-0.1-0.2-0.2-0.3-0.3-0.5l-19.8-30.2l47.2-29.2l20.3,30.8c17.5,28.3,23.6,62,17.2,94.7
	c-6.4,32.7-24.5,61.5-51,81.2c-0.9,0.6-1.6,1.3-2.4,2.1c-0.1,0.1-0.3,0.2-0.4,0.3L423.1,832.1c-30.9,19.1-67.3,24.7-102.6,15.6
	c-35.3-9-64.6-31.4-82.5-63c-8.8-15.6-14.2-32.6-16-50.1c0.2-1.3,0.2-2.6,0.1-3.9c-1.8-24.8,3.4-49.6,14.9-71.9
	c0.6-1.1,1-2.2,1.3-3.3c11.4-20.6,27.9-38.1,48.4-50.8l339.2-210c0.2-0.2,0.5-0.3,0.7-0.5c53.2-36.2,151.4-126.1,191.4-238.9
	l136.5,220.8C852.8,363.7,741.6,396.8,669.9,432.9z M606.5,593.5c-2.3,9.7-8.1,17.8-16.5,23L374.6,749.8c-17.5,10.8-40,7-51.3-8.8
	c-6.1-8.5-8.3-18.7-6.2-28.9c2-10.2,8-18.8,16.8-24.3l247.8-153.4l20.5,31.2C607.2,574,608.8,583.9,606.5,593.5z"/>
</svg>
