<?xml version="1.0" encoding="utf-8"?>
<!-- Generator: Adobe Illustrator 27.0.1, SVG Export Plug-In . SVG Version: 6.00 Build 0)  -->
<svg version="1.0" id="Ebene_1" xmlns="http://www.w3.org/2000/svg" xmlns:xlink="http://www.w3.org/1999/xlink" x="0px" y="0px"
	 viewBox="0 0 1000 1000" style="enable-background:new 0 0 1000 1000;" xml:space="preserve">
<style type="text/css">
	.st0{fill:#676767;}
</style>
<g>
	<path class="st0" d="M993.1,928.7L799.3,760.8c-0.4-0.3-0.7-0.6-1.1-0.9c30.6-38.8,54.4-81.9,70.8-128.6
		c19.9-56.5,28-115.6,24.3-175.9c-3.7-60.2-19.2-117.9-45.9-171.5c-25.8-51.7-60.9-97.5-104.4-135.9
		c-43.5-38.4-93.2-67.6-147.8-86.8c-56.5-19.9-115.6-28-175.9-24.3c-60.2,3.7-117.9,19.2-171.5,45.9
		c-51.7,25.8-97.5,60.9-135.9,104.4C73.5,230.8,44.3,280.5,25.2,335C5.3,391.5-2.9,450.7,0.9,510.9c3.7,60.2,19.2,117.9,45.9,171.5
		c25.8,51.7,60.9,97.5,104.4,135.9c43.5,38.4,93.2,67.6,147.8,86.8c47.6,16.7,97.1,25.2,147.5,25.2c9.4,0,18.9-0.3,28.4-0.9
		c60.2-3.7,117.9-19.2,171.5-45.9c47.2-23.5,89.5-54.9,125.7-93.3c0.3,0.3,0.6,0.6,1,0.9L966.8,959c3.8,3.3,8.5,4.9,13.1,4.9
		c5.6,0,11.2-2.3,15.2-6.9C1002.4,948.6,1001.4,935.9,993.1,928.7z M752.1,752.5c-35,39.6-76.6,71.6-123.7,95.1
		c-48.7,24.3-101.3,38.3-156.1,41.7c-54.8,3.4-108.7-4-160.1-22.1c-49.6-17.4-94.9-44-134.5-79c-39.6-35-71.6-76.6-95.1-123.7
		C58.4,615.8,44.4,563.2,41,508.4c-3.4-54.8,4-108.7,22.1-160.1c17.4-49.6,44-94.9,79-134.5s76.6-71.6,123.7-95.1
		C314.5,94.5,367,80.5,421.8,77.1c8.6-0.5,17.2-0.8,25.8-0.8c45.9,0,91,7.7,134.2,22.9c49.6,17.4,94.9,44,134.5,79
		s71.6,76.6,95.1,123.7c24.3,48.7,38.3,101.3,41.7,156.1c3.4,54.8-4,108.7-22.1,160.1C813.7,667.6,787.1,712.9,752.1,752.5z"/>
	<path class="st0" d="M447.7,414.2c-22.3,0-41.7,16.9-42.3,37.5v213.4c0.6,20.6,20,37.5,42.3,37.5c23,0,42.3-16.3,42.3-37.5V451.7
		C490,430.6,470.6,414.2,447.7,414.2z"/>
	<path class="st0" d="M447.7,263.7c-28.4,0-52.6,21.2-52.6,49c0,27.8,24.2,49.6,52.6,49.6c28.4,0,51.4-21.8,51.4-49.6
		C499.1,284.8,476.1,263.7,447.7,263.7z"/>
</g>
</svg>
