<?xml version="1.0" encoding="utf-8"?>
<!-- Generator: Adobe Illustrator 27.0.1, SVG Export Plug-In . SVG Version: 6.00 Build 0)  -->
<svg version="1.0" id="Ebene_1" xmlns="http://www.w3.org/2000/svg" xmlns:xlink="http://www.w3.org/1999/xlink" x="0px" y="0px"
	 viewBox="0 0 1000 1000" style="enable-background:new 0 0 1000 1000;" xml:space="preserve">
<style type="text/css">
	.st0{fill:#676767;}
</style>
<g>
	<g>
		<path class="st0" d="M795.7,974.4c-5.6,0-11.1-2.4-15-6.7c-0.9-1-82.7-93.2-133.4-150H162.6C73,817.7,0,744.8,0,655.1V188.2
			C0,98.5,73,25.6,162.6,25.6h674.8c89.7,0,162.6,73,162.6,162.6v466.9c0,89.7-73,162.6-162.6,162.6h-11.9l-9.8,138.1
			c-0.6,8-5.9,14.9-13.5,17.5C800,974.1,797.9,974.4,795.7,974.4z M162.6,65.6C95,65.6,40,120.6,40,188.2v466.9
			c0,67.6,55,122.6,122.6,122.6h493.7c5.7,0,11.1,2.4,14.9,6.7c31.1,34.9,77.3,86.8,107.8,121.2l7.7-109.3
			c0.7-10.5,9.5-18.6,20-18.6h30.6c67.6,0,122.6-55,122.6-122.6V188.2c0-67.6-55-122.6-122.6-122.6H162.6z"/>
	</g>
	<g>
		<path class="st0" d="M869.1,509.2c-11,0-20-9-20-20v-58.1c0-11,9-20,20-20c11,0,20,9,20,20v58.1
			C889.1,500.2,880.1,509.2,869.1,509.2z"/>
	</g>
	<g>
		<g>
			<g>
				<circle class="st0" cx="493" cy="622.6" r="40.6"/>
			</g>
		</g>
		<g>
			<path class="st0" d="M493,228.8L493,228.8c-29.1,0-52,26.5-49.9,57.6l15.3,223.6c0.6,20,15.9,35.9,34.5,35.9h0
				c18.7,0,33.9-15.9,34.5-35.9l15.3-223.6C545,255.2,522.1,228.8,493,228.8z"/>
		</g>
	</g>
	<g>
		<path class="st0" d="M866.8,380.7c-11,0-20-9-20-20v-99.5c0-38.2-31.1-69.2-69.2-69.2h-57.4c-11,0-20-9-20-20c0-11,9-20,20-20
			h57.4c60.2,0,109.2,49,109.2,109.2v99.5C886.8,371.7,877.8,380.7,866.8,380.7z"/>
	</g>
</g>
</svg>
